<svg width="26" height="26" viewBox="0 0 26 26" fill="none" xmlns="http://www.w3.org/2000/svg">
<path d="M14.7526 23.1479C14.2827 23.5878 13.6548 23.8337 13.0012 23.8337C12.3477 23.8337 11.7197 23.5878 11.2499 23.1479C6.94744 19.0951 1.18166 14.5678 3.99346 7.99496C5.51377 4.44108 9.16321 2.16699 13.0012 2.16699C16.8392 2.16699 20.4886 4.44108 22.009 7.99496C24.8172 14.5595 19.0656 19.1091 14.7526 23.1479Z" stroke="white" stroke-width="1.5"/>
<path d="M10.1704 8.484C11.1872 7.89 12.0746 8.12937 12.6077 8.51067C12.8263 8.66701 12.9356 8.74518 12.9999 8.74518C13.0642 8.74518 13.1735 8.66701 13.3921 8.51067C13.9252 8.12937 14.8127 7.89 15.8295 8.484C17.1639 9.26356 17.4658 11.8354 14.3878 14.0051C13.8016 14.4184 13.5085 14.625 12.9999 14.625C12.4914 14.625 12.1983 14.4184 11.612 14.0051C8.53399 11.8354 8.83594 9.26356 10.1704 8.484Z" stroke="white" stroke-width="1.5" stroke-linecap="round"/>
</svg>
