<svg width="29" height="29" viewBox="0 0 29 29" fill="none" xmlns="http://www.w3.org/2000/svg">
<path d="M8.4585 10.2715L12.0134 12.3733C14.086 13.5987 14.9144 13.5987 16.9869 12.3733L20.5418 10.2715" stroke="white" stroke-width="1.5" stroke-linecap="round" stroke-linejoin="round"/>
<path d="M2.4358 16.2834C2.51479 19.9876 2.55429 21.8396 3.92107 23.2116C5.28785 24.5836 7.19007 24.6314 10.9945 24.727C13.3393 24.7859 15.6609 24.7859 18.0057 24.727C21.8101 24.6314 23.7123 24.5836 25.0791 23.2116C26.4459 21.8396 26.4854 19.9876 26.5644 16.2834C26.5898 15.0923 26.5898 13.9083 26.5644 12.7173C26.4854 9.01312 26.4459 7.16102 25.0791 5.78904C23.7123 4.41706 21.8101 4.36927 18.0057 4.27368C15.6609 4.21477 13.3392 4.21476 10.9945 4.27367C7.19006 4.36925 5.28785 4.41704 3.92107 5.78902C2.55428 7.161 2.51479 9.0131 2.4358 12.7173C2.4104 13.9083 2.4104 15.0923 2.4358 16.2834Z" stroke="white" stroke-width="1.5" stroke-linejoin="round"/>
</svg>
