<svg width="24" height="13" viewBox="0 0 24 13" fill="none" xmlns="http://www.w3.org/2000/svg">
<path d="M4.3564 6.18573C6.41298 6.18573 9.27428 6.25684 12.0463 6.32793C14.8182 6.32793 17.5901 6.39902 19.7361 6.39902C20.4514 6.39902 20.9879 6.39902 21.5244 6.39902C21.435 6.39902 21.435 6.32793 21.3456 6.32793C20.362 5.97246 19.1996 5.3326 18.1266 4.55056C17.8583 4.33727 17.5901 4.12399 17.4113 3.9107C17.143 3.69741 16.9642 3.48414 16.7853 3.27085C16.6065 3.05757 16.4276 2.84428 16.2488 2.63099C16.07 2.41771 15.9806 2.20442 15.8017 1.99114C15.7123 1.77786 15.5335 1.63567 15.5335 1.42238C15.4441 1.28019 15.3546 1.138 15.3546 0.99582C15.2653 0.782533 15.1758 0.640343 15.1758 0.640343C15.1758 0.640343 15.5335 0.640338 15.8017 0.569244C16.07 0.498149 16.4276 0.355957 16.4276 0.355957C16.4276 0.355957 16.4276 0.498147 16.5171 0.711431C16.5171 0.853621 16.6065 0.92472 16.6065 1.138C16.6065 1.28019 16.7853 1.49348 16.7853 1.63567C16.8747 1.84895 16.9642 1.99114 17.0536 2.20443C17.143 2.41771 17.3218 2.63099 17.5006 2.84428C17.6795 3.05756 17.8583 3.27085 18.0372 3.48414C18.216 3.69742 18.3948 3.9107 18.6631 4.12399C19.5573 4.90603 20.6303 5.54588 21.6138 5.90136C22.0609 6.11464 22.7763 6.32793 22.7763 6.32793L23.7598 6.6834L22.6868 6.96779C22.6868 6.96779 22.0609 7.18108 21.6138 7.39438C20.7196 7.74981 19.6466 8.38969 18.6631 9.17171C18.3948 9.38501 18.216 9.5983 18.0372 9.8116C17.8583 10.0248 17.6795 10.2381 17.5006 10.4514C17.3218 10.6647 17.2324 10.878 17.0536 11.0913C16.8747 11.3045 16.8747 11.5178 16.7853 11.66C16.6959 11.8733 16.6065 12.0155 16.6065 12.1577C16.5171 12.2999 16.5171 12.4421 16.5171 12.5842C16.4276 12.7975 16.4276 12.9397 16.4276 12.9397C16.4276 12.9397 16.07 12.7975 15.8017 12.7264C15.5335 12.6553 15.1758 12.6553 15.1758 12.6553C15.1758 12.6553 15.2653 12.5131 15.3546 12.2999C15.4441 12.1577 15.4441 12.0155 15.5335 11.8733C15.6229 11.7311 15.7123 11.5178 15.8017 11.3046C15.8912 11.0913 16.07 10.878 16.2488 10.6647C16.4276 10.4514 16.5171 10.2381 16.7853 10.0248C16.9642 9.8116 17.143 9.5983 17.4113 9.38501C17.6795 9.17171 17.8583 8.95842 18.1266 8.74512C19.1102 7.9631 20.362 7.32328 21.3456 6.96779C21.435 6.96779 21.435 6.89669 21.5244 6.89669C20.9879 6.89669 20.4514 6.89669 19.7361 6.89669C17.6795 6.89669 14.8182 6.96779 12.0463 6.96779C9.27428 7.03889 6.5024 7.03889 4.3564 7.10999C2.29981 7.18108 0.869141 7.18108 0.869141 7.18108C0.869141 7.18108 0.958554 6.89669 0.958554 6.6834C0.958554 6.47012 0.869141 6.18573 0.869141 6.18573C0.869141 6.18573 2.2104 6.11464 4.3564 6.18573Z" fill="white"/>
</svg>
