<svg width="542" height="157" viewBox="0 0 542 157" fill="none" xmlns="http://www.w3.org/2000/svg">
<path d="M255.188 114.056C255.807 113.992 256.223 113.827 256.436 113.56C256.65 113.293 256.756 112.861 256.756 112.264V106.008H261.076C261.93 106.008 262.596 106.248 263.076 106.728C263.556 107.208 263.796 107.965 263.796 109V115H262.084V108.92C262.084 108.355 261.962 107.949 261.716 107.704C261.471 107.448 261.114 107.32 260.644 107.32H258.468V112.072C258.468 113.128 258.223 113.896 257.732 114.376C257.242 114.856 256.447 115.149 255.348 115.256L255.188 114.056ZM265.879 107.88L265.687 106.008H267.383L267.591 107.88V115H265.879V107.88ZM269.211 113.688H271.515C272.272 113.688 272.837 113.459 273.211 113C273.584 112.541 273.771 111.891 273.771 111.048V109.96C273.771 109.117 273.584 108.467 273.211 108.008C272.837 107.549 272.272 107.32 271.515 107.32H269.211V106.008H271.931C273.072 106.008 273.947 106.36 274.555 107.064C275.173 107.768 275.483 108.76 275.483 110.04V110.968C275.483 112.248 275.173 113.24 274.555 113.944C273.947 114.648 273.072 115 271.931 115H269.211V113.688ZM277.363 107.88L277.171 106.008H278.867L279.075 107.88V110.312L279.059 111.32L277.363 111.64V107.88ZM285.047 108.92C285.047 108.355 284.924 107.949 284.679 107.704C284.434 107.448 284.076 107.32 283.607 107.32H280.647V106.008H284.039C284.892 106.008 285.559 106.248 286.039 106.728C286.519 107.208 286.759 107.965 286.759 109V115H285.047V108.92ZM295.759 113.688V115H292.943H288.495V113.688H292.943V108.92C292.943 108.355 292.82 107.949 292.575 107.704C292.329 107.448 291.972 107.32 291.503 107.32H288.495V106.008H291.935C292.788 106.008 293.455 106.248 293.935 106.728C294.415 107.208 294.655 107.965 294.655 109V113.688H295.759ZM265.672 126.92C265.672 126.355 265.55 125.949 265.304 125.704C265.059 125.448 264.702 125.32 264.232 125.32H260.296V124.008H264.664C265.518 124.008 266.184 124.248 266.664 124.728C267.144 125.208 267.384 125.965 267.384 127V133H265.672V126.92ZM260.248 128.648L260.488 127.576H261.96V133H260.248V128.648ZM269.41 125.88L269.218 124.008H270.914L271.122 125.88V128.312L271.106 129.32L269.41 129.64V125.88ZM277.686 124.008C278.55 124.008 279.217 124.269 279.686 124.792C280.166 125.315 280.406 126.104 280.406 127.16V133H278.694V127.08C278.694 125.907 278.214 125.32 277.254 125.32H274.79V133H273.078V124.696V124.008H277.686ZM291.048 126.472C291.069 128.723 290.44 130.408 289.16 131.528C287.88 132.637 285.917 133.181 283.272 133.16L282.104 124.008H283.736L284.248 128.264C284.835 127.976 285.235 127.597 285.448 127.128C285.661 126.659 285.779 125.955 285.8 125.016V124.024H287.432L287.416 124.984C287.395 126.157 287.16 127.101 286.712 127.816C286.264 128.52 285.496 129.091 284.408 129.528L284.664 131.704C286.275 131.597 287.459 131.117 288.216 130.264C288.984 129.411 289.363 128.173 289.352 126.552L289.32 124.008H291.032L291.048 126.472Z" fill="#0F5B80"/>
<path d="M494.41 105.192C493.631 105 492.805 104.611 491.93 104.024C491.045 104.803 490.01 105.192 488.826 105.192C488.175 105.192 487.599 105.064 487.098 104.808C486.607 104.552 486.223 104.205 485.946 103.768C485.679 103.32 485.546 102.819 485.546 102.264C485.546 101.613 485.722 101.059 486.074 100.6C486.437 100.131 486.933 99.6827 487.562 99.256C487.114 98.3813 486.89 97.592 486.89 96.888C486.89 96.4187 486.997 95.9867 487.21 95.592C487.423 95.1973 487.722 94.888 488.106 94.664C488.49 94.44 488.933 94.328 489.434 94.328C490.117 94.328 490.655 94.5253 491.05 94.92C491.445 95.3147 491.642 95.8373 491.642 96.488C491.642 97.1067 491.439 97.64 491.034 98.088C490.639 98.536 490.069 99.0267 489.322 99.56C490.037 100.552 490.874 101.427 491.834 102.184C492.463 101.352 492.927 100.381 493.226 99.272H494.714C494.287 100.712 493.685 101.939 492.906 102.952C493.642 103.421 494.282 103.725 494.826 103.864L494.41 105.192ZM488.266 96.872C488.266 97.3733 488.415 97.9227 488.714 98.52C489.247 98.1787 489.653 97.8587 489.93 97.56C490.218 97.2507 490.362 96.8987 490.362 96.504C490.362 96.1947 490.287 95.944 490.138 95.752C489.989 95.5493 489.759 95.448 489.45 95.448C489.098 95.448 488.81 95.5813 488.586 95.848C488.373 96.1147 488.266 96.456 488.266 96.872ZM487.098 102.168C487.098 102.691 487.279 103.117 487.642 103.448C488.005 103.768 488.463 103.928 489.018 103.928C489.615 103.928 490.223 103.688 490.842 103.208C489.797 102.312 488.927 101.363 488.234 100.36C487.871 100.648 487.589 100.936 487.386 101.224C487.194 101.512 487.098 101.827 487.098 102.168ZM505.309 105L501.949 99.896L500.365 105H498.733L500.493 99.496L500.941 98.36L499.469 96.008H501.213L502.557 98.168L503.901 100.184L504.301 98.792L505.117 96.008H506.765L504.909 101.672L507.133 105H505.309ZM508.716 103.688H511.612C512.348 103.688 512.929 103.469 513.356 103.032C513.783 102.595 513.996 101.928 513.996 101.032V99.96C513.996 99.1173 513.825 98.4667 513.484 98.008C513.143 97.5493 512.631 97.32 511.948 97.32H510.508L510.156 98.904C510.103 99.1493 510.076 99.3573 510.076 99.528C510.076 99.848 510.167 100.099 510.348 100.28C510.529 100.451 510.828 100.579 511.244 100.664L510.94 101.768C510.108 101.715 509.5 101.507 509.116 101.144C508.743 100.771 508.556 100.259 508.556 99.608C508.556 99.2987 508.583 99.016 508.636 98.76L509.26 96.008H512.316C513.383 96.008 514.215 96.36 514.812 97.064C515.409 97.768 515.708 98.7547 515.708 100.024V100.952C515.708 102.285 515.367 103.293 514.684 103.976C514.001 104.659 513.095 105 511.964 105H508.716V103.688ZM524.954 99.8C525.018 101.645 524.452 102.984 523.258 103.816C522.063 104.637 520.388 105.085 518.234 105.16L517.306 97.32L517.146 96.008H521.754C522.746 96.008 523.514 96.3013 524.058 96.888C524.612 97.4747 524.906 98.2747 524.938 99.288L524.954 99.8ZM519.738 103.608C520.932 103.501 521.828 103.16 522.426 102.584C523.023 101.997 523.3 101.059 523.258 99.768V99.336C523.258 98.7387 523.114 98.2533 522.826 97.88C522.538 97.5067 522.138 97.32 521.626 97.32H519.018L519.738 103.608ZM484.136 122.056C484.755 121.992 485.171 121.827 485.384 121.56C485.597 121.293 485.704 120.861 485.704 120.264V114.008H490.024C490.877 114.008 491.544 114.248 492.024 114.728C492.504 115.208 492.744 115.965 492.744 117V123H491.032V116.92C491.032 116.355 490.909 115.949 490.664 115.704C490.419 115.448 490.061 115.32 489.592 115.32H487.416V120.072C487.416 121.128 487.171 121.896 486.68 122.376C486.189 122.856 485.395 123.149 484.296 123.256L484.136 122.056ZM494.827 115.88L494.635 114.008H496.331L496.539 115.88V123H494.827V115.88ZM504.575 123L501.215 117.896L499.631 123H497.999L499.759 117.496L500.207 116.36L498.735 114.008H500.479L501.823 116.168L503.167 118.184L503.567 116.792L504.383 114.008H506.031L504.175 119.672L506.399 123H504.575ZM508.046 115.88L507.854 114.008H509.55L509.758 115.88V118.312L509.742 119.32L508.046 119.64V115.88ZM515.729 116.92C515.729 116.355 515.607 115.949 515.361 115.704C515.116 115.448 514.759 115.32 514.289 115.32H511.329V114.008H514.721C515.575 114.008 516.241 114.248 516.721 114.728C517.201 115.208 517.441 115.965 517.441 117V123H515.729V116.92ZM526.441 121.688V123H523.625H519.177V121.688H523.625V116.92C523.625 116.355 523.502 115.949 523.257 115.704C523.011 115.448 522.654 115.32 522.185 115.32H519.177V114.008H522.617C523.47 114.008 524.137 114.248 524.617 114.728C525.097 115.208 525.337 115.965 525.337 117V121.688H526.441Z" fill="#0F5B80"/>
<path d="M527 40.6666C527 58.7236 505.68 70.4358 502.417 72.1226C502.145 72.2631 501.855 72.2631 501.583 72.1226C498.32 70.4358 477 58.7236 477 40.6666C477 25.6666 489.113 15.6666 502 15.6666C515.333 15.6666 527 25.6666 527 40.6666Z" fill="#BF9C40"/>
<path d="M529 40.9118C529 60.4138 505.822 73.0406 502.416 74.7908C502.144 74.9303 501.856 74.9303 501.584 74.7908C498.178 73.0406 475 60.4138 475 40.9118C475 24.7647 488.082 14 502 14C516.4 14 529 24.7647 529 40.9118Z" stroke="#BF9C40"/>
<path d="M492 46.0166C493.366 46.0166 495.273 45.6113 496.468 46.4874L498.841 48.2259C499.722 48.8718 500.677 48.6591 501.661 48.5046C502.956 48.3012 504.115 49.4062 504.115 50.8447C504.115 51.2379 501.325 52.2371 500.922 52.4271C500.13 52.8003 499.219 52.7084 498.502 52.1829L495.826 50.2218" stroke="#FFFDFA" stroke-width="2" stroke-linecap="round" stroke-linejoin="round"/>
<path d="M504.115 49.9615L509.622 47.4166C510.61 47.0726 511.698 47.3412 512.434 48.1105L513.337 49.0545C513.66 49.3918 513.584 49.9583 513.185 50.19L502.612 56.3308C501.975 56.7007 501.223 56.791 500.522 56.5817L492 54.0362" stroke="#FFFDFA" stroke-width="2" stroke-linecap="round" stroke-linejoin="round"/>
<path d="M502.772 43.2307C502.772 43.2307 505.599 40.2172 505.599 36.4999C505.599 32.7826 502.772 29.7692 502.772 29.7692C502.772 29.7692 499.945 32.7826 499.945 36.4999C499.945 40.2172 502.772 43.2307 502.772 43.2307ZM502.772 43.2307C502.772 43.2307 506.901 43.1387 509.503 40.4835C512.105 37.8282 512.195 33.6153 512.195 33.6153C512.195 33.6153 510.486 33.6534 508.574 34.3876M502.772 43.2307C502.772 43.2307 498.643 43.1387 496.041 40.4835C493.439 37.8282 493.349 33.6153 493.349 33.6153C493.349 33.6153 495.058 33.6534 496.97 34.3876" stroke="#FFFDFA" stroke-width="2" stroke-linecap="round" stroke-linejoin="round"/>
<path d="M309.25 45.8334C309.25 68.5995 282.138 83.2971 278.42 85.2051C278.148 85.3449 277.852 85.3449 277.58 85.2051C273.862 83.2971 246.75 68.5995 246.75 45.8334C246.75 27.0834 261.892 14.5834 278 14.5834C294.667 14.5834 309.25 27.0834 309.25 45.8334Z" fill="#0F5B80"/>
<path d="M311.5 45.75C311.5 70.3998 282.07 86.2913 278.174 88.2869C277.902 88.4264 277.598 88.4264 277.326 88.2869C273.43 86.2913 244 70.3998 244 45.75C244 25.5 260.353 12 277.75 12C295.75 12 311.5 25.5 311.5 45.75Z" stroke="#0F5B80"/>
<path d="M276.226 35.5468L284.115 52.3846C280.365 52.3846 279.224 50.4066 275.311 48.4285C272.181 46.8461 267.811 47.1099 266.507 47.4395L272.223 43.3983C272.531 43.1803 272.685 43.0712 272.735 42.9052C272.784 42.7392 272.714 42.5637 272.575 42.2126L271.402 39.2599C271.201 38.7535 271.1 38.5003 270.899 38.336C270.697 38.1718 270.429 38.1242 269.893 38.029L263.663 36.9237C262.479 36.7136 261.615 35.6838 261.615 34.4807C261.615 32.9692 262.955 31.8089 264.451 32.0249L273.176 33.285C274.221 33.4359 274.743 33.5114 275.149 33.8121C275.554 34.1129 275.778 34.5909 276.226 35.5468L276.226 35.5468Z" stroke="white" stroke-width="2" stroke-linecap="round" stroke-linejoin="round"/>
<ellipse cx="291.039" cy="41.9998" rx="5.19226" ry="5.19231" stroke="white" stroke-width="2" stroke-linecap="round" stroke-linejoin="round"/>
<path d="M261.616 55.9922C263.443 49.8798 271.6 52.6852 278.058 55.9922C284.516 59.2992 291.039 61.4034 294.5 55.9922" stroke="white" stroke-width="2" stroke-linecap="round" stroke-linejoin="round"/>
<path d="M413 70.6666C413 88.7236 391.68 100.436 388.417 102.123C388.145 102.263 387.855 102.263 387.583 102.123C384.32 100.436 363 88.7236 363 70.6666C363 55.6666 375.113 45.6666 388 45.6666C401.333 45.6666 413 55.6666 413 70.6666Z" fill="#93184F"/>
<path d="M415 70.9118C415 90.4138 391.822 103.041 388.416 104.791C388.144 104.93 387.856 104.93 387.584 104.791C384.178 103.041 361 90.4138 361 70.9118C361 54.7647 374.082 44 388 44C402.4 44 415 54.7647 415 70.9118Z" stroke="#93184F"/>
<path d="M385.385 68.6612C382.07 66.8655 378.573 63.7583 375.692 58.6155M387.622 61.9649C384.804 60.1157 381.366 60.8885 379.942 63.691C378.519 66.4935 379.649 70.2644 382.467 72.1136C385.018 73.7877 390.601 75.5187 395.077 70.7239C390.882 68.9376 390.439 63.814 387.622 61.9649Z" stroke="white" stroke-width="2" stroke-linecap="round" stroke-linejoin="round"/>
<path d="M377.077 71.0769C376.192 71.7289 375.692 72.469 375.692 73.2535C375.692 75.8749 381.272 78 388.154 78C395.036 78 400.615 75.8749 400.615 73.2535C400.615 72.469 400.116 71.7289 399.231 71.0769" stroke="white" stroke-width="2" stroke-linecap="round"/>
<path d="M400.615 73.8462C400.615 78.7984 397.145 83.1434 393.409 85.5908C392.64 86.094 391.727 86.3077 390.808 86.3077H385.5C384.581 86.3077 383.667 86.094 382.899 85.5908C379.163 83.1434 375.692 78.7984 375.692 73.8462" stroke="white" stroke-width="2" stroke-linecap="round"/>
<path d="M70 38.6666C70 56.7236 48.6798 68.4358 45.4168 70.1226C45.145 70.2631 44.8551 70.2631 44.5832 70.1226C41.3202 68.4358 20 56.7236 20 38.6666C20 23.6666 32.1134 13.6666 45 13.6666C58.3333 13.6666 70 23.6666 70 38.6666Z" fill="#C19C41"/>
<path d="M72 38.9118C72 58.4138 48.8219 71.0406 45.4159 72.7908C45.1445 72.9303 44.8555 72.9303 44.5841 72.7908C41.1781 71.0406 18 58.4138 18 38.9118C18 22.7647 31.0824 12 45 12C59.4 12 72 22.7647 72 38.9118Z" stroke="#C19C41"/>
<g clip-path="url(#clip0_1_2483)">
<path d="M56.5802 47.7693C57.5889 47.7693 58.3912 47.1346 59.1116 46.247C60.5862 44.4301 58.165 42.9781 57.2416 42.2671C56.3029 41.5442 55.2548 41.1347 54.1921 41.0386M52.8459 38.3462C54.7046 38.3462 56.2113 36.8395 56.2113 34.9809C56.2113 33.1222 54.7046 31.6155 52.8459 31.6155" stroke="white" stroke-width="2" stroke-linecap="round"/>
<path d="M32.9579 47.7693C31.9492 47.7693 31.1469 47.1346 30.4266 46.247C28.9519 44.4301 31.3731 42.9781 32.2965 42.2671C33.2352 41.5442 34.2834 41.1347 35.346 41.0386M36.0191 38.3462C34.1605 38.3462 32.6537 36.8395 32.6537 34.9809C32.6537 33.1222 34.1605 31.6155 36.0191 31.6155" stroke="white" stroke-width="2" stroke-linecap="round"/>
<path d="M39.4972 43.8806C38.1218 44.7311 34.5154 46.4678 36.7119 48.6409C37.7849 49.7025 38.9799 50.4617 40.4824 50.4617H49.0557C50.5581 50.4617 51.7532 49.7025 52.8262 48.6409C55.0227 46.4678 51.4163 44.7311 50.0408 43.8806C46.8154 41.8862 42.7227 41.8862 39.4972 43.8806Z" stroke="white" stroke-width="2" stroke-linecap="round" stroke-linejoin="round"/>
<path d="M49.4807 33.6348C49.4807 36.2369 47.3713 38.3463 44.7692 38.3463C42.167 38.3463 40.0576 36.2369 40.0576 33.6348C40.0576 31.0326 42.167 28.9232 44.7692 28.9232C47.3713 28.9232 49.4807 31.0326 49.4807 33.6348Z" stroke="white" stroke-width="2"/>
</g>
<path d="M181 70.6666C181 88.7236 159.68 100.436 156.417 102.123C156.145 102.263 155.855 102.263 155.583 102.123C152.32 100.436 131 88.7236 131 70.6666C131 55.6666 143.113 45.6666 156 45.6666C169.333 45.6666 181 55.6666 181 70.6666Z" fill="#93184F"/>
<path d="M183 70.9118C183 90.4138 159.822 103.041 156.416 104.791C156.144 104.93 155.856 104.93 155.584 104.791C152.178 103.041 129 90.4138 129 70.9118C129 54.7647 142.082 44 156 44C170.4 44 183 54.7647 183 70.9118Z" stroke="#93184F"/>
<path d="M169.231 71.6923C169.231 79.1269 163.204 85.1538 155.769 85.1538C148.335 85.1538 142.308 79.1269 142.308 71.6923C142.308 64.2576 148.335 58.2307 155.769 58.2307C163.204 58.2307 169.231 64.2576 169.231 71.6923Z" stroke="white" stroke-width="2"/>
<path d="M142.308 72.9719C150.58 73.7933 157.866 66.4621 157.049 58.2307" stroke="white" stroke-width="2"/>
<path d="M154.491 85.1541C153.67 76.8818 161.001 69.5956 169.233 70.4129" stroke="white" stroke-width="2"/>
<path d="M162.5 82.4614C162.5 72.7964 154.665 64.9614 145 64.9614" stroke="white" stroke-width="2" stroke-linecap="round"/>
<path d="M141.961 135.192C141.183 135 140.356 134.611 139.481 134.024C138.596 134.803 137.561 135.192 136.377 135.192C135.727 135.192 135.151 135.064 134.649 134.808C134.159 134.552 133.775 134.205 133.497 133.768C133.231 133.32 133.097 132.819 133.097 132.264C133.097 131.613 133.273 131.059 133.625 130.6C133.988 130.131 134.484 129.683 135.113 129.256C134.665 128.381 134.441 127.592 134.441 126.888C134.441 126.419 134.548 125.987 134.761 125.592C134.975 125.197 135.273 124.888 135.657 124.664C136.041 124.44 136.484 124.328 136.985 124.328C137.668 124.328 138.207 124.525 138.601 124.92C138.996 125.315 139.193 125.837 139.193 126.488C139.193 127.107 138.991 127.64 138.585 128.088C138.191 128.536 137.62 129.027 136.873 129.56C137.588 130.552 138.425 131.427 139.385 132.184C140.015 131.352 140.479 130.381 140.777 129.272H142.265C141.839 130.712 141.236 131.939 140.457 132.952C141.193 133.421 141.833 133.725 142.377 133.864L141.961 135.192ZM135.817 126.872C135.817 127.373 135.967 127.923 136.265 128.52C136.799 128.179 137.204 127.859 137.481 127.56C137.769 127.251 137.913 126.899 137.913 126.504C137.913 126.195 137.839 125.944 137.689 125.752C137.54 125.549 137.311 125.448 137.001 125.448C136.649 125.448 136.361 125.581 136.137 125.848C135.924 126.115 135.817 126.456 135.817 126.872ZM134.649 132.168C134.649 132.691 134.831 133.117 135.193 133.448C135.556 133.768 136.015 133.928 136.569 133.928C137.167 133.928 137.775 133.688 138.393 133.208C137.348 132.312 136.479 131.363 135.785 130.36C135.423 130.648 135.14 130.936 134.937 131.224C134.745 131.512 134.649 131.827 134.649 132.168ZM143.353 126.008H145.065L145.929 133.608C148.393 133.363 149.587 132.072 149.513 129.736V129.288C149.513 128.712 149.358 128.237 149.049 127.864C148.739 127.491 148.281 127.283 147.673 127.24L146.873 127.192L147.001 125.848L147.945 125.896C148.905 125.96 149.673 126.259 150.249 126.792C150.825 127.315 151.134 128.077 151.177 129.08L151.193 129.528C151.257 131.384 150.681 132.765 149.465 133.672C148.259 134.568 146.579 135.064 144.425 135.16L143.353 126.008ZM156.718 128.92C156.718 128.355 156.595 127.949 156.35 127.704C156.104 127.448 155.747 127.32 155.278 127.32H152.318V126.008H155.71C156.563 126.008 157.23 126.248 157.71 126.728C158.19 127.208 158.43 127.965 158.43 129V135H156.718V128.92ZM160.565 127.88L160.373 126.008H162.069L162.277 127.88V135H160.565V127.88ZM164.345 133.688H167.241C167.977 133.688 168.558 133.469 168.985 133.032C169.412 132.595 169.625 131.928 169.625 131.032V129.96C169.625 129.117 169.454 128.467 169.113 128.008C168.772 127.549 168.26 127.32 167.577 127.32H166.137L165.785 128.904C165.732 129.149 165.705 129.357 165.705 129.528C165.705 129.848 165.796 130.099 165.977 130.28C166.158 130.451 166.457 130.579 166.873 130.664L166.569 131.768C165.737 131.715 165.129 131.507 164.745 131.144C164.372 130.771 164.185 130.259 164.185 129.608C164.185 129.299 164.212 129.016 164.265 128.76L164.889 126.008H167.945C169.012 126.008 169.844 126.36 170.441 127.064C171.038 127.768 171.337 128.755 171.337 130.024V130.952C171.337 132.285 170.996 133.293 170.313 133.976C169.63 134.659 168.724 135 167.593 135H164.345V133.688ZM180.583 129.8C180.647 131.645 180.081 132.984 178.887 133.816C177.692 134.637 176.017 135.085 173.863 135.16L172.935 127.32L172.775 126.008H177.383C178.375 126.008 179.143 126.301 179.687 126.888C180.241 127.475 180.535 128.275 180.567 129.288L180.583 129.8ZM175.367 133.608C176.561 133.501 177.457 133.16 178.055 132.584C178.652 131.997 178.929 131.059 178.887 129.768V129.336C178.887 128.739 178.743 128.253 178.455 127.88C178.167 127.507 177.767 127.32 177.255 127.32H174.647L175.367 133.608ZM126.609 152.056C127.228 151.992 127.644 151.827 127.857 151.56C128.07 151.293 128.177 150.861 128.177 150.264V144.008H132.497C133.35 144.008 134.017 144.248 134.497 144.728C134.977 145.208 135.217 145.965 135.217 147V153H133.505V146.92C133.505 146.355 133.382 145.949 133.137 145.704C132.892 145.448 132.534 145.32 132.065 145.32H129.889V150.072C129.889 151.128 129.644 151.896 129.153 152.376C128.662 152.856 127.868 153.149 126.769 153.256L126.609 152.056ZM137.3 145.88L137.108 144.008H138.804L139.012 145.88V153H137.3V145.88ZM141.143 145.88L140.951 144.008H142.647L142.855 145.88V148.312L142.839 149.32L141.143 149.64V145.88ZM149.419 149.144L151.659 153H149.915H144.427V151.688H149.147L144.683 144.008H146.427L148.491 147.56L149.979 144.008H151.691L149.419 149.144ZM156.141 151.688C156.664 151.635 157.101 151.512 157.453 151.32C157.816 151.117 158.104 150.787 158.317 150.328C158.541 149.859 158.68 149.219 158.733 148.408L158.973 145.32H153.309V144.008H160.813L160.749 145.16L160.525 148.008C160.451 149.576 160.061 150.792 159.357 151.656C158.653 152.52 157.635 152.973 156.301 153.016L156.141 151.688ZM153.277 148.488L153.517 147.4H154.989V156.2H153.277V148.488ZM166.483 146.92C166.483 146.355 166.361 145.949 166.115 145.704C165.87 145.448 165.513 145.32 165.043 145.32H162.083V144.008H165.475C166.329 144.008 166.995 144.248 167.475 144.728C167.955 145.208 168.195 145.965 168.195 147V153H166.483V146.92ZM169.931 144.008H171.643L172.507 151.608C174.971 151.363 176.166 150.072 176.091 147.736V147.288C176.091 146.712 175.936 146.237 175.627 145.864C175.318 145.491 174.859 145.283 174.251 145.24L173.451 145.192L173.579 143.848L174.523 143.896C175.483 143.96 176.251 144.259 176.827 144.792C177.403 145.315 177.712 146.077 177.755 147.08L177.771 147.528C177.835 149.384 177.259 150.765 176.043 151.672C174.838 152.568 173.158 153.064 171.003 153.16L169.931 144.008ZM185.36 153L182 147.896L180.416 153H178.784L180.544 147.496L180.992 146.36L179.52 144.008H181.264L182.608 146.168L183.952 148.184L184.352 146.792L185.168 144.008H186.816L184.96 149.672L187.184 153H185.36Z" fill="#105C80"/>
<path d="M24.8518 104.192C24.0731 104 23.2465 103.611 22.3718 103.024C21.4865 103.803 20.4518 104.192 19.2678 104.192C18.6171 104.192 18.0411 104.064 17.5398 103.808C17.0491 103.552 16.6651 103.205 16.3878 102.768C16.1211 102.32 15.9878 101.819 15.9878 101.264C15.9878 100.613 16.1638 100.059 16.5158 99.6C16.8785 99.1307 17.3745 98.6827 18.0038 98.256C17.5558 97.3813 17.3318 96.592 17.3318 95.888C17.3318 95.4187 17.4385 94.9867 17.6518 94.592C17.8651 94.1973 18.1638 93.888 18.5478 93.664C18.9318 93.44 19.3745 93.328 19.8758 93.328C20.5585 93.328 21.0971 93.5253 21.4918 93.92C21.8865 94.3147 22.0838 94.8373 22.0838 95.488C22.0838 96.1067 21.8811 96.64 21.4758 97.088C21.0811 97.536 20.5105 98.0267 19.7638 98.56C20.4785 99.552 21.3158 100.427 22.2758 101.184C22.9051 100.352 23.3691 99.3813 23.6678 98.272H25.1558C24.7291 99.712 24.1265 100.939 23.3478 101.952C24.0838 102.421 24.7238 102.725 25.2678 102.864L24.8518 104.192ZM18.7078 95.872C18.7078 96.3733 18.8571 96.9227 19.1558 97.52C19.6891 97.1787 20.0945 96.8587 20.3718 96.56C20.6598 96.2507 20.8038 95.8987 20.8038 95.504C20.8038 95.1947 20.7291 94.944 20.5798 94.752C20.4305 94.5493 20.2011 94.448 19.8918 94.448C19.5398 94.448 19.2518 94.5813 19.0278 94.848C18.8145 95.1147 18.7078 95.456 18.7078 95.872ZM17.5398 101.168C17.5398 101.691 17.7211 102.117 18.0838 102.448C18.4465 102.768 18.9051 102.928 19.4598 102.928C20.0571 102.928 20.6651 102.688 21.2838 102.208C20.2385 101.312 19.3691 100.363 18.6758 99.36C18.3131 99.648 18.0305 99.936 17.8278 100.224C17.6358 100.512 17.5398 100.827 17.5398 101.168ZM34.4066 95.008C35.2599 95.008 35.9266 95.248 36.4066 95.728C36.8866 96.208 37.1266 96.9653 37.1266 98V104H35.4146H30.1666H29.7666V95.008H31.4786H34.4066ZM35.4146 102.688V97.92C35.4146 97.3547 35.2919 96.9493 35.0466 96.704C34.8012 96.448 34.4439 96.32 33.9746 96.32H31.4786V102.688H35.4146ZM39.2059 96.88L39.0139 95.008H40.7099L40.9179 96.88V99.312L40.9019 100.32L39.2059 100.64V96.88ZM49.9777 95.008C49.9777 97.1627 49.8924 98.784 49.7217 99.872C49.5617 100.949 49.1617 101.829 48.5217 102.512C47.8924 103.184 46.8737 103.659 45.4657 103.936L42.4577 104.528L42.2177 103.184L44.9217 102.656L42.9537 95.008H44.6657L46.4577 102.256C47.0337 102 47.4497 101.616 47.7057 101.104C47.9617 100.592 48.1217 99.9467 48.1857 99.168C48.2497 98.3787 48.2817 97.2 48.2817 95.632V95.008H49.9777ZM51.8622 96.88L51.6702 95.008H53.3662L53.5742 96.88V104H51.8622V96.88ZM59.5459 97.92C59.5459 97.3547 59.4233 96.9493 59.1779 96.704C58.9326 96.448 58.5753 96.32 58.1059 96.32H55.1459V95.008H58.5379C59.3913 95.008 60.0579 95.248 60.5379 95.728C61.0179 96.208 61.2579 96.9653 61.2579 98V104H59.5459V97.92ZM63.3934 96.88L63.2014 95.008H64.8974L65.1054 96.88V99.312L65.0894 100.32L63.3934 100.64V96.88ZM73.1412 104L69.7812 98.896L68.1972 104H66.5652L68.3252 98.496L68.7732 97.36L67.3012 95.008H69.0452L70.3892 97.168L71.7332 99.184L72.1332 97.792L72.9492 95.008H74.5972L72.7412 100.672L74.9652 104H73.1412ZM33.3441 113.008C34.1974 113.008 34.8641 113.248 35.3441 113.728C35.8241 114.208 36.0641 114.965 36.0641 116V122H34.3521H29.1041H28.7041V113.008H30.4161H33.3441ZM34.3521 120.688V115.92C34.3521 115.355 34.2294 114.949 33.9841 114.704C33.7387 114.448 33.3814 114.32 32.9121 114.32H30.4161V120.688H34.3521ZM38.1434 114.88L37.9514 113.008H39.6474L39.8554 114.88V117.312L39.8394 118.32L38.1434 118.64V114.88ZM49.3952 116.8C49.4592 118.645 48.8939 119.984 47.6992 120.816C46.5045 121.637 44.8299 122.085 42.6752 122.16L41.7472 114.32L41.5872 113.008H46.1952C47.1872 113.008 47.9552 113.301 48.4992 113.888C49.0539 114.475 49.3472 115.275 49.3792 116.288L49.3952 116.8ZM44.1792 120.608C45.3739 120.501 46.2699 120.16 46.8672 119.584C47.4645 118.997 47.7419 118.059 47.6992 116.768V116.336C47.6992 115.739 47.5552 115.253 47.2672 114.88C46.9792 114.507 46.5792 114.32 46.0672 114.32H43.4592L44.1792 120.608ZM50.4149 120.688H53.0069V115.664C53.0069 115.205 52.9163 114.875 52.7349 114.672C52.5536 114.459 52.2816 114.325 51.9189 114.272L50.8309 114.112L51.0549 112.816L52.7189 113.056C53.3589 113.152 53.8496 113.424 54.1909 113.872C54.5429 114.309 54.7189 114.896 54.7189 115.632V122H50.4149V120.688ZM56.3033 120.688H58.6073C59.3646 120.688 59.93 120.459 60.3033 120C60.6766 119.541 60.8633 118.891 60.8633 118.048V116.96C60.8633 116.117 60.6766 115.467 60.3033 115.008C59.93 114.549 59.3646 114.32 58.6073 114.32H56.3033V113.008H59.0233C60.1646 113.008 61.0393 113.36 61.6473 114.064C62.266 114.768 62.5753 115.76 62.5753 117.04V117.968C62.5753 119.248 62.266 120.24 61.6473 120.944C61.0393 121.648 60.1646 122 59.0233 122H56.3033V120.688Z" fill="#105C80"/>
<path d="M381.078 128.92C381.078 128.355 380.956 127.949 380.71 127.704C380.465 127.448 380.108 127.32 379.638 127.32H375.702V126.008H380.07C380.924 126.008 381.59 126.248 382.07 126.728C382.55 127.208 382.79 127.965 382.79 129V135H381.078V128.92ZM375.654 130.648L375.894 129.576H377.366V135H375.654V130.648ZM384.816 127.88L384.624 126.008H386.32L386.528 127.88V130.312L386.512 131.32L384.816 131.64V127.88ZM388.66 127.88L388.468 126.008H390.164L390.372 127.88V135H388.66V127.88ZM392.504 127.88L392.312 126.008H394.008L394.216 127.88V135H392.504V127.88ZM400.779 126.008C401.643 126.008 402.31 126.269 402.779 126.792C403.259 127.315 403.499 128.104 403.499 129.16V135H401.787V129.08C401.787 127.907 401.307 127.32 400.347 127.32H397.883V135H396.171V126.696V126.008H400.779ZM363.969 152.056C364.588 151.992 365.004 151.827 365.217 151.56C365.431 151.293 365.537 150.861 365.537 150.264V144.008H369.857C370.711 144.008 371.377 144.248 371.857 144.728C372.337 145.208 372.577 145.965 372.577 147V153H370.865V146.92C370.865 146.355 370.743 145.949 370.497 145.704C370.252 145.448 369.895 145.32 369.425 145.32H367.249V150.072C367.249 151.128 367.004 151.896 366.513 152.376C366.023 152.856 365.228 153.149 364.129 153.256L363.969 152.056ZM374.66 145.88L374.468 144.008H376.164L376.372 145.88V148.312L376.356 149.32L374.66 149.64V145.88ZM382.344 146.92C382.344 146.355 382.221 145.949 381.976 145.704C381.73 145.448 381.373 145.32 380.904 145.32H377.944V144.008H381.336C382.189 144.008 382.856 144.248 383.336 144.728C383.816 145.208 384.056 145.965 384.056 147V153H382.344V146.92ZM385.775 151.688H388.367V146.664C388.367 146.205 388.276 145.875 388.095 145.672C387.914 145.459 387.642 145.325 387.279 145.272L386.191 145.112L386.415 143.816L388.079 144.056C388.719 144.152 389.21 144.424 389.551 144.872C389.903 145.309 390.079 145.896 390.079 146.632V153H385.775V151.688ZM392.176 145.88L391.984 144.008H393.68L393.888 145.88V148.312L393.872 149.32L392.176 149.64V145.88ZM402.035 144.008V145.432L399.043 153H397.331L400.323 145.32H395.507V141.528H397.059V144.008H402.035ZM403.801 145.88L403.609 144.008H405.305L405.513 145.88V153H403.801V145.88ZM410.22 151.688C410.743 151.635 411.18 151.512 411.532 151.32C411.895 151.117 412.183 150.787 412.396 150.328C412.62 149.859 412.759 149.219 412.812 148.408L413.052 145.32H407.388V144.008H414.892L414.828 145.16L414.604 148.008C414.53 149.576 414.14 150.792 413.436 151.656C412.732 152.52 411.714 152.973 410.38 153.016L410.22 151.688ZM407.356 148.488L407.596 147.4H409.068V156.2H407.356V148.488Z" fill="#0F5B80"/>
<defs>
<clipPath id="clip0_1_2483">
<rect width="32.3077" height="32.3077" fill="white" transform="translate(28.6155 23.5386)"/>
</clipPath>
</defs>
</svg>
