<svg width="542" height="157" viewBox="0 0 542 157" fill="none" xmlns="http://www.w3.org/2000/svg">
<path d="M243.76 115.192C243.045 115.192 242.363 115.059 241.712 114.792C241.072 114.515 240.512 114.131 240.032 113.64L240.992 112.52C241.376 112.904 241.813 113.208 242.304 113.432C242.795 113.656 243.291 113.768 243.792 113.768C244.411 113.768 244.896 113.635 245.248 113.368C245.6 113.091 245.776 112.723 245.776 112.264C245.776 111.965 245.707 111.72 245.568 111.528C245.44 111.325 245.264 111.16 245.04 111.032C244.827 110.904 244.512 110.755 244.096 110.584L242.64 109.944C241.221 109.357 240.512 108.445 240.512 107.208C240.512 106.664 240.656 106.173 240.944 105.736C241.243 105.299 241.653 104.957 242.176 104.712C242.699 104.456 243.285 104.328 243.936 104.328C244.544 104.328 245.125 104.445 245.68 104.68C246.235 104.915 246.709 105.235 247.104 105.64L246.256 106.68C245.552 106.061 244.779 105.752 243.936 105.752C243.392 105.752 242.96 105.875 242.64 106.12C242.32 106.365 242.16 106.696 242.16 107.112C242.16 107.389 242.235 107.624 242.384 107.816C242.544 108.008 242.731 108.163 242.944 108.28C243.168 108.397 243.472 108.536 243.856 108.696L245.312 109.32C245.995 109.597 246.517 109.96 246.88 110.408C247.253 110.845 247.44 111.421 247.44 112.136C247.44 112.701 247.291 113.219 246.992 113.688C246.693 114.147 246.267 114.515 245.712 114.792C245.157 115.059 244.507 115.192 243.76 115.192ZM248.416 107.176H250.048L251.088 111.432L251.408 113.032L251.52 113.656H251.584C251.787 112.707 251.958 111.965 252.096 111.432L253.2 107.176H254.704L255.824 111.432L256.224 113.08C256.246 113.208 256.288 113.4 256.352 113.656H256.416C256.534 113.091 256.608 112.717 256.64 112.536L256.864 111.432L257.888 107.176H259.408L257.376 115H255.44L254.432 111.112C254.315 110.643 254.198 110.115 254.08 109.528L253.936 108.84H253.872C253.67 109.875 253.504 110.637 253.376 111.128L252.4 115H250.528L248.416 107.176ZM261.03 107.176H262.646V115H261.03V107.176ZM261.846 105.704C261.558 105.704 261.318 105.613 261.126 105.432C260.945 105.251 260.854 105.016 260.854 104.728C260.854 104.451 260.945 104.221 261.126 104.04C261.318 103.859 261.558 103.768 261.846 103.768C262.134 103.768 262.369 103.859 262.55 104.04C262.742 104.221 262.838 104.451 262.838 104.728C262.838 105.016 262.742 105.251 262.55 105.432C262.369 105.613 262.134 105.704 261.846 105.704ZM265.108 107.176H266.436L266.564 108.264H266.612C266.996 107.869 267.38 107.56 267.764 107.336C268.159 107.101 268.58 106.984 269.028 106.984C270.106 106.984 270.826 107.464 271.188 108.424C271.626 107.955 272.042 107.597 272.436 107.352C272.842 107.107 273.274 106.984 273.732 106.984C274.532 106.984 275.13 107.251 275.524 107.784C275.93 108.307 276.132 109.069 276.132 110.072V115H274.516V110.28C274.516 109.608 274.41 109.123 274.196 108.824C273.994 108.525 273.663 108.376 273.204 108.376C272.671 108.376 272.079 108.733 271.428 109.448V115H269.812V110.28C269.812 109.608 269.706 109.123 269.492 108.824C269.29 108.525 268.959 108.376 268.5 108.376C267.967 108.376 267.375 108.733 266.724 109.448V115H265.108V107.176ZM278.499 107.176H279.827L279.955 108.264H280.003C280.387 107.869 280.771 107.56 281.155 107.336C281.55 107.101 281.971 106.984 282.419 106.984C283.496 106.984 284.216 107.464 284.579 108.424C285.016 107.955 285.432 107.597 285.827 107.352C286.232 107.107 286.664 106.984 287.123 106.984C287.923 106.984 288.52 107.251 288.915 107.784C289.32 108.307 289.523 109.069 289.523 110.072V115H287.907V110.28C287.907 109.608 287.8 109.123 287.587 108.824C287.384 108.525 287.054 108.376 286.595 108.376C286.062 108.376 285.47 108.733 284.819 109.448V115H283.203V110.28C283.203 109.608 283.096 109.123 282.883 108.824C282.68 108.525 282.35 108.376 281.891 108.376C281.358 108.376 280.766 108.733 280.115 109.448V115H278.499V107.176ZM291.889 107.176H293.505V115H291.889V107.176ZM292.705 105.704C292.417 105.704 292.177 105.613 291.985 105.432C291.804 105.251 291.713 105.016 291.713 104.728C291.713 104.451 291.804 104.221 291.985 104.04C292.177 103.859 292.417 103.768 292.705 103.768C292.993 103.768 293.228 103.859 293.409 104.04C293.601 104.221 293.697 104.451 293.697 104.728C293.697 105.016 293.601 105.251 293.409 105.432C293.228 105.613 292.993 105.704 292.705 105.704ZM295.968 107.176H297.296L297.424 108.264H297.472C297.888 107.859 298.298 107.544 298.704 107.32C299.12 107.096 299.573 106.984 300.064 106.984C301.664 106.984 302.464 108.013 302.464 110.072V115H300.848V110.28C300.848 109.608 300.741 109.123 300.528 108.824C300.325 108.525 299.989 108.376 299.52 108.376C299.168 108.376 298.853 108.461 298.576 108.632C298.298 108.792 297.968 109.064 297.584 109.448V115H295.968V107.176ZM307.515 118.52C306.544 118.52 305.76 118.339 305.163 117.976C304.566 117.624 304.267 117.117 304.267 116.456C304.267 116.125 304.363 115.811 304.555 115.512C304.758 115.224 305.04 114.968 305.403 114.744V114.68C304.934 114.381 304.699 113.949 304.699 113.384C304.699 113.096 304.779 112.824 304.939 112.568C305.11 112.312 305.318 112.099 305.563 111.928V111.864C305.275 111.64 305.03 111.347 304.827 110.984C304.635 110.621 304.539 110.221 304.539 109.784C304.539 109.219 304.672 108.723 304.939 108.296C305.216 107.869 305.584 107.544 306.043 107.32C306.512 107.096 307.019 106.984 307.563 106.984C307.968 106.984 308.347 107.048 308.699 107.176H311.467V108.392H309.963C310.123 108.563 310.251 108.776 310.347 109.032C310.443 109.277 310.491 109.544 310.491 109.832C310.491 110.664 310.214 111.32 309.659 111.8C309.104 112.28 308.406 112.52 307.563 112.52C307.179 112.52 306.811 112.44 306.459 112.28C306.32 112.408 306.214 112.536 306.139 112.664C306.064 112.781 306.027 112.931 306.027 113.112C306.027 113.357 306.128 113.549 306.331 113.688C306.534 113.816 306.87 113.88 307.339 113.88H308.795C309.734 113.88 310.432 114.035 310.891 114.344C311.36 114.653 311.595 115.133 311.595 115.784C311.595 116.285 311.424 116.744 311.083 117.16C310.752 117.576 310.278 117.907 309.659 118.152C309.04 118.397 308.326 118.52 307.515 118.52ZM307.563 111.48C307.99 111.48 308.342 111.325 308.619 111.016C308.907 110.707 309.051 110.296 309.051 109.784C309.051 109.272 308.907 108.867 308.619 108.568C308.342 108.269 307.99 108.12 307.563 108.12C307.136 108.12 306.779 108.269 306.491 108.568C306.214 108.867 306.075 109.272 306.075 109.784C306.075 110.296 306.214 110.707 306.491 111.016C306.779 111.325 307.136 111.48 307.563 111.48ZM307.755 117.448C308.192 117.448 308.582 117.384 308.923 117.256C309.275 117.128 309.547 116.952 309.739 116.728C309.931 116.515 310.027 116.285 310.027 116.04C310.027 115.72 309.904 115.496 309.659 115.368C309.424 115.24 309.062 115.176 308.571 115.176H307.371C306.976 115.176 306.63 115.139 306.331 115.064C305.872 115.405 305.643 115.789 305.643 116.216C305.643 116.6 305.83 116.899 306.203 117.112C306.576 117.336 307.094 117.448 307.755 117.448ZM258.307 122.52H261.475C264.142 122.52 265.475 123.576 265.475 125.688C265.475 126.787 265.112 127.619 264.387 128.184C263.672 128.739 262.723 129.016 261.539 129.016H259.939V133H258.307V122.52ZM261.379 127.704C262.222 127.704 262.846 127.539 263.251 127.208C263.656 126.877 263.859 126.371 263.859 125.688C263.859 125.016 263.651 124.541 263.235 124.264C262.83 123.976 262.19 123.832 261.315 123.832H259.939V127.704H261.379ZM270.127 133.192C269.476 133.192 268.868 133.027 268.303 132.696C267.738 132.365 267.284 131.891 266.943 131.272C266.612 130.653 266.447 129.928 266.447 129.096C266.447 128.253 266.612 127.523 266.943 126.904C267.284 126.285 267.732 125.811 268.287 125.48C268.852 125.149 269.466 124.984 270.127 124.984C270.788 124.984 271.396 125.149 271.951 125.48C272.516 125.811 272.964 126.285 273.295 126.904C273.636 127.523 273.807 128.253 273.807 129.096C273.807 129.928 273.636 130.653 273.295 131.272C272.964 131.891 272.516 132.365 271.951 132.696C271.386 133.027 270.778 133.192 270.127 133.192ZM270.127 131.864C270.746 131.864 271.236 131.613 271.599 131.112C271.962 130.6 272.143 129.928 272.143 129.096C272.143 128.264 271.956 127.592 271.583 127.08C271.22 126.568 270.735 126.312 270.127 126.312C269.519 126.312 269.028 126.568 268.655 127.08C268.292 127.592 268.111 128.264 268.111 129.096C268.111 129.928 268.292 130.6 268.655 131.112C269.018 131.613 269.508 131.864 270.127 131.864ZM278.861 133.192C278.211 133.192 277.603 133.027 277.037 132.696C276.472 132.365 276.019 131.891 275.677 131.272C275.347 130.653 275.181 129.928 275.181 129.096C275.181 128.253 275.347 127.523 275.677 126.904C276.019 126.285 276.467 125.811 277.021 125.48C277.587 125.149 278.2 124.984 278.861 124.984C279.523 124.984 280.131 125.149 280.685 125.48C281.251 125.811 281.699 126.285 282.029 126.904C282.371 127.523 282.541 128.253 282.541 129.096C282.541 129.928 282.371 130.653 282.029 131.272C281.699 131.891 281.251 132.365 280.685 132.696C280.12 133.027 279.512 133.192 278.861 133.192ZM278.861 131.864C279.48 131.864 279.971 131.613 280.333 131.112C280.696 130.6 280.877 129.928 280.877 129.096C280.877 128.264 280.691 127.592 280.317 127.08C279.955 126.568 279.469 126.312 278.861 126.312C278.253 126.312 277.763 126.568 277.389 127.08C277.027 127.592 276.845 128.264 276.845 129.096C276.845 129.928 277.027 130.6 277.389 131.112C277.752 131.613 278.243 131.864 278.861 131.864ZM286.076 133.192C285.51 133.192 285.1 133.021 284.844 132.68C284.588 132.339 284.46 131.837 284.46 131.176V121.656H286.076V131.272C286.076 131.475 286.113 131.624 286.188 131.72C286.262 131.816 286.353 131.864 286.46 131.864C286.556 131.864 286.652 131.853 286.748 131.832L286.956 133.048C286.71 133.144 286.417 133.192 286.076 133.192ZM290.807 133.192C290.284 133.192 289.761 133.091 289.239 132.888C288.716 132.685 288.257 132.424 287.863 132.104L288.631 131.064C289.004 131.352 289.367 131.576 289.719 131.736C290.071 131.885 290.449 131.96 290.855 131.96C291.303 131.96 291.644 131.864 291.879 131.672C292.113 131.469 292.231 131.213 292.231 130.904C292.231 130.584 292.087 130.333 291.799 130.152C291.511 129.96 291.079 129.757 290.503 129.544C289.809 129.288 289.26 128.995 288.855 128.664C288.449 128.323 288.247 127.859 288.247 127.272C288.247 126.6 288.497 126.051 288.999 125.624C289.5 125.197 290.177 124.984 291.031 124.984C291.948 124.984 292.791 125.288 293.559 125.896L292.807 126.904C292.508 126.68 292.22 126.509 291.943 126.392C291.665 126.275 291.372 126.216 291.063 126.216C290.647 126.216 290.327 126.307 290.103 126.488C289.889 126.669 289.783 126.904 289.783 127.192C289.783 127.405 289.857 127.587 290.007 127.736C290.156 127.875 290.327 127.987 290.519 128.072C290.721 128.157 291.036 128.28 291.463 128.44C291.932 128.611 292.321 128.787 292.631 128.968C292.951 129.139 293.217 129.373 293.431 129.672C293.655 129.971 293.767 130.349 293.767 130.808C293.767 131.256 293.649 131.661 293.415 132.024C293.191 132.376 292.855 132.659 292.407 132.872C291.959 133.085 291.425 133.192 290.807 133.192Z" fill="#0F5B80"/>
<path d="M488.786 105.192C488.071 105.192 487.388 105.059 486.738 104.792C486.098 104.515 485.538 104.131 485.058 103.64L486.018 102.52C486.402 102.904 486.839 103.208 487.33 103.432C487.82 103.656 488.316 103.768 488.818 103.768C489.436 103.768 489.922 103.635 490.274 103.368C490.626 103.091 490.802 102.723 490.802 102.264C490.802 101.965 490.732 101.72 490.594 101.528C490.466 101.325 490.29 101.16 490.066 101.032C489.852 100.904 489.538 100.755 489.122 100.584L487.666 99.944C486.247 99.3573 485.538 98.4453 485.538 97.208C485.538 96.664 485.682 96.1733 485.97 95.736C486.268 95.2987 486.679 94.9573 487.202 94.712C487.724 94.456 488.311 94.328 488.962 94.328C489.57 94.328 490.151 94.4453 490.706 94.68C491.26 94.9147 491.735 95.2347 492.13 95.64L491.282 96.68C490.578 96.0613 489.804 95.752 488.962 95.752C488.418 95.752 487.986 95.8747 487.666 96.12C487.346 96.3653 487.186 96.696 487.186 97.112C487.186 97.3893 487.26 97.624 487.41 97.816C487.57 98.008 487.756 98.1627 487.97 98.28C488.194 98.3973 488.498 98.536 488.882 98.696L490.338 99.32C491.02 99.5973 491.543 99.96 491.906 100.408C492.279 100.845 492.466 101.421 492.466 102.136C492.466 102.701 492.316 103.219 492.018 103.688C491.719 104.147 491.292 104.515 490.738 104.792C490.183 105.059 489.532 105.192 488.786 105.192ZM494.29 97.176H495.618L495.746 98.04H495.794C496.637 97.336 497.442 96.984 498.21 96.984C499.192 96.984 499.949 97.3413 500.482 98.056C501.026 98.7707 501.298 99.7413 501.298 100.968C501.298 101.832 501.144 102.584 500.834 103.224C500.525 103.853 500.114 104.339 499.602 104.68C499.09 105.021 498.536 105.192 497.938 105.192C497.256 105.192 496.562 104.899 495.858 104.312L495.906 105.64V108.184H494.29V97.176ZM497.618 103.848C498.216 103.848 498.701 103.597 499.074 103.096C499.448 102.584 499.634 101.88 499.634 100.984C499.634 99.2133 499.016 98.328 497.778 98.328C497.202 98.328 496.578 98.648 495.906 99.288V103.128C496.472 103.608 497.042 103.848 497.618 103.848ZM504.896 105.192C504.214 105.192 503.659 104.989 503.232 104.584C502.806 104.168 502.592 103.613 502.592 102.92C502.592 102.077 502.966 101.432 503.712 100.984C504.459 100.525 505.648 100.205 507.28 100.024C507.259 98.872 506.758 98.296 505.776 98.296C505.115 98.296 504.363 98.5627 503.52 99.096L502.912 98.008C503.979 97.3253 505.03 96.984 506.064 96.984C507.014 96.984 507.723 97.272 508.192 97.848C508.662 98.4133 508.896 99.2293 508.896 100.296V105H507.568L507.44 104.104H507.392C506.528 104.829 505.696 105.192 504.896 105.192ZM505.392 103.912C505.723 103.912 506.032 103.837 506.32 103.688C506.608 103.539 506.928 103.304 507.28 102.984V101.048C506.15 101.187 505.344 101.4 504.864 101.688C504.395 101.976 504.16 102.349 504.16 102.808C504.16 103.171 504.272 103.448 504.496 103.64C504.72 103.821 505.019 103.912 505.392 103.912ZM522.527 105.192C521.749 105 520.922 104.611 520.047 104.024C519.162 104.803 518.127 105.192 516.943 105.192C516.293 105.192 515.717 105.064 515.215 104.808C514.725 104.552 514.341 104.205 514.063 103.768C513.797 103.32 513.663 102.819 513.663 102.264C513.663 101.613 513.839 101.059 514.191 100.6C514.554 100.131 515.05 99.6827 515.679 99.256C515.231 98.3813 515.007 97.592 515.007 96.888C515.007 96.4187 515.114 95.9867 515.327 95.592C515.541 95.1973 515.839 94.888 516.223 94.664C516.607 94.44 517.05 94.328 517.551 94.328C518.234 94.328 518.773 94.5253 519.167 94.92C519.562 95.3147 519.759 95.8373 519.759 96.488C519.759 97.1067 519.557 97.64 519.151 98.088C518.757 98.536 518.186 99.0267 517.439 99.56C518.154 100.552 518.991 101.427 519.951 102.184C520.581 101.352 521.045 100.381 521.343 99.272H522.831C522.405 100.712 521.802 101.939 521.023 102.952C521.759 103.421 522.399 103.725 522.943 103.864L522.527 105.192ZM516.383 96.872C516.383 97.3733 516.533 97.9227 516.831 98.52C517.365 98.1787 517.77 97.8587 518.047 97.56C518.335 97.2507 518.479 96.8987 518.479 96.504C518.479 96.1947 518.405 95.944 518.255 95.752C518.106 95.5493 517.877 95.448 517.567 95.448C517.215 95.448 516.927 95.5813 516.703 95.848C516.49 96.1147 516.383 96.456 516.383 96.872ZM515.215 102.168C515.215 102.691 515.397 103.117 515.759 103.448C516.122 103.768 516.581 103.928 517.135 103.928C517.733 103.928 518.341 103.688 518.959 103.208C517.914 102.312 517.045 101.363 516.351 100.36C515.989 100.648 515.706 100.936 515.503 101.224C515.311 101.512 515.215 101.827 515.215 102.168ZM475.886 112.52H477.566L478.558 117.992C478.814 119.485 479.001 120.605 479.118 121.352H479.182C479.385 120.339 479.619 119.219 479.886 117.992L481.246 112.52H482.686L484.046 117.992L484.766 121.352H484.83L485.374 117.992L486.366 112.52H487.934L485.854 123H483.854L482.43 117.144C482.238 116.248 482.078 115.448 481.95 114.744H481.886C481.726 115.587 481.587 116.253 481.47 116.744C481.459 116.851 481.433 116.984 481.39 117.144L479.998 123H478.03L475.886 112.52ZM495.709 118.68C495.709 118.979 495.688 119.256 495.645 119.512H490.477C490.552 120.301 490.819 120.904 491.277 121.32C491.747 121.725 492.312 121.928 492.973 121.928C493.603 121.928 494.227 121.731 494.845 121.336L495.405 122.36C494.573 122.915 493.693 123.192 492.765 123.192C492.051 123.192 491.405 123.027 490.829 122.696C490.253 122.365 489.795 121.891 489.453 121.272C489.123 120.653 488.957 119.928 488.957 119.096C488.957 118.275 489.123 117.555 489.453 116.936C489.795 116.307 490.237 115.827 490.781 115.496C491.325 115.155 491.907 114.984 492.525 114.984C493.539 114.984 494.323 115.32 494.877 115.992C495.432 116.653 495.709 117.549 495.709 118.68ZM494.301 118.392C494.301 117.709 494.152 117.181 493.853 116.808C493.555 116.435 493.123 116.248 492.557 116.248C492.067 116.248 491.629 116.429 491.245 116.792C490.861 117.155 490.616 117.688 490.509 118.392H494.301ZM499.149 123.192C498.583 123.192 498.173 123.021 497.917 122.68C497.661 122.339 497.533 121.837 497.533 121.176V111.656H499.149V121.272C499.149 121.475 499.186 121.624 499.261 121.72C499.335 121.816 499.426 121.864 499.533 121.864C499.629 121.864 499.725 121.853 499.821 121.832L500.029 123.048C499.783 123.144 499.49 123.192 499.149 123.192ZM503.367 123.192C502.802 123.192 502.391 123.021 502.135 122.68C501.879 122.339 501.751 121.837 501.751 121.176V111.656H503.367V121.272C503.367 121.475 503.405 121.624 503.479 121.72C503.554 121.816 503.645 121.864 503.751 121.864C503.847 121.864 503.943 121.853 504.039 121.832L504.247 123.048C504.002 123.144 503.709 123.192 503.367 123.192ZM505.97 115.176H507.298L507.426 116.264H507.474C507.89 115.859 508.301 115.544 508.706 115.32C509.122 115.096 509.575 114.984 510.066 114.984C511.666 114.984 512.466 116.013 512.466 118.072V123H510.85V118.28C510.85 117.608 510.743 117.123 510.53 116.824C510.327 116.525 509.991 116.376 509.522 116.376C509.17 116.376 508.855 116.461 508.578 116.632C508.301 116.792 507.97 117.064 507.586 117.448V123H505.97V115.176ZM521.037 118.68C521.037 118.979 521.016 119.256 520.973 119.512H515.805C515.88 120.301 516.147 120.904 516.605 121.32C517.075 121.725 517.64 121.928 518.301 121.928C518.931 121.928 519.555 121.731 520.173 121.336L520.733 122.36C519.901 122.915 519.021 123.192 518.093 123.192C517.379 123.192 516.733 123.027 516.157 122.696C515.581 122.365 515.123 121.891 514.781 121.272C514.451 120.653 514.285 119.928 514.285 119.096C514.285 118.275 514.451 117.555 514.781 116.936C515.123 116.307 515.565 115.827 516.109 115.496C516.653 115.155 517.235 114.984 517.853 114.984C518.867 114.984 519.651 115.32 520.205 115.992C520.76 116.653 521.037 117.549 521.037 118.68ZM519.629 118.392C519.629 117.709 519.48 117.181 519.181 116.808C518.883 116.435 518.451 116.248 517.885 116.248C517.395 116.248 516.957 116.429 516.573 116.792C516.189 117.155 515.944 117.688 515.837 118.392H519.629ZM524.989 123.192C524.466 123.192 523.943 123.091 523.421 122.888C522.898 122.685 522.439 122.424 522.045 122.104L522.813 121.064C523.186 121.352 523.549 121.576 523.901 121.736C524.253 121.885 524.631 121.96 525.037 121.96C525.485 121.96 525.826 121.864 526.061 121.672C526.295 121.469 526.413 121.213 526.413 120.904C526.413 120.584 526.269 120.333 525.981 120.152C525.693 119.96 525.261 119.757 524.685 119.544C523.991 119.288 523.442 118.995 523.037 118.664C522.631 118.323 522.429 117.859 522.429 117.272C522.429 116.6 522.679 116.051 523.181 115.624C523.682 115.197 524.359 114.984 525.213 114.984C526.13 114.984 526.973 115.288 527.741 115.896L526.989 116.904C526.69 116.68 526.402 116.509 526.125 116.392C525.847 116.275 525.554 116.216 525.245 116.216C524.829 116.216 524.509 116.307 524.285 116.488C524.071 116.669 523.965 116.904 523.965 117.192C523.965 117.405 524.039 117.587 524.189 117.736C524.338 117.875 524.509 117.987 524.701 118.072C524.903 118.157 525.218 118.28 525.645 118.44C526.114 118.611 526.503 118.787 526.813 118.968C527.133 119.139 527.399 119.373 527.613 119.672C527.837 119.971 527.949 120.349 527.949 120.808C527.949 121.256 527.831 121.661 527.597 122.024C527.373 122.376 527.037 122.659 526.589 122.872C526.141 123.085 525.607 123.192 524.989 123.192ZM531.801 123.192C531.278 123.192 530.756 123.091 530.233 122.888C529.71 122.685 529.252 122.424 528.857 122.104L529.625 121.064C529.998 121.352 530.361 121.576 530.713 121.736C531.065 121.885 531.444 121.96 531.849 121.96C532.297 121.96 532.638 121.864 532.873 121.672C533.108 121.469 533.225 121.213 533.225 120.904C533.225 120.584 533.081 120.333 532.793 120.152C532.505 119.96 532.073 119.757 531.497 119.544C530.804 119.288 530.254 118.995 529.849 118.664C529.444 118.323 529.241 117.859 529.241 117.272C529.241 116.6 529.492 116.051 529.993 115.624C530.494 115.197 531.172 114.984 532.025 114.984C532.942 114.984 533.785 115.288 534.553 115.896L533.801 116.904C533.502 116.68 533.214 116.509 532.937 116.392C532.66 116.275 532.366 116.216 532.057 116.216C531.641 116.216 531.321 116.307 531.097 116.488C530.884 116.669 530.777 116.904 530.777 117.192C530.777 117.405 530.852 117.587 531.001 117.736C531.15 117.875 531.321 117.987 531.513 118.072C531.716 118.157 532.03 118.28 532.457 118.44C532.926 118.611 533.316 118.787 533.625 118.968C533.945 119.139 534.212 119.373 534.425 119.672C534.649 119.971 534.761 120.349 534.761 120.808C534.761 121.256 534.644 121.661 534.409 122.024C534.185 122.376 533.849 122.659 533.401 122.872C532.953 123.085 532.42 123.192 531.801 123.192Z" fill="#0F5B80"/>
<path d="M527 40.6666C527 58.7236 505.68 70.4358 502.417 72.1226C502.145 72.2631 501.855 72.2631 501.583 72.1226C498.32 70.4358 477 58.7236 477 40.6666C477 25.6666 489.113 15.6666 502 15.6666C515.333 15.6666 527 25.6666 527 40.6666Z" fill="#BF9C40"/>
<path d="M529 40.9118C529 60.4138 505.822 73.0406 502.416 74.7908C502.144 74.9303 501.856 74.9303 501.584 74.7908C498.178 73.0406 475 60.4138 475 40.9118C475 24.7647 488.082 14 502 14C516.4 14 529 24.7647 529 40.9118Z" stroke="#BF9C40"/>
<path d="M492 46.0166C493.365 46.0166 495.272 45.6113 496.468 46.4874L498.841 48.2259C499.722 48.8718 500.677 48.6591 501.66 48.5046C502.956 48.3012 504.115 49.4062 504.115 50.8447C504.115 51.2379 501.325 52.2371 500.921 52.4271C500.129 52.8003 499.219 52.7084 498.502 52.1829L495.825 50.2218" stroke="#FFFDFA" stroke-width="2" stroke-linecap="round" stroke-linejoin="round"/>
<path d="M504.115 49.9615L509.622 47.4166C510.609 47.0726 511.698 47.3412 512.434 48.1105L513.337 49.0545C513.659 49.3918 513.584 49.9583 513.185 50.19L502.611 56.3308C501.974 56.7007 501.223 56.791 500.522 56.5817L492 54.0362" stroke="#FFFDFA" stroke-width="2" stroke-linecap="round" stroke-linejoin="round"/>
<path d="M502.771 43.2307C502.771 43.2307 505.598 40.2172 505.598 36.4999C505.598 32.7826 502.771 29.7692 502.771 29.7692C502.771 29.7692 499.944 32.7826 499.944 36.4999C499.944 40.2172 502.771 43.2307 502.771 43.2307ZM502.771 43.2307C502.771 43.2307 506.9 43.1387 509.502 40.4835C512.104 37.8282 512.194 33.6153 512.194 33.6153C512.194 33.6153 510.485 33.6534 508.574 34.3876M502.771 43.2307C502.771 43.2307 498.643 43.1387 496.04 40.4835C493.438 37.8282 493.348 33.6153 493.348 33.6153C493.348 33.6153 495.057 33.6534 496.969 34.3876" stroke="#FFFDFA" stroke-width="2" stroke-linecap="round" stroke-linejoin="round"/>
<path d="M309.25 45.8334C309.25 68.5995 282.138 83.2971 278.42 85.2051C278.148 85.3449 277.852 85.3449 277.58 85.2051C273.862 83.2971 246.75 68.5995 246.75 45.8334C246.75 27.0834 261.892 14.5834 278 14.5834C294.667 14.5834 309.25 27.0834 309.25 45.8334Z" fill="#0F5B80"/>
<path d="M311.5 45.75C311.5 70.3998 282.07 86.2913 278.174 88.2869C277.902 88.4264 277.598 88.4264 277.326 88.2869C273.43 86.2913 244 70.3998 244 45.75C244 25.5 260.353 12 277.75 12C295.75 12 311.5 25.5 311.5 45.75Z" stroke="#0F5B80"/>
<path d="M276.226 35.5468L284.115 52.3846C280.365 52.3846 279.224 50.4066 275.311 48.4285C272.18 46.8461 267.811 47.1099 266.506 47.4395L272.223 43.3983C272.531 43.1803 272.685 43.0712 272.735 42.9052C272.784 42.7392 272.714 42.5637 272.575 42.2126L271.402 39.2599C271.201 38.7535 271.1 38.5003 270.899 38.336C270.697 38.1718 270.429 38.1242 269.892 38.029L263.663 36.9237C262.478 36.7136 261.615 35.6838 261.615 34.4807C261.615 32.9692 262.955 31.8089 264.451 32.0249L273.176 33.285C274.221 33.4359 274.743 33.5114 275.149 33.8121C275.554 34.1129 275.778 34.5909 276.226 35.5468L276.226 35.5468Z" stroke="white" stroke-width="2" stroke-linecap="round" stroke-linejoin="round"/>
<ellipse cx="291.038" cy="41.9998" rx="5.19226" ry="5.19231" stroke="white" stroke-width="2" stroke-linecap="round" stroke-linejoin="round"/>
<path d="M261.615 55.9922C263.442 49.8798 271.599 52.6852 278.057 55.9922C284.516 59.2992 291.038 61.4034 294.5 55.9922" stroke="white" stroke-width="2" stroke-linecap="round" stroke-linejoin="round"/>
<path d="M413 70.6666C413 88.7236 391.68 100.436 388.417 102.123C388.145 102.263 387.855 102.263 387.583 102.123C384.32 100.436 363 88.7236 363 70.6666C363 55.6666 375.113 45.6666 388 45.6666C401.333 45.6666 413 55.6666 413 70.6666Z" fill="#93184F"/>
<path d="M415 70.9118C415 90.4138 391.822 103.041 388.416 104.791C388.144 104.93 387.856 104.93 387.584 104.791C384.178 103.041 361 90.4138 361 70.9118C361 54.7647 374.082 44 388 44C402.4 44 415 54.7647 415 70.9118Z" stroke="#93184F"/>
<path d="M385.385 68.6612C382.07 66.8655 378.573 63.7583 375.692 58.6155M387.622 61.9649C384.804 60.1157 381.366 60.8885 379.942 63.691C378.519 66.4935 379.649 70.2644 382.467 72.1136C385.018 73.7877 390.601 75.5187 395.077 70.7239C390.882 68.9376 390.439 63.814 387.622 61.9649Z" stroke="white" stroke-width="2" stroke-linecap="round" stroke-linejoin="round"/>
<path d="M377.077 71.0769C376.192 71.7289 375.692 72.469 375.692 73.2535C375.692 75.8749 381.272 78 388.154 78C395.036 78 400.615 75.8749 400.615 73.2535C400.615 72.469 400.116 71.7289 399.231 71.0769" stroke="white" stroke-width="2" stroke-linecap="round"/>
<path d="M400.615 73.8462C400.615 78.7984 397.145 83.1434 393.409 85.5908C392.64 86.094 391.727 86.3077 390.808 86.3077H385.5C384.581 86.3077 383.667 86.094 382.899 85.5908C379.163 83.1434 375.692 78.7984 375.692 73.8462" stroke="white" stroke-width="2" stroke-linecap="round"/>
<path d="M70 38.6666C70 56.7236 48.6798 68.4358 45.4168 70.1226C45.145 70.2631 44.8551 70.2631 44.5832 70.1226C41.3202 68.4358 20 56.7236 20 38.6666C20 23.6666 32.1134 13.6666 45 13.6666C58.3333 13.6666 70 23.6666 70 38.6666Z" fill="#C19C41"/>
<path d="M72 38.9118C72 58.4138 48.8219 71.0406 45.4159 72.7908C45.1445 72.9303 44.8555 72.9303 44.5841 72.7908C41.1781 71.0406 18 58.4138 18 38.9118C18 22.7647 31.0824 12 45 12C59.4 12 72 22.7647 72 38.9118Z" stroke="#C19C41"/>
<g clip-path="url(#clip0_1_466)">
<path d="M56.5805 47.7693C57.5892 47.7693 58.3914 47.1346 59.1118 46.247C60.5865 44.4301 58.1653 42.9781 57.2419 42.2671C56.3031 41.5442 55.255 41.1347 54.1923 41.0386M52.8462 38.3462C54.7048 38.3462 56.2116 36.8395 56.2116 34.9809C56.2116 33.1222 54.7048 31.6155 52.8462 31.6155" stroke="white" stroke-width="2" stroke-linecap="round"/>
<path d="M32.9579 47.7693C31.9492 47.7693 31.1469 47.1346 30.4266 46.247C28.9519 44.4301 31.3731 42.9781 32.2965 42.2671C33.2352 41.5442 34.2834 41.1347 35.346 41.0386M36.0191 38.3462C34.1605 38.3462 32.6537 36.8395 32.6537 34.9809C32.6537 33.1222 34.1605 31.6155 36.0191 31.6155" stroke="white" stroke-width="2" stroke-linecap="round"/>
<path d="M39.4972 43.8806C38.1218 44.7311 34.5154 46.4678 36.7119 48.6409C37.7849 49.7025 38.9799 50.4617 40.4824 50.4617H49.0557C50.5581 50.4617 51.7532 49.7025 52.8262 48.6409C55.0227 46.4678 51.4163 44.7311 50.0408 43.8806C46.8154 41.8862 42.7227 41.8862 39.4972 43.8806Z" stroke="white" stroke-width="2" stroke-linecap="round" stroke-linejoin="round"/>
<path d="M49.4807 33.6348C49.4807 36.2369 47.3713 38.3463 44.7692 38.3463C42.167 38.3463 40.0576 36.2369 40.0576 33.6348C40.0576 31.0326 42.167 28.9232 44.7692 28.9232C47.3713 28.9232 49.4807 31.0326 49.4807 33.6348Z" stroke="white" stroke-width="2"/>
</g>
<path d="M181 70.6666C181 88.7236 159.68 100.436 156.417 102.123C156.145 102.263 155.855 102.263 155.583 102.123C152.32 100.436 131 88.7236 131 70.6666C131 55.6666 143.113 45.6666 156 45.6666C169.333 45.6666 181 55.6666 181 70.6666Z" fill="#93184F"/>
<path d="M183 70.9118C183 90.4138 159.822 103.041 156.416 104.791C156.144 104.93 155.856 104.93 155.584 104.791C152.178 103.041 129 90.4138 129 70.9118C129 54.7647 142.082 44 156 44C170.4 44 183 54.7647 183 70.9118Z" stroke="#93184F"/>
<path d="M169.231 71.6923C169.231 79.1269 163.204 85.1538 155.769 85.1538C148.335 85.1538 142.308 79.1269 142.308 71.6923C142.308 64.2576 148.335 58.2307 155.769 58.2307C163.204 58.2307 169.231 64.2576 169.231 71.6923Z" stroke="white" stroke-width="2"/>
<path d="M142.308 72.9719C150.58 73.7933 157.866 66.4621 157.049 58.2307" stroke="white" stroke-width="2"/>
<path d="M154.491 85.1541C153.67 76.8818 161.001 69.5956 169.232 70.4129" stroke="white" stroke-width="2"/>
<path d="M162.5 82.4614C162.5 72.7964 154.665 64.9614 145 64.9614" stroke="white" stroke-width="2" stroke-linecap="round"/>
<path d="M132.524 135.192C131.81 135.192 131.127 135.059 130.476 134.792C129.836 134.515 129.276 134.131 128.796 133.64L129.756 132.52C130.14 132.904 130.578 133.208 131.068 133.432C131.559 133.656 132.055 133.768 132.556 133.768C133.175 133.768 133.66 133.635 134.012 133.368C134.364 133.091 134.54 132.723 134.54 132.264C134.54 131.965 134.471 131.72 134.332 131.528C134.204 131.325 134.028 131.16 133.804 131.032C133.591 130.904 133.276 130.755 132.86 130.584L131.404 129.944C129.986 129.357 129.276 128.445 129.276 127.208C129.276 126.664 129.42 126.173 129.708 125.736C130.007 125.299 130.418 124.957 130.94 124.712C131.463 124.456 132.05 124.328 132.7 124.328C133.308 124.328 133.89 124.445 134.444 124.68C134.999 124.915 135.474 125.235 135.868 125.64L135.02 126.68C134.316 126.061 133.543 125.752 132.7 125.752C132.156 125.752 131.724 125.875 131.404 126.12C131.084 126.365 130.924 126.696 130.924 127.112C130.924 127.389 130.999 127.624 131.148 127.816C131.308 128.008 131.495 128.163 131.708 128.28C131.932 128.397 132.236 128.536 132.62 128.696L134.076 129.32C134.759 129.597 135.282 129.96 135.644 130.408C136.018 130.845 136.204 131.421 136.204 132.136C136.204 132.701 136.055 133.219 135.756 133.688C135.458 134.147 135.031 134.515 134.476 134.792C133.922 135.059 133.271 135.192 132.524 135.192ZM138.029 127.176H139.357L139.485 128.04H139.533C140.376 127.336 141.181 126.984 141.949 126.984C142.93 126.984 143.688 127.341 144.221 128.056C144.765 128.771 145.037 129.741 145.037 130.968C145.037 131.832 144.882 132.584 144.573 133.224C144.264 133.853 143.853 134.339 143.341 134.68C142.829 135.021 142.274 135.192 141.677 135.192C140.994 135.192 140.301 134.899 139.597 134.312L139.645 135.64V138.184H138.029V127.176ZM141.357 133.848C141.954 133.848 142.44 133.597 142.813 133.096C143.186 132.584 143.373 131.88 143.373 130.984C143.373 129.213 142.754 128.328 141.517 128.328C140.941 128.328 140.317 128.648 139.645 129.288V133.128C140.21 133.608 140.781 133.848 141.357 133.848ZM150.118 135.192C149.467 135.192 148.859 135.027 148.294 134.696C147.729 134.365 147.275 133.891 146.934 133.272C146.603 132.653 146.438 131.928 146.438 131.096C146.438 130.253 146.603 129.523 146.934 128.904C147.275 128.285 147.723 127.811 148.278 127.48C148.843 127.149 149.457 126.984 150.118 126.984C150.779 126.984 151.387 127.149 151.942 127.48C152.507 127.811 152.955 128.285 153.286 128.904C153.627 129.523 153.798 130.253 153.798 131.096C153.798 131.928 153.627 132.653 153.286 133.272C152.955 133.891 152.507 134.365 151.942 134.696C151.377 135.027 150.769 135.192 150.118 135.192ZM150.118 133.864C150.737 133.864 151.227 133.613 151.59 133.112C151.953 132.6 152.134 131.928 152.134 131.096C152.134 130.264 151.947 129.592 151.574 129.08C151.211 128.568 150.726 128.312 150.118 128.312C149.51 128.312 149.019 128.568 148.646 129.08C148.283 129.592 148.102 130.264 148.102 131.096C148.102 131.928 148.283 132.6 148.646 133.112C149.009 133.613 149.499 133.864 150.118 133.864ZM155.716 127.176H157.044L157.172 128.584H157.22C157.498 128.083 157.828 127.693 158.212 127.416C158.607 127.128 159.018 126.984 159.444 126.984C159.796 126.984 160.084 127.037 160.308 127.144L160.02 128.552C159.732 128.467 159.471 128.424 159.236 128.424C158.884 128.424 158.538 128.563 158.196 128.84C157.855 129.107 157.567 129.533 157.332 130.12V135H155.716V127.176ZM164.137 135.192C162.559 135.192 161.769 134.28 161.769 132.456V128.472H160.633V127.256L161.849 127.176L162.041 125.016H163.385V127.176H165.433V128.472H163.385V132.456C163.385 132.936 163.476 133.299 163.657 133.544C163.839 133.779 164.132 133.896 164.537 133.896C164.783 133.896 165.065 133.832 165.385 133.704L165.673 134.904C165.097 135.096 164.585 135.192 164.137 135.192ZM169.173 135.192C168.65 135.192 168.127 135.091 167.605 134.888C167.082 134.685 166.623 134.424 166.229 134.104L166.997 133.064C167.37 133.352 167.733 133.576 168.085 133.736C168.437 133.885 168.815 133.96 169.221 133.96C169.669 133.96 170.01 133.864 170.245 133.672C170.479 133.469 170.597 133.213 170.597 132.904C170.597 132.584 170.453 132.333 170.165 132.152C169.877 131.96 169.445 131.757 168.869 131.544C168.175 131.288 167.626 130.995 167.221 130.664C166.815 130.323 166.613 129.859 166.613 129.272C166.613 128.6 166.863 128.051 167.365 127.624C167.866 127.197 168.543 126.984 169.397 126.984C170.314 126.984 171.157 127.288 171.925 127.896L171.173 128.904C170.874 128.68 170.586 128.509 170.309 128.392C170.031 128.275 169.738 128.216 169.429 128.216C169.013 128.216 168.693 128.307 168.469 128.488C168.255 128.669 168.149 128.904 168.149 129.192C168.149 129.405 168.223 129.587 168.373 129.736C168.522 129.875 168.693 129.987 168.885 130.072C169.087 130.157 169.402 130.28 169.829 130.44C170.298 130.611 170.687 130.787 170.997 130.968C171.317 131.139 171.583 131.373 171.797 131.672C172.021 131.971 172.133 132.349 172.133 132.808C172.133 133.256 172.015 133.661 171.781 134.024C171.557 134.376 171.221 134.659 170.773 134.872C170.325 135.085 169.791 135.192 169.173 135.192ZM185.172 135.192C184.393 135 183.567 134.611 182.692 134.024C181.807 134.803 180.772 135.192 179.588 135.192C178.937 135.192 178.361 135.064 177.86 134.808C177.369 134.552 176.985 134.205 176.708 133.768C176.441 133.32 176.308 132.819 176.308 132.264C176.308 131.613 176.484 131.059 176.836 130.6C177.199 130.131 177.695 129.683 178.324 129.256C177.876 128.381 177.652 127.592 177.652 126.888C177.652 126.419 177.759 125.987 177.972 125.592C178.185 125.197 178.484 124.888 178.868 124.664C179.252 124.44 179.695 124.328 180.196 124.328C180.879 124.328 181.417 124.525 181.812 124.92C182.207 125.315 182.404 125.837 182.404 126.488C182.404 127.107 182.201 127.64 181.796 128.088C181.401 128.536 180.831 129.027 180.084 129.56C180.799 130.552 181.636 131.427 182.596 132.184C183.225 131.352 183.689 130.381 183.988 129.272H185.476C185.049 130.712 184.447 131.939 183.668 132.952C184.404 133.421 185.044 133.725 185.588 133.864L185.172 135.192ZM179.028 126.872C179.028 127.373 179.177 127.923 179.476 128.52C180.009 128.179 180.415 127.859 180.692 127.56C180.98 127.251 181.124 126.899 181.124 126.504C181.124 126.195 181.049 125.944 180.9 125.752C180.751 125.549 180.521 125.448 180.212 125.448C179.86 125.448 179.572 125.581 179.348 125.848C179.135 126.115 179.028 126.456 179.028 126.872ZM177.86 132.168C177.86 132.691 178.041 133.117 178.404 133.448C178.767 133.768 179.225 133.928 179.78 133.928C180.377 133.928 180.985 133.688 181.604 133.208C180.559 132.312 179.689 131.363 178.996 130.36C178.633 130.648 178.351 130.936 178.148 131.224C177.956 131.512 177.86 131.827 177.86 132.168ZM132.185 150.008H128.537L127.641 153H125.977L129.449 142.52H131.337L134.809 153H133.081L132.185 150.008ZM131.801 148.712L131.385 147.304C131.235 146.803 131.065 146.221 130.873 145.56C130.691 144.899 130.558 144.419 130.473 144.12C130.462 144.035 130.435 143.933 130.393 143.816H130.329C129.987 145.128 129.662 146.291 129.353 147.304L128.937 148.712H131.801ZM139.221 153.192C138.517 153.192 137.882 153.032 137.317 152.712C136.751 152.381 136.303 151.907 135.973 151.288C135.653 150.669 135.493 149.939 135.493 149.096C135.493 148.253 135.669 147.523 136.021 146.904C136.373 146.285 136.842 145.811 137.429 145.48C138.015 145.149 138.655 144.984 139.349 144.984C140.202 144.984 140.965 145.283 141.637 145.88L140.837 146.936C140.602 146.733 140.373 146.579 140.149 146.472C139.925 146.365 139.685 146.312 139.429 146.312C138.757 146.312 138.207 146.568 137.781 147.08C137.365 147.592 137.157 148.264 137.157 149.096C137.157 149.928 137.359 150.6 137.765 151.112C138.181 151.613 138.719 151.864 139.381 151.864C139.967 151.864 140.538 151.624 141.093 151.144L141.765 152.216C141.413 152.536 141.013 152.781 140.565 152.952C140.127 153.112 139.679 153.192 139.221 153.192ZM145.848 153.192C144.27 153.192 143.48 152.28 143.48 150.456V146.472H142.344V145.256L143.56 145.176L143.752 143.016H145.096V145.176H147.144V146.472H145.096V150.456C145.096 150.936 145.187 151.299 145.368 151.544C145.55 151.779 145.843 151.896 146.248 151.896C146.494 151.896 146.776 151.832 147.096 151.704L147.384 152.904C146.808 153.096 146.296 153.192 145.848 153.192ZM148.834 145.176H150.45V153H148.834V145.176ZM149.65 143.704C149.362 143.704 149.122 143.613 148.93 143.432C148.748 143.251 148.658 143.016 148.658 142.728C148.658 142.451 148.748 142.221 148.93 142.04C149.122 141.859 149.362 141.768 149.65 141.768C149.938 141.768 150.172 141.859 150.354 142.04C150.546 142.221 150.642 142.451 150.642 142.728C150.642 143.016 150.546 143.251 150.354 143.432C150.172 143.613 149.938 143.704 149.65 143.704ZM151.872 145.176H153.52L154.864 149.4L155.552 151.736H155.616L156.304 149.4L157.648 145.176H159.216L156.512 153H154.64L151.872 145.176ZM160.646 145.176H162.262V153H160.646V145.176ZM161.462 143.704C161.174 143.704 160.934 143.613 160.742 143.432C160.561 143.251 160.47 143.016 160.47 142.728C160.47 142.451 160.561 142.221 160.742 142.04C160.934 141.859 161.174 141.768 161.462 141.768C161.75 141.768 161.985 141.859 162.166 142.04C162.358 142.221 162.454 142.451 162.454 142.728C162.454 143.016 162.358 143.251 162.166 143.432C161.985 143.613 161.75 143.704 161.462 143.704ZM167.348 153.192C165.77 153.192 164.98 152.28 164.98 150.456V146.472H163.844V145.256L165.06 145.176L165.252 143.016H166.596V145.176H168.644V146.472H166.596V150.456C166.596 150.936 166.687 151.299 166.868 151.544C167.05 151.779 167.343 151.896 167.748 151.896C167.994 151.896 168.276 151.832 168.596 151.704L168.884 152.904C168.308 153.096 167.796 153.192 167.348 153.192ZM170.334 145.176H171.95V153H170.334V145.176ZM171.15 143.704C170.862 143.704 170.622 143.613 170.43 143.432C170.248 143.251 170.158 143.016 170.158 142.728C170.158 142.451 170.248 142.221 170.43 142.04C170.622 141.859 170.862 141.768 171.15 141.768C171.438 141.768 171.672 141.859 171.854 142.04C172.046 142.221 172.142 142.451 172.142 142.728C172.142 143.016 172.046 143.251 171.854 143.432C171.672 143.613 171.438 143.704 171.15 143.704ZM180.62 148.68C180.62 148.979 180.598 149.256 180.556 149.512H175.388C175.462 150.301 175.729 150.904 176.188 151.32C176.657 151.725 177.222 151.928 177.884 151.928C178.513 151.928 179.137 151.731 179.756 151.336L180.316 152.36C179.484 152.915 178.604 153.192 177.676 153.192C176.961 153.192 176.316 153.027 175.74 152.696C175.164 152.365 174.705 151.891 174.364 151.272C174.033 150.653 173.868 149.928 173.868 149.096C173.868 148.275 174.033 147.555 174.364 146.936C174.705 146.307 175.148 145.827 175.692 145.496C176.236 145.155 176.817 144.984 177.436 144.984C178.449 144.984 179.233 145.32 179.788 145.992C180.342 146.653 180.62 147.549 180.62 148.68ZM179.212 148.392C179.212 147.709 179.062 147.181 178.764 146.808C178.465 146.435 178.033 146.248 177.468 146.248C176.977 146.248 176.54 146.429 176.156 146.792C175.772 147.155 175.526 147.688 175.42 148.392H179.212ZM184.571 153.192C184.048 153.192 183.526 153.091 183.003 152.888C182.48 152.685 182.022 152.424 181.627 152.104L182.395 151.064C182.768 151.352 183.131 151.576 183.483 151.736C183.835 151.885 184.214 151.96 184.619 151.96C185.067 151.96 185.408 151.864 185.643 151.672C185.878 151.469 185.995 151.213 185.995 150.904C185.995 150.584 185.851 150.333 185.563 150.152C185.275 149.96 184.843 149.757 184.267 149.544C183.574 149.288 183.024 148.995 182.619 148.664C182.214 148.323 182.011 147.859 182.011 147.272C182.011 146.6 182.262 146.051 182.763 145.624C183.264 145.197 183.942 144.984 184.795 144.984C185.712 144.984 186.555 145.288 187.323 145.896L186.571 146.904C186.272 146.68 185.984 146.509 185.707 146.392C185.43 146.275 185.136 146.216 184.827 146.216C184.411 146.216 184.091 146.307 183.867 146.488C183.654 146.669 183.547 146.904 183.547 147.192C183.547 147.405 183.622 147.587 183.771 147.736C183.92 147.875 184.091 147.987 184.283 148.072C184.486 148.157 184.8 148.28 185.227 148.44C185.696 148.611 186.086 148.787 186.395 148.968C186.715 149.139 186.982 149.373 187.195 149.672C187.419 149.971 187.531 150.349 187.531 150.808C187.531 151.256 187.414 151.661 187.179 152.024C186.955 152.376 186.619 152.659 186.171 152.872C185.723 153.085 185.19 153.192 184.571 153.192Z" fill="#105C80"/>
<path d="M17.6338 93.52H23.8258V94.896H19.2658V97.84H23.1218V99.216H19.2658V102.624H23.9858V104H17.6338V93.52ZM24.8248 96.176H26.4728L27.8168 100.4L28.5048 102.736H28.5688L29.2568 100.4L30.6008 96.176H32.1688L29.4648 104H27.5928L24.8248 96.176ZM39.7291 99.68C39.7291 99.9787 39.7077 100.256 39.6651 100.512H34.4971C34.5717 101.301 34.8384 101.904 35.2971 102.32C35.7664 102.725 36.3317 102.928 36.9931 102.928C37.6224 102.928 38.2464 102.731 38.8651 102.336L39.4251 103.36C38.5931 103.915 37.7131 104.192 36.7851 104.192C36.0704 104.192 35.4251 104.027 34.8491 103.696C34.2731 103.365 33.8144 102.891 33.4731 102.272C33.1424 101.653 32.9771 100.928 32.9771 100.096C32.9771 99.2747 33.1424 98.5547 33.4731 97.936C33.8144 97.3067 34.2571 96.8267 34.8011 96.496C35.3451 96.1547 35.9264 95.984 36.5451 95.984C37.5584 95.984 38.3424 96.32 38.8971 96.992C39.4517 97.6533 39.7291 98.5493 39.7291 99.68ZM38.3211 99.392C38.3211 98.7093 38.1717 98.1813 37.8731 97.808C37.5744 97.4347 37.1424 97.248 36.5771 97.248C36.0864 97.248 35.6491 97.4293 35.2651 97.792C34.8811 98.1547 34.6357 98.688 34.5291 99.392H38.3211ZM41.5523 96.176H42.8803L43.0083 97.264H43.0563C43.4723 96.8587 43.883 96.544 44.2883 96.32C44.7043 96.096 45.1576 95.984 45.6483 95.984C47.2483 95.984 48.0483 97.0133 48.0483 99.072V104H46.4323V99.28C46.4323 98.608 46.3256 98.1227 46.1123 97.824C45.9096 97.5253 45.5736 97.376 45.1043 97.376C44.7523 97.376 44.4376 97.4613 44.1603 97.632C43.883 97.792 43.5523 98.064 43.1683 98.448V104H41.5523V96.176ZM53.0357 104.192C51.457 104.192 50.6677 103.28 50.6677 101.456V97.472H49.5317V96.256L50.7477 96.176L50.9397 94.016H52.2837V96.176H54.3317V97.472H52.2837V101.456C52.2837 101.936 52.3744 102.299 52.5557 102.544C52.737 102.779 53.0304 102.896 53.4357 102.896C53.681 102.896 53.9637 102.832 54.2837 102.704L54.5717 103.904C53.9957 104.096 53.4837 104.192 53.0357 104.192ZM58.0709 104.192C57.5483 104.192 57.0256 104.091 56.5029 103.888C55.9803 103.685 55.5216 103.424 55.1269 103.104L55.8949 102.064C56.2683 102.352 56.6309 102.576 56.9829 102.736C57.3349 102.885 57.7136 102.96 58.1189 102.96C58.5669 102.96 58.9083 102.864 59.1429 102.672C59.3776 102.469 59.4949 102.213 59.4949 101.904C59.4949 101.584 59.3509 101.333 59.0629 101.152C58.7749 100.96 58.3429 100.757 57.7669 100.544C57.0736 100.288 56.5243 99.9947 56.1189 99.664C55.7136 99.3227 55.5109 98.8587 55.5109 98.272C55.5109 97.6 55.7616 97.0507 56.2629 96.624C56.7643 96.1973 57.4416 95.984 58.2949 95.984C59.2123 95.984 60.0549 96.288 60.8229 96.896L60.0709 97.904C59.7723 97.68 59.4843 97.5093 59.2069 97.392C58.9296 97.2747 58.6363 97.216 58.3269 97.216C57.9109 97.216 57.5909 97.3067 57.3669 97.488C57.1536 97.6693 57.0469 97.904 57.0469 98.192C57.0469 98.4053 57.1216 98.5867 57.2709 98.736C57.4203 98.8747 57.5909 98.9867 57.7829 99.072C57.9856 99.1573 58.3003 99.28 58.7269 99.44C59.1963 99.6107 59.5856 99.7867 59.8949 99.968C60.2149 100.139 60.4816 100.373 60.6949 100.672C60.9189 100.971 61.0309 101.349 61.0309 101.808C61.0309 102.256 60.9136 102.661 60.6789 103.024C60.4549 103.376 60.1189 103.659 59.6709 103.872C59.2229 104.085 58.6896 104.192 58.0709 104.192ZM74.0706 104.192C73.2919 104 72.4652 103.611 71.5906 103.024C70.7052 103.803 69.6706 104.192 68.4866 104.192C67.8359 104.192 67.2599 104.064 66.7586 103.808C66.2679 103.552 65.8839 103.205 65.6066 102.768C65.3399 102.32 65.2066 101.819 65.2066 101.264C65.2066 100.613 65.3826 100.059 65.7346 99.6C66.0972 99.1307 66.5932 98.6827 67.2226 98.256C66.7746 97.3813 66.5506 96.592 66.5506 95.888C66.5506 95.4187 66.6572 94.9867 66.8706 94.592C67.0839 94.1973 67.3826 93.888 67.7666 93.664C68.1506 93.44 68.5932 93.328 69.0946 93.328C69.7772 93.328 70.3159 93.5253 70.7106 93.92C71.1052 94.3147 71.3026 94.8373 71.3026 95.488C71.3026 96.1067 71.0999 96.64 70.6946 97.088C70.2999 97.536 69.7292 98.0267 68.9826 98.56C69.6972 99.552 70.5346 100.427 71.4946 101.184C72.1239 100.352 72.5879 99.3813 72.8866 98.272H74.3746C73.9479 99.712 73.3452 100.939 72.5666 101.952C73.3026 102.421 73.9426 102.725 74.4866 102.864L74.0706 104.192ZM67.9266 95.872C67.9266 96.3733 68.0759 96.9227 68.3746 97.52C68.9079 97.1787 69.3132 96.8587 69.5906 96.56C69.8786 96.2507 70.0226 95.8987 70.0226 95.504C70.0226 95.1947 69.9479 94.944 69.7986 94.752C69.6492 94.5493 69.4199 94.448 69.1106 94.448C68.7586 94.448 68.4706 94.5813 68.2466 94.848C68.0332 95.1147 67.9266 95.456 67.9266 95.872ZM66.7586 101.168C66.7586 101.691 66.9399 102.117 67.3026 102.448C67.6652 102.768 68.1239 102.928 68.6786 102.928C69.2759 102.928 69.8839 102.688 70.5026 102.208C69.4572 101.312 68.5879 100.363 67.8946 99.36C67.5319 99.648 67.2492 99.936 67.0466 100.224C66.8546 100.512 66.7586 100.827 66.7586 101.168ZM9.01069 122.192C8.12535 122.192 7.33069 121.979 6.62669 121.552C5.92269 121.125 5.36802 120.507 4.96269 119.696C4.55735 118.875 4.35469 117.904 4.35469 116.784C4.35469 115.675 4.56269 114.709 4.97869 113.888C5.39469 113.067 5.96002 112.437 6.67469 112C7.40002 111.552 8.20535 111.328 9.09069 111.328C9.69869 111.328 10.2534 111.451 10.7547 111.696C11.2667 111.941 11.6987 112.256 12.0507 112.64L11.1707 113.696C10.5627 113.067 9.88002 112.752 9.12269 112.752C8.51469 112.752 7.97602 112.917 7.50669 113.248C7.04802 113.568 6.68535 114.027 6.41869 114.624C6.16269 115.221 6.03469 115.925 6.03469 116.736C6.03469 117.984 6.30669 118.971 6.85069 119.696C7.40535 120.411 8.14669 120.768 9.07469 120.768C9.94935 120.768 10.7227 120.395 11.3947 119.648L12.2747 120.672C11.4107 121.685 10.3227 122.192 9.01069 122.192ZM17.1102 122.192C16.4595 122.192 15.8515 122.027 15.2862 121.696C14.7209 121.365 14.2675 120.891 13.9262 120.272C13.5955 119.653 13.4302 118.928 13.4302 118.096C13.4302 117.253 13.5955 116.523 13.9262 115.904C14.2675 115.285 14.7155 114.811 15.2702 114.48C15.8355 114.149 16.4489 113.984 17.1102 113.984C17.7715 113.984 18.3795 114.149 18.9342 114.48C19.4995 114.811 19.9475 115.285 20.2782 115.904C20.6195 116.523 20.7902 117.253 20.7902 118.096C20.7902 118.928 20.6195 119.653 20.2782 120.272C19.9475 120.891 19.4995 121.365 18.9342 121.696C18.3689 122.027 17.7609 122.192 17.1102 122.192ZM17.1102 120.864C17.7289 120.864 18.2195 120.613 18.5822 120.112C18.9449 119.6 19.1262 118.928 19.1262 118.096C19.1262 117.264 18.9395 116.592 18.5662 116.08C18.2035 115.568 17.7182 115.312 17.1102 115.312C16.5022 115.312 16.0115 115.568 15.6382 116.08C15.2755 116.592 15.0942 117.264 15.0942 118.096C15.0942 118.928 15.2755 119.6 15.6382 120.112C16.0009 120.613 16.4915 120.864 17.1102 120.864ZM22.7086 114.176H24.0366L24.1646 115.264H24.2126C24.6286 114.859 25.0392 114.544 25.4446 114.32C25.8606 114.096 26.3139 113.984 26.8046 113.984C28.4046 113.984 29.2046 115.013 29.2046 117.072V122H27.5886V117.28C27.5886 116.608 27.4819 116.123 27.2686 115.824C27.0659 115.525 26.7299 115.376 26.2606 115.376C25.9086 115.376 25.5939 115.461 25.3166 115.632C25.0392 115.792 24.7086 116.064 24.3246 116.448V122H22.7086V114.176ZM34.4959 111.76C33.8026 111.76 33.4559 112.229 33.4559 113.168V114.176H35.0399V115.472H33.4559V122H31.8399V115.472H30.7839V114.256L31.8399 114.176V113.184C31.8399 112.341 32.0426 111.68 32.4479 111.2C32.8533 110.709 33.4719 110.464 34.3039 110.464C34.7733 110.464 35.2319 110.555 35.6799 110.736L35.3599 111.952C35.0719 111.824 34.7839 111.76 34.4959 111.76ZM42.5103 117.68C42.5103 117.979 42.489 118.256 42.4463 118.512H37.2783C37.353 119.301 37.6196 119.904 38.0783 120.32C38.5476 120.725 39.113 120.928 39.7743 120.928C40.4036 120.928 41.0276 120.731 41.6463 120.336L42.2063 121.36C41.3743 121.915 40.4943 122.192 39.5663 122.192C38.8516 122.192 38.2063 122.027 37.6303 121.696C37.0543 121.365 36.5956 120.891 36.2543 120.272C35.9236 119.653 35.7583 118.928 35.7583 118.096C35.7583 117.275 35.9236 116.555 36.2543 115.936C36.5956 115.307 37.0383 114.827 37.5823 114.496C38.1263 114.155 38.7076 113.984 39.3263 113.984C40.3396 113.984 41.1236 114.32 41.6783 114.992C42.233 115.653 42.5103 116.549 42.5103 117.68ZM41.1023 117.392C41.1023 116.709 40.953 116.181 40.6543 115.808C40.3556 115.435 39.9236 115.248 39.3583 115.248C38.8676 115.248 38.4303 115.429 38.0463 115.792C37.6623 116.155 37.417 116.688 37.3103 117.392H41.1023ZM44.3336 114.176H45.6616L45.7896 115.584H45.8376C46.1149 115.083 46.4456 114.693 46.8296 114.416C47.2242 114.128 47.6349 113.984 48.0616 113.984C48.4136 113.984 48.7016 114.037 48.9256 114.144L48.6376 115.552C48.3496 115.467 48.0882 115.424 47.8536 115.424C47.5016 115.424 47.1549 115.563 46.8136 115.84C46.4722 116.107 46.1842 116.533 45.9496 117.12V122H44.3336V114.176ZM56.1822 117.68C56.1822 117.979 56.1609 118.256 56.1182 118.512H50.9502C51.0249 119.301 51.2915 119.904 51.7502 120.32C52.2195 120.725 52.7849 120.928 53.4462 120.928C54.0755 120.928 54.6995 120.731 55.3182 120.336L55.8782 121.36C55.0462 121.915 54.1662 122.192 53.2382 122.192C52.5235 122.192 51.8782 122.027 51.3022 121.696C50.7262 121.365 50.2675 120.891 49.9262 120.272C49.5955 119.653 49.4302 118.928 49.4302 118.096C49.4302 117.275 49.5955 116.555 49.9262 115.936C50.2675 115.307 50.7102 114.827 51.2542 114.496C51.7982 114.155 52.3795 113.984 52.9982 113.984C54.0115 113.984 54.7955 114.32 55.3502 114.992C55.9049 115.653 56.1822 116.549 56.1822 117.68ZM54.7742 117.392C54.7742 116.709 54.6249 116.181 54.3262 115.808C54.0275 115.435 53.5955 115.248 53.0302 115.248C52.5395 115.248 52.1022 115.429 51.7182 115.792C51.3342 116.155 51.0889 116.688 50.9822 117.392H54.7742ZM58.0054 114.176H59.3334L59.4614 115.264H59.5094C59.9254 114.859 60.3361 114.544 60.7414 114.32C61.1574 114.096 61.6108 113.984 62.1014 113.984C63.7014 113.984 64.5014 115.013 64.5014 117.072V122H62.8854V117.28C62.8854 116.608 62.7788 116.123 62.5654 115.824C62.3628 115.525 62.0268 115.376 61.5574 115.376C61.2054 115.376 60.8908 115.461 60.6134 115.632C60.3361 115.792 60.0054 116.064 59.6214 116.448V122H58.0054V114.176ZM70.0488 122.192C69.3448 122.192 68.7101 122.032 68.1448 121.712C67.5795 121.381 67.1315 120.907 66.8008 120.288C66.4808 119.669 66.3208 118.939 66.3208 118.096C66.3208 117.253 66.4968 116.523 66.8488 115.904C67.2008 115.285 67.6701 114.811 68.2568 114.48C68.8435 114.149 69.4835 113.984 70.1768 113.984C71.0301 113.984 71.7928 114.283 72.4648 114.88L71.6648 115.936C71.4301 115.733 71.2008 115.579 70.9768 115.472C70.7528 115.365 70.5128 115.312 70.2568 115.312C69.5848 115.312 69.0355 115.568 68.6088 116.08C68.1928 116.592 67.9848 117.264 67.9848 118.096C67.9848 118.928 68.1875 119.6 68.5928 120.112C69.0088 120.613 69.5475 120.864 70.2088 120.864C70.7955 120.864 71.3661 120.624 71.9208 120.144L72.5928 121.216C72.2408 121.536 71.8408 121.781 71.3928 121.952C70.9555 122.112 70.5075 122.192 70.0488 122.192ZM80.0416 117.68C80.0416 117.979 80.0202 118.256 79.9776 118.512H74.8096C74.8842 119.301 75.1509 119.904 75.6096 120.32C76.0789 120.725 76.6442 120.928 77.3056 120.928C77.9349 120.928 78.5589 120.731 79.1776 120.336L79.7376 121.36C78.9056 121.915 78.0256 122.192 77.0976 122.192C76.3829 122.192 75.7376 122.027 75.1616 121.696C74.5856 121.365 74.1269 120.891 73.7856 120.272C73.4549 119.653 73.2896 118.928 73.2896 118.096C73.2896 117.275 73.4549 116.555 73.7856 115.936C74.1269 115.307 74.5696 114.827 75.1136 114.496C75.6576 114.155 76.2389 113.984 76.8576 113.984C77.8709 113.984 78.6549 114.32 79.2096 114.992C79.7642 115.653 80.0416 116.549 80.0416 117.68ZM78.6336 117.392C78.6336 116.709 78.4842 116.181 78.1856 115.808C77.8869 115.435 77.4549 115.248 76.8896 115.248C76.3989 115.248 75.9616 115.429 75.5776 115.792C75.1936 116.155 74.9482 116.688 74.8416 117.392H78.6336ZM83.9928 122.192C83.4701 122.192 82.9475 122.091 82.4248 121.888C81.9021 121.685 81.4435 121.424 81.0488 121.104L81.8168 120.064C82.1901 120.352 82.5528 120.576 82.9048 120.736C83.2568 120.885 83.6355 120.96 84.0408 120.96C84.4888 120.96 84.8301 120.864 85.0648 120.672C85.2995 120.469 85.4168 120.213 85.4168 119.904C85.4168 119.584 85.2728 119.333 84.9848 119.152C84.6968 118.96 84.2648 118.757 83.6888 118.544C82.9955 118.288 82.4461 117.995 82.0408 117.664C81.6355 117.323 81.4328 116.859 81.4328 116.272C81.4328 115.6 81.6835 115.051 82.1848 114.624C82.6861 114.197 83.3635 113.984 84.2168 113.984C85.1341 113.984 85.9768 114.288 86.7448 114.896L85.9928 115.904C85.6941 115.68 85.4061 115.509 85.1288 115.392C84.8515 115.275 84.5581 115.216 84.2488 115.216C83.8328 115.216 83.5128 115.307 83.2888 115.488C83.0755 115.669 82.9688 115.904 82.9688 116.192C82.9688 116.405 83.0435 116.587 83.1928 116.736C83.3421 116.875 83.5128 116.987 83.7048 117.072C83.9075 117.157 84.2221 117.28 84.6488 117.44C85.1181 117.611 85.5075 117.787 85.8168 117.968C86.1368 118.139 86.4035 118.373 86.6168 118.672C86.8408 118.971 86.9528 119.349 86.9528 119.808C86.9528 120.256 86.8355 120.661 86.6008 121.024C86.3768 121.376 86.0408 121.659 85.5928 121.872C85.1448 122.085 84.6115 122.192 83.9928 122.192Z" fill="#105C80"/>
<path d="M364.564 124.52H367.284C368.906 124.52 370.148 124.963 371.012 125.848C371.887 126.733 372.324 128.024 372.324 129.72C372.324 131.416 371.892 132.723 371.028 133.64C370.164 134.547 368.943 135 367.364 135H364.564V124.52ZM367.172 133.672C368.303 133.672 369.162 133.341 369.748 132.68C370.346 132.008 370.644 131.021 370.644 129.72C370.644 128.429 370.351 127.464 369.764 126.824C369.178 126.173 368.314 125.848 367.172 125.848H366.196V133.672H367.172ZM374.358 127.176H375.974V135H374.358V127.176ZM375.174 125.704C374.886 125.704 374.646 125.613 374.454 125.432C374.272 125.251 374.182 125.016 374.182 124.728C374.182 124.451 374.272 124.221 374.454 124.04C374.646 123.859 374.886 123.768 375.174 123.768C375.462 123.768 375.696 123.859 375.878 124.04C376.07 124.221 376.166 124.451 376.166 124.728C376.166 125.016 376.07 125.251 375.878 125.432C375.696 125.613 375.462 125.704 375.174 125.704ZM378.436 127.176H379.764L379.892 128.264H379.94C380.356 127.859 380.767 127.544 381.172 127.32C381.588 127.096 382.041 126.984 382.532 126.984C384.132 126.984 384.932 128.013 384.932 130.072V135H383.316V130.28C383.316 129.608 383.209 129.123 382.996 128.824C382.793 128.525 382.457 128.376 381.988 128.376C381.636 128.376 381.321 128.461 381.044 128.632C380.767 128.792 380.436 129.064 380.052 129.448V135H378.436V127.176ZM387.295 127.176H388.623L388.751 128.264H388.799C389.215 127.859 389.626 127.544 390.031 127.32C390.447 127.096 390.901 126.984 391.391 126.984C392.991 126.984 393.791 128.013 393.791 130.072V135H392.175V130.28C392.175 129.608 392.069 129.123 391.855 128.824C391.653 128.525 391.317 128.376 390.847 128.376C390.495 128.376 390.181 128.461 389.903 128.632C389.626 128.792 389.295 129.064 388.911 129.448V135H387.295V127.176ZM396.155 127.176H397.771V135H396.155V127.176ZM396.971 125.704C396.683 125.704 396.443 125.613 396.251 125.432C396.069 125.251 395.979 125.016 395.979 124.728C395.979 124.451 396.069 124.221 396.251 124.04C396.443 123.859 396.683 123.768 396.971 123.768C397.259 123.768 397.493 123.859 397.675 124.04C397.867 124.221 397.963 124.451 397.963 124.728C397.963 125.016 397.867 125.251 397.675 125.432C397.493 125.613 397.259 125.704 396.971 125.704ZM400.233 127.176H401.561L401.689 128.264H401.737C402.153 127.859 402.563 127.544 402.969 127.32C403.385 127.096 403.838 126.984 404.329 126.984C405.929 126.984 406.729 128.013 406.729 130.072V135H405.113V130.28C405.113 129.608 405.006 129.123 404.793 128.824C404.59 128.525 404.254 128.376 403.785 128.376C403.433 128.376 403.118 128.461 402.841 128.632C402.563 128.792 402.233 129.064 401.849 129.448V135H400.233V127.176ZM411.78 138.52C410.81 138.52 410.026 138.339 409.428 137.976C408.831 137.624 408.532 137.117 408.532 136.456C408.532 136.125 408.628 135.811 408.82 135.512C409.023 135.224 409.306 134.968 409.668 134.744V134.68C409.199 134.381 408.964 133.949 408.964 133.384C408.964 133.096 409.044 132.824 409.204 132.568C409.375 132.312 409.583 132.099 409.828 131.928V131.864C409.54 131.64 409.295 131.347 409.092 130.984C408.9 130.621 408.804 130.221 408.804 129.784C408.804 129.219 408.938 128.723 409.204 128.296C409.482 127.869 409.85 127.544 410.308 127.32C410.778 127.096 411.284 126.984 411.828 126.984C412.234 126.984 412.612 127.048 412.964 127.176H415.732V128.392H414.228C414.388 128.563 414.516 128.776 414.612 129.032C414.708 129.277 414.756 129.544 414.756 129.832C414.756 130.664 414.479 131.32 413.924 131.8C413.37 132.28 412.671 132.52 411.828 132.52C411.444 132.52 411.076 132.44 410.724 132.28C410.586 132.408 410.479 132.536 410.404 132.664C410.33 132.781 410.292 132.931 410.292 133.112C410.292 133.357 410.394 133.549 410.596 133.688C410.799 133.816 411.135 133.88 411.604 133.88H413.06C413.999 133.88 414.698 134.035 415.156 134.344C415.626 134.653 415.86 135.133 415.86 135.784C415.86 136.285 415.69 136.744 415.348 137.16C415.018 137.576 414.543 137.907 413.924 138.152C413.306 138.397 412.591 138.52 411.78 138.52ZM411.828 131.48C412.255 131.48 412.607 131.325 412.884 131.016C413.172 130.707 413.316 130.296 413.316 129.784C413.316 129.272 413.172 128.867 412.884 128.568C412.607 128.269 412.255 128.12 411.828 128.12C411.402 128.12 411.044 128.269 410.756 128.568C410.479 128.867 410.34 129.272 410.34 129.784C410.34 130.296 410.479 130.707 410.756 131.016C411.044 131.325 411.402 131.48 411.828 131.48ZM412.02 137.448C412.458 137.448 412.847 137.384 413.188 137.256C413.54 137.128 413.812 136.952 414.004 136.728C414.196 136.515 414.292 136.285 414.292 136.04C414.292 135.72 414.17 135.496 413.924 135.368C413.69 135.24 413.327 135.176 412.836 135.176H411.636C411.242 135.176 410.895 135.139 410.596 135.064C410.138 135.405 409.908 135.789 409.908 136.216C409.908 136.6 410.095 136.899 410.468 137.112C410.842 137.336 411.359 137.448 412.02 137.448ZM353.916 142.52H360.108V143.896H355.548V146.84H359.404V148.216H355.548V151.624H360.268V153H353.916V142.52ZM363.245 148.92L360.909 145.176H362.653L363.597 146.76L364.333 148.072H364.397L365.053 146.76L365.885 145.176H367.565L365.229 149.096L367.741 153H365.997L364.957 151.336C364.637 150.76 364.365 150.296 364.141 149.944H364.077L363.341 151.336L362.413 153H360.733L363.245 148.92ZM369.194 145.176H370.522L370.65 146.04H370.698C371.54 145.336 372.346 144.984 373.114 144.984C374.095 144.984 374.852 145.341 375.386 146.056C375.93 146.771 376.202 147.741 376.202 148.968C376.202 149.832 376.047 150.584 375.738 151.224C375.428 151.853 375.018 152.339 374.506 152.68C373.994 153.021 373.439 153.192 372.842 153.192C372.159 153.192 371.466 152.899 370.762 152.312L370.81 153.64V156.184H369.194V145.176ZM372.522 151.848C373.119 151.848 373.604 151.597 373.978 151.096C374.351 150.584 374.538 149.88 374.538 148.984C374.538 147.213 373.919 146.328 372.682 146.328C372.106 146.328 371.482 146.648 370.81 147.288V151.128C371.375 151.608 371.946 151.848 372.522 151.848ZM384.355 148.68C384.355 148.979 384.334 149.256 384.291 149.512H379.123C379.198 150.301 379.464 150.904 379.923 151.32C380.392 151.725 380.958 151.928 381.619 151.928C382.248 151.928 382.872 151.731 383.491 151.336L384.051 152.36C383.219 152.915 382.339 153.192 381.411 153.192C380.696 153.192 380.051 153.027 379.475 152.696C378.899 152.365 378.44 151.891 378.099 151.272C377.768 150.653 377.603 149.928 377.603 149.096C377.603 148.275 377.768 147.555 378.099 146.936C378.44 146.307 378.883 145.827 379.427 145.496C379.971 145.155 380.552 144.984 381.171 144.984C382.184 144.984 382.968 145.32 383.523 145.992C384.078 146.653 384.355 147.549 384.355 148.68ZM382.947 148.392C382.947 147.709 382.798 147.181 382.499 146.808C382.2 146.435 381.768 146.248 381.203 146.248C380.712 146.248 380.275 146.429 379.891 146.792C379.507 147.155 379.262 147.688 379.155 148.392H382.947ZM386.178 145.176H387.506L387.634 146.584H387.682C387.959 146.083 388.29 145.693 388.674 145.416C389.069 145.128 389.479 144.984 389.906 144.984C390.258 144.984 390.546 145.037 390.77 145.144L390.482 146.552C390.194 146.467 389.933 146.424 389.698 146.424C389.346 146.424 388.999 146.563 388.658 146.84C388.317 147.107 388.029 147.533 387.794 148.12V153H386.178V145.176ZM391.975 145.176H393.591V153H391.975V145.176ZM392.791 143.704C392.503 143.704 392.263 143.613 392.071 143.432C391.89 143.251 391.799 143.016 391.799 142.728C391.799 142.451 391.89 142.221 392.071 142.04C392.263 141.859 392.503 141.768 392.791 141.768C393.079 141.768 393.314 141.859 393.495 142.04C393.687 142.221 393.783 142.451 393.783 142.728C393.783 143.016 393.687 143.251 393.495 143.432C393.314 143.613 393.079 143.704 392.791 143.704ZM402.261 148.68C402.261 148.979 402.24 149.256 402.197 149.512H397.029C397.104 150.301 397.37 150.904 397.829 151.32C398.298 151.725 398.864 151.928 399.525 151.928C400.154 151.928 400.778 151.731 401.397 151.336L401.957 152.36C401.125 152.915 400.245 153.192 399.317 153.192C398.602 153.192 397.957 153.027 397.381 152.696C396.805 152.365 396.346 151.891 396.005 151.272C395.674 150.653 395.509 149.928 395.509 149.096C395.509 148.275 395.674 147.555 396.005 146.936C396.346 146.307 396.789 145.827 397.333 145.496C397.877 145.155 398.458 144.984 399.077 144.984C400.09 144.984 400.874 145.32 401.429 145.992C401.984 146.653 402.261 147.549 402.261 148.68ZM400.853 148.392C400.853 147.709 400.704 147.181 400.405 146.808C400.106 146.435 399.674 146.248 399.109 146.248C398.618 146.248 398.181 146.429 397.797 146.792C397.413 147.155 397.168 147.688 397.061 148.392H400.853ZM404.084 145.176H405.412L405.54 146.264H405.588C406.004 145.859 406.415 145.544 406.82 145.32C407.236 145.096 407.69 144.984 408.18 144.984C409.78 144.984 410.58 146.013 410.58 148.072V153H408.964V148.28C408.964 147.608 408.858 147.123 408.644 146.824C408.442 146.525 408.106 146.376 407.636 146.376C407.284 146.376 406.97 146.461 406.692 146.632C406.415 146.792 406.084 147.064 405.7 147.448V153H404.084V145.176ZM416.128 153.192C415.424 153.192 414.789 153.032 414.224 152.712C413.658 152.381 413.21 151.907 412.88 151.288C412.56 150.669 412.4 149.939 412.4 149.096C412.4 148.253 412.576 147.523 412.928 146.904C413.28 146.285 413.749 145.811 414.336 145.48C414.922 145.149 415.562 144.984 416.256 144.984C417.109 144.984 417.872 145.283 418.544 145.88L417.744 146.936C417.509 146.733 417.28 146.579 417.056 146.472C416.832 146.365 416.592 146.312 416.336 146.312C415.664 146.312 415.114 146.568 414.688 147.08C414.272 147.592 414.064 148.264 414.064 149.096C414.064 149.928 414.266 150.6 414.672 151.112C415.088 151.613 415.626 151.864 416.288 151.864C416.874 151.864 417.445 151.624 418 151.144L418.672 152.216C418.32 152.536 417.92 152.781 417.472 152.952C417.034 153.112 416.586 153.192 416.128 153.192ZM426.12 148.68C426.12 148.979 426.099 149.256 426.056 149.512H420.888C420.963 150.301 421.23 150.904 421.688 151.32C422.158 151.725 422.723 151.928 423.384 151.928C424.014 151.928 424.638 151.731 425.256 151.336L425.816 152.36C424.984 152.915 424.104 153.192 423.176 153.192C422.462 153.192 421.816 153.027 421.24 152.696C420.664 152.365 420.206 151.891 419.864 151.272C419.534 150.653 419.368 149.928 419.368 149.096C419.368 148.275 419.534 147.555 419.864 146.936C420.206 146.307 420.648 145.827 421.192 145.496C421.736 145.155 422.318 144.984 422.936 144.984C423.95 144.984 424.734 145.32 425.288 145.992C425.843 146.653 426.12 147.549 426.12 148.68ZM424.712 148.392C424.712 147.709 424.563 147.181 424.264 146.808C423.966 146.435 423.534 146.248 422.968 146.248C422.478 146.248 422.04 146.429 421.656 146.792C421.272 147.155 421.027 147.688 420.92 148.392H424.712Z" fill="#0F5B80"/>
<defs>
<clipPath id="clip0_1_466">
<rect width="32.3077" height="32.3077" fill="white" transform="translate(28.6152 23.5386)"/>
</clipPath>
</defs>
</svg>
