<svg width="99" height="100" viewBox="0 0 99 100" fill="none" xmlns="http://www.w3.org/2000/svg">
<path d="M66.2965 97.6735V96.917H67.4011C67.6853 96.917 67.896 96.8625 68.0334 96.7536C68.1731 96.6447 68.2429 96.4872 68.2429 96.2812C68.2429 96.0491 68.1754 95.8822 68.0405 95.7803C67.9055 95.6785 67.6924 95.6276 67.4011 95.6276H66.6623V99.929H65.5825V94.7574H67.4011C68.0026 94.7574 68.4726 94.8734 68.8112 95.1055C69.1499 95.3352 69.3192 95.6915 69.3192 96.1746C69.3192 96.3854 69.2694 96.5819 69.17 96.7642C69.0729 96.9466 68.9213 97.0946 68.7153 97.2082C68.5093 97.3195 68.2417 97.3811 67.9126 97.3929L67.6071 97.6735H66.2965ZM65.9945 99.929L66.4243 99.0623H67.5645C67.8392 99.0623 68.0405 98.9996 68.1683 98.8741C68.2962 98.7462 68.3601 98.5864 68.3601 98.3946C68.3601 98.2454 68.3341 98.1175 68.282 98.011C68.2323 97.902 68.1518 97.8192 68.0405 97.7623C67.9315 97.7031 67.7871 97.6735 67.6071 97.6735H66.5771V96.917H67.8735L68.1186 97.2189C68.4335 97.2118 68.6869 97.2651 68.8787 97.3787C69.0705 97.4924 69.2102 97.6404 69.2979 97.8227C69.3878 98.005 69.4328 98.1992 69.4328 98.4052C69.4328 98.9072 69.2706 99.2873 68.9462 99.5454C68.6242 99.8011 68.1636 99.929 67.5645 99.929H65.9945Z" fill="white"/>
<path d="M57.2963 94.7574V98.1673C57.2963 98.5674 57.2098 98.9037 57.037 99.176C56.8665 99.4483 56.6321 99.6543 56.3337 99.794C56.0353 99.9314 55.6955 100 55.3143 100C54.9283 100 54.585 99.9314 54.2842 99.794C53.9859 99.6543 53.7514 99.4483 53.5809 99.176C53.4104 98.9037 53.3252 98.5674 53.3252 98.1673V94.7574H54.4014V98.1673C54.4014 98.3922 54.4381 98.5769 54.5115 98.7214C54.585 98.8634 54.6891 98.9676 54.8241 99.0339C54.9615 99.1002 55.1248 99.1334 55.3143 99.1334C55.5061 99.1334 55.6695 99.1002 55.8045 99.0339C55.9394 98.9676 56.0424 98.8634 56.1135 98.7214C56.1845 98.5769 56.22 98.3922 56.22 98.1673V94.7574H57.2963Z" fill="white"/>
<path d="M45.4544 99.929H42.8615V99.0623H45.4544V99.929ZM43.1954 99.929H42.1191V94.7574H43.1954V99.929Z" fill="white"/>
<path d="M34.003 98.2063C33.9794 98.5544 33.8835 98.8634 33.7153 99.1333C33.5472 99.4033 33.3116 99.6152 33.0085 99.7691C32.7078 99.923 32.3443 100 31.9181 100C31.4752 100 31.094 99.8994 30.7743 99.6981C30.4547 99.4944 30.2084 99.2067 30.0355 98.835C29.865 98.4632 29.7798 98.0228 29.7798 97.5136V97.1762C29.7798 96.6647 29.8686 96.2231 30.0462 95.8513C30.2238 95.4796 30.4724 95.1919 30.7921 94.9882C31.1141 94.7846 31.4942 94.6827 31.9323 94.6827C32.3632 94.6827 32.7267 94.7621 33.0227 94.9207C33.3187 95.0794 33.5484 95.2972 33.7118 95.5743C33.8752 95.849 33.9734 96.1627 34.0066 96.5155H32.9339C32.9102 96.2077 32.825 95.9721 32.6782 95.8087C32.5314 95.6453 32.2827 95.5636 31.9323 95.5636C31.6931 95.5636 31.4954 95.6216 31.3391 95.7377C31.1828 95.8537 31.0656 96.0301 30.9874 96.2669C30.9093 96.5037 30.8702 96.8044 30.8702 97.1691V97.5136C30.8702 97.8688 30.9046 98.166 30.9732 98.4052C31.0443 98.642 31.1568 98.8208 31.3107 98.9415C31.4646 99.0623 31.6671 99.1227 31.9181 99.1227C32.1406 99.1227 32.323 99.0883 32.4651 99.0197C32.6095 98.951 32.7184 98.8492 32.7918 98.7142C32.8676 98.5769 32.9138 98.4075 32.9304 98.2063H34.003Z" fill="white"/>
<g filter="url(#filter0_d_1_1388)">
<path fill-rule="evenodd" clip-rule="evenodd" d="M49.4393 82.1066C67.5182 82.1066 82.174 67.4508 82.174 49.3719C82.174 31.293 67.5182 16.6372 49.4393 16.6372C31.3604 16.6372 16.7046 31.293 16.7046 49.3719C16.7046 67.4508 31.3604 82.1066 49.4393 82.1066ZM49.4393 85.7438C69.527 85.7438 85.8112 69.4596 85.8112 49.3719C85.8112 29.2843 69.527 13 49.4393 13C29.3516 13 13.0674 29.2843 13.0674 49.3719C13.0674 69.4596 29.3516 85.7438 49.4393 85.7438Z" fill="white"/>
<path d="M29.5747 77.5283C29.7957 77.8945 30.1071 78.1952 30.509 78.4306C30.9108 78.6398 31.4332 78.7444 32.0761 78.7444C32.7391 78.7444 33.613 79.7252 35.3609 79.3329V83.2166L24.0598 74.1734L19.7837 68.7017C21.4914 68.754 22.6197 73.54 23.1822 72.7031C24.1265 71.317 24.9438 69.2509 26.5912 56.7759L29.3638 34.5721C29.5044 33.4737 29.5747 32.4537 29.5747 31.5122C29.5747 29.0015 28.7711 27.7462 27.1638 27.7462C26.0588 27.7462 25.0241 27.9031 24.0598 28.2169L24.5419 23.1956H38.1636C38.465 25.497 39.0677 28.6092 39.9718 32.5322C41.9608 40.9011 43.4576 46.9817 44.4622 50.7738C47.0137 60.372 48.832 67.0541 49.9169 70.8201C55.9643 47.5963 59.3797 34.219 60.1633 30.6884C60.9468 27.1316 61.4591 24.634 61.7002 23.1956H74.7795V27.7462C72.8106 27.7462 71.5649 27.9162 71.0426 28.2562C70.5403 28.5961 70.2088 28.9884 70.0481 29.433C69.8873 29.8776 69.807 30.3615 69.807 30.8845C69.807 31.5645 69.8572 32.4668 69.9576 33.5914L70.5302 38.8089C71.8763 51.3361 73.4334 62.4904 75.2014 72.2716C75.7037 74.8346 76.5089 71.1182 76.8303 71.7459C77.3326 72.7659 75.8861 70.0466 76.8303 70.0466C78.1362 70.0466 77.2405 70.3343 78.0441 70.0466L74.1601 74.1734L63.7194 81.2132V79.3329C65.3669 79.3852 66.502 79.0975 67.1248 78.4698C68.2901 77.3191 68.8727 75.5799 68.8727 73.2523C68.8727 72.2847 68.7321 70.7678 68.4508 68.7017L63.7194 34.2583L55.1908 67.1325C53.8648 72.3369 52.6392 77.5283 51.5141 82.7066C50.5899 82.7066 49.1032 83.0989 47.0539 83.8835L33.8541 34.3367C33.4925 37.632 33.0907 40.9534 32.6487 44.301C31.6843 51.1792 31.0313 55.7821 30.6898 58.1097C30.3482 60.4374 30.067 62.4511 29.846 64.1511C29.3437 68.0479 29.0926 70.8985 29.0926 72.7031C29.0926 74.5076 29.1227 75.6715 29.183 76.1945C29.2432 76.6914 29.3738 77.136 29.5747 77.5283Z" fill="white"/>
</g>
<defs>
<filter id="filter0_d_1_1388" x="0.167383" y="0.1" width="98.5437" height="98.5438" filterUnits="userSpaceOnUse" color-interpolation-filters="sRGB">
<feFlood flood-opacity="0" result="BackgroundImageFix"/>
<feColorMatrix in="SourceAlpha" type="matrix" values="0 0 0 0 0 0 0 0 0 0 0 0 0 0 0 0 0 0 127 0" result="hardAlpha"/>
<feOffset/>
<feGaussianBlur stdDeviation="6.45"/>
<feComposite in2="hardAlpha" operator="out"/>
<feColorMatrix type="matrix" values="0 0 0 0 0.917647 0 0 0 0 0.87451 0 0 0 0 0.764706 0 0 0 0.64 0"/>
<feBlend mode="normal" in2="BackgroundImageFix" result="effect1_dropShadow_1_1388"/>
<feBlend mode="normal" in="SourceGraphic" in2="effect1_dropShadow_1_1388" result="shape"/>
</filter>
</defs>
</svg>
