<svg width="20" height="18" viewBox="0 0 20 18" fill="none" xmlns="http://www.w3.org/2000/svg">
<path d="M4.16667 16.0834L3.25 17M15.1667 16.0834L16.0833 17" stroke="#105C80" stroke-linecap="round"/>
<path d="M1.41699 8.75V9.66667C1.41699 12.6915 1.41699 14.2039 2.35669 15.1436C3.29639 16.0833 4.80881 16.0833 7.83366 16.0833H11.5003C14.5252 16.0833 16.0376 16.0833 16.9773 15.1436C17.917 14.2039 17.917 12.6915 17.917 9.66667V8.75" stroke="#105C80" stroke-linecap="round" stroke-linejoin="round"/>
<path d="M0.5 8.75H18.8333" stroke="#105C80" stroke-linecap="round"/>
<path d="M2.33398 8.75V2.81312C2.33398 1.53562 3.3696 0.5 4.6471 0.5C5.67217 0.5 6.57498 1.17465 6.86543 2.15771L6.91732 2.33333" stroke="#105C80" stroke-linecap="round"/>
<path d="M6 3.25002L8.29167 1.41669" stroke="#105C80" stroke-linecap="round"/>
</svg>
