<svg width="20" height="18" viewBox="0 0 20 18" fill="none" xmlns="http://www.w3.org/2000/svg">
<path d="M18.8333 13.7917H0.5" stroke="#105C80" stroke-linecap="round" stroke-linejoin="round"/>
<path d="M18.8333 17V12.4167C18.8333 10.6882 18.8333 9.82394 18.2964 9.28697C17.7594 8.75 16.8951 8.75 15.1667 8.75H4.16667C2.43818 8.75 1.57394 8.75 1.03697 9.28697C0.5 9.82394 0.5 10.6882 0.5 12.4167V17" stroke="#105C80" stroke-linecap="round" stroke-linejoin="round"/>
<path d="M8.75033 8.75V7.11224C8.75033 6.76333 8.69788 6.64662 8.42926 6.5091C7.86982 6.22267 7.19076 6 6.45866 6C5.72656 6 5.0475 6.22267 4.48806 6.50909C4.21944 6.64662 4.16699 6.76333 4.16699 7.11224L4.16699 8.75" stroke="#105C80" stroke-linecap="round"/>
<path d="M15.1673 8.75V7.11224C15.1673 6.76333 15.1149 6.64662 14.8463 6.5091C14.2868 6.22267 13.6078 6 12.8757 6C12.1436 6 11.4645 6.22267 10.905 6.50909C10.6364 6.64662 10.584 6.76333 10.584 7.11224L10.584 8.75" stroke="#105C80" stroke-linecap="round"/>
<path d="M17.917 8.75V4.49719C17.917 3.86318 17.917 3.54618 17.7409 3.24682C17.5647 2.94745 17.3138 2.7925 16.8119 2.48259C14.7883 1.23313 12.3247 0.5 9.66699 0.5C7.00927 0.5 4.54571 1.23313 2.52211 2.48259C2.0202 2.7925 1.76924 2.94745 1.59312 3.24682C1.41699 3.54618 1.41699 3.86318 1.41699 4.49719V8.75" stroke="#105C80" stroke-linecap="round"/>
</svg>
