<svg width="22" height="22" viewBox="0 0 22 22" fill="none" xmlns="http://www.w3.org/2000/svg">
<path d="M7.52127 14.0783L4.14037 10.1577C2.40569 8.14615 1.53835 7.14036 1.92314 6.32018C2.30794 5.5 3.64715 5.5 6.32558 5.5H10.1738C12.8522 5.5 14.1914 5.5 14.5762 6.32018C14.961 7.14036 14.0937 8.14615 12.359 10.1577L8.97808 14.0783C8.63984 14.4706 8.47072 14.6667 8.24967 14.6667C8.02863 14.6667 7.85951 14.4706 7.52127 14.0783Z" stroke="#105C80" stroke-linecap="round"/>
<path d="M7.79134 5.49998L7.43199 3.34387C7.37109 2.9785 7.11322 2.67672 6.76182 2.55958L4.58301 1.83331" stroke="#105C80" stroke-linecap="round"/>
<path d="M8.25 14.6666V20.1666M6.875 20.1666H9.625" stroke="#105C80" stroke-linecap="round"/>
<path d="M14.5384 8.09722C15.1289 8.75359 15.987 9.16667 16.942 9.16667C18.7229 9.16667 20.1667 7.73025 20.1667 5.95833C20.1667 4.18642 18.7229 2.75 16.942 2.75C15.3175 2.75 13.9735 3.9452 13.75 5.5" stroke="#105C80" stroke-linecap="round"/>
</svg>
