<svg width="20" height="19" viewBox="0 0 20 19" fill="none" xmlns="http://www.w3.org/2000/svg">
<path d="M15.3963 7.83337H16.6702C18.3674 7.83337 18.8719 8.07676 18.8311 9.28518C18.7634 11.2868 17.8608 13.6126 14.25 14.25" stroke="#105C80" stroke-linecap="round"/>
<path d="M4.11741 17.105C1.0242 14.7268 0.568458 11.3534 0.501311 7.8335C0.472304 6.31292 0.913657 6.00006 2.93759 6.00006H12.7291C14.753 6.00006 15.1944 6.31292 15.1654 7.8335C15.0982 11.3534 14.6425 14.7268 11.5493 17.105C10.669 17.7818 9.92622 17.9167 8.67608 17.9167H6.99059C5.74045 17.9167 4.99769 17.7818 4.11741 17.105Z" stroke="#105C80" stroke-linecap="round"/>
<path d="M9.03384 0.500061C8.53262 0.810453 7.83513 1.87506 7.83513 3.25006M5.57872 1.87506C5.57872 1.87506 5.08398 2.33339 5.08398 3.25006M11.5018 1.87506C11.2512 2.03026 11.0423 2.79173 11.0423 3.25006" stroke="#105C80" stroke-linecap="round" stroke-linejoin="round"/>
</svg>
