<svg width="20" height="16" viewBox="0 0 20 16" fill="none" xmlns="http://www.w3.org/2000/svg">
<path d="M4.16699 12.4166V15.1666M15.167 12.4166V15.1666" stroke="#105C80" stroke-linecap="round" stroke-linejoin="round"/>
<path d="M17.0007 5.08333C17.0007 3.36987 17.0007 2.51314 16.6322 1.875C16.3909 1.45695 16.0437 1.10979 15.6257 0.86843C14.9875 0.5 14.1308 0.5 12.4173 0.5H6.91732C5.20386 0.5 4.34712 0.5 3.70898 0.86843C3.29093 1.10979 2.94378 1.45695 2.70241 1.875C2.33398 2.51314 2.33398 3.36987 2.33398 5.08333" stroke="#105C80" stroke-linecap="round" stroke-linejoin="round"/>
<path d="M17 5.08331C15.9875 5.08331 15.1667 5.90412 15.1667 6.91665V8.74998C15.1667 9.50837 15.0084 9.66665 14.25 9.66665H5.08333C4.32494 9.66665 4.16667 9.50837 4.16667 8.74998V6.91665C4.16667 5.90412 3.34586 5.08331 2.33333 5.08331C1.32081 5.08331 0.5 5.90412 0.5 6.91665C0.5 7.59524 0.868682 8.18772 1.41667 8.50471V8.74998C1.41667 10.4785 1.41667 11.3427 1.95364 11.8797C2.49061 12.4166 3.35485 12.4166 5.08333 12.4166H14.25C15.9785 12.4166 16.8427 12.4166 17.3797 11.8797C17.9167 11.3427 17.9167 10.4785 17.9167 8.74998V8.50471C18.4647 8.18772 18.8333 7.59524 18.8333 6.91665C18.8333 5.90412 18.0125 5.08331 17 5.08331Z" stroke="#105C80" stroke-linejoin="round"/>
</svg>
