<svg width="20" height="20" viewBox="0 0 20 20" fill="none" xmlns="http://www.w3.org/2000/svg">
<path d="M6.18924 12.7451L2.80834 8.82454C1.07366 6.81296 0.20632 5.80716 0.591112 4.98699C0.975904 4.16681 2.31512 4.16681 4.99355 4.16681H8.84173C11.5202 4.16681 12.8594 4.16681 13.2442 4.98699C13.629 5.80716 12.7616 6.81296 11.0269 8.82454L7.64605 12.7451C7.30781 13.1374 7.13869 13.3335 6.91764 13.3335C6.6966 13.3335 6.52748 13.1374 6.18924 12.7451Z" stroke="#105C80" stroke-linecap="round"/>
<path d="M6.45931 4.16679L6.09996 2.01068C6.03906 1.64531 5.78119 1.34353 5.42979 1.22639L3.25098 0.500122" stroke="#105C80" stroke-linecap="round"/>
<path d="M6.91797 13.3335V18.8335M5.54297 18.8335H8.29297" stroke="#105C80" stroke-linecap="round"/>
<path d="M13.2064 6.76403C13.7969 7.4204 14.6549 7.83348 15.61 7.83348C17.3909 7.83348 18.8346 6.39706 18.8346 4.62514C18.8346 2.85323 17.3909 1.41681 15.61 1.41681C13.9854 1.41681 12.6415 2.61201 12.418 4.16681" stroke="#105C80" stroke-linecap="round"/>
</svg>
