<svg width="19" height="20" viewBox="0 0 19 20" fill="none" xmlns="http://www.w3.org/2000/svg">
<path d="M9.20571 0.5C6.44858 0.5 4.66086 2.35074 2.54659 3.02533C1.68692 3.29962 1.25708 3.43676 1.08312 3.6301C0.909169 3.82343 0.85823 4.10594 0.756352 4.67096C-0.333829 10.7172 2.04901 16.307 7.73179 18.4827C8.34238 18.7165 8.64767 18.8333 9.20872 18.8333C9.76977 18.8333 10.075 18.7164 10.6856 18.4827C16.368 16.3069 18.7486 10.7171 17.6581 4.67095C17.5562 4.10584 17.5052 3.82328 17.3312 3.62995C17.1572 3.43661 16.7274 3.29954 15.8678 3.0254C13.7527 2.35088 11.9629 0.5 9.20571 0.5Z" stroke="#105C80" stroke-linecap="round" stroke-linejoin="round"/>
<path d="M6.45703 10.5834C6.45703 10.5834 7.3737 10.5834 8.29036 12.4167C8.29036 12.4167 11.2021 7.83335 13.7904 6.91669" stroke="#105C80" stroke-linecap="round" stroke-linejoin="round"/>
</svg>
