<svg width="20" height="20" viewBox="0 0 20 20" fill="none" xmlns="http://www.w3.org/2000/svg">
<path d="M15.5 18.8333C17.7091 18.8333 19.5 17.1917 19.5 15.1667C19.5 14.1891 19.0827 13.3009 18.4024 12.6435C17.8957 12.1539 17.6423 11.9091 17.5712 11.7456C17.5 11.582 17.5 11.3657 17.5 10.9331V2.33333C17.5 1.32081 16.6046 0.5 15.5 0.5C14.3954 0.5 13.5 1.32081 13.5 2.33333V10.9331C13.5 11.3657 13.5 11.582 13.4288 11.7456C13.3577 11.9091 13.1043 12.1539 12.5976 12.6435C11.9173 13.3009 11.5 14.1891 11.5 15.1667C11.5 17.1917 13.2909 18.8333 15.5 18.8333Z" stroke="#105C80" stroke-linecap="round" stroke-linejoin="round"/>
<path d="M7.04545 3.25V6.60156M7.04545 6.60156V11.8151M7.04545 6.60156L9.09091 4.73958M7.04545 6.60156L5 4.73958M7.04545 11.8151L7.04546 15.1667M7.04545 11.8151L5 13.6771M7.04545 11.8151L9.09091 13.6771M2.13636 7.34635L4.18182 9.20833M4.18182 9.20833L2.13636 11.0703M4.18182 9.20833H9.5M4.18182 9.20833H0.5" stroke="#105C80" stroke-linecap="round" stroke-linejoin="round"/>
</svg>
