<svg width="20" height="18" viewBox="0 0 20 18" fill="none" xmlns="http://www.w3.org/2000/svg">
<path d="M18.8333 17.0001H17.9167C16.5862 17.0001 15.4215 16.2128 15.1667 15.1668C14.9119 16.2128 13.7471 17.0001 12.4167 17.0001C11.0862 17.0001 9.92146 16.2128 9.66667 15.1668C9.41187 16.2128 8.24709 17.0001 6.91667 17.0001C5.58624 17.0001 4.42147 16.2128 4.16667 15.1668C3.91187 16.2128 2.74709 17.0001 1.41667 17.0001H0.5" stroke="#105C80" stroke-linecap="round" stroke-linejoin="round"/>
<path d="M16.083 0.500122L15.8402 0.581067C14.6301 0.984412 14.0251 1.18608 13.6791 1.66621C13.333 2.14634 13.333 2.78408 13.333 4.05957L13.333 13.3335" stroke="#105C80" stroke-linecap="round" stroke-linejoin="round"/>
<path d="M8.75 0.500122L8.50716 0.581067C7.29713 0.984412 6.69211 1.18608 6.34606 1.66621C6 2.14634 6 2.78408 6 4.05957L6 13.3335" stroke="#105C80" stroke-linecap="round" stroke-linejoin="round"/>
<path d="M6 4.16681H13.3333M6 7.83348H13.3333M6 11.5001H13.3333" stroke="#105C80" stroke-linecap="round" stroke-linejoin="round"/>
</svg>
