<svg width="24" height="24" viewBox="0 0 24 24" fill="none" xmlns="http://www.w3.org/2000/svg">
<path d="M17.5016 5.83398L13.6125 9.72307" stroke="#105C80" stroke-linecap="round" stroke-linejoin="round"/>
<path d="M5.83361 5.83398L9.7227 9.72307" stroke="#105C80" stroke-linecap="round" stroke-linejoin="round"/>
<path d="M17.501 17.5013L13.6119 13.6122" stroke="#105C80" stroke-linecap="round" stroke-linejoin="round"/>
<path d="M5.8343 17.5013L10.0475 13.2881" stroke="#105C80" stroke-linecap="round" stroke-linejoin="round"/>
<path d="M13.6117 5.83395L15.982 5.674C16.8306 5.61673 17.255 5.58809 17.5008 5.83395C17.7467 6.0798 17.718 6.50414 17.6608 7.3528L17.5008 9.72304" stroke="#105C80" stroke-linecap="round" stroke-linejoin="round"/>
<path d="M9.7227 17.5012L7.35246 17.6612C6.5038 17.7184 6.07947 17.7471 5.83361 17.5012C5.58776 17.2554 5.61639 16.831 5.67366 15.9824L5.83361 13.6121" stroke="#105C80" stroke-linecap="round" stroke-linejoin="round"/>
<path d="M17.5016 13.6121L17.6615 15.9824C17.7188 16.831 17.7474 17.2554 17.5016 17.5012C17.2557 17.7471 16.8314 17.7184 15.9827 17.6612L13.6125 17.5012" stroke="#105C80" stroke-linecap="round" stroke-linejoin="round"/>
<path d="M5.83438 9.72304L5.67443 7.3528C5.61716 6.50414 5.58853 6.0798 5.83438 5.83395C6.08024 5.58809 6.50457 5.61673 7.35323 5.674L9.72347 5.83395" stroke="#105C80" stroke-linecap="round" stroke-linejoin="round"/>
</svg>
