<svg width="20" height="20" viewBox="0 0 20 20" fill="none" xmlns="http://www.w3.org/2000/svg">
<path d="M18.3793 5.50237L18.7323 5.85651L18.7323 5.85651L18.3793 5.50237ZM18.4453 3.48528L18.7983 3.13114L18.7983 3.13114L18.4453 3.48528ZM16.1442 5.93771L16.3128 5.46699L16.3128 5.46699L16.1442 5.93771ZM5.45926 18.3792L5.1063 18.0251L5.1063 18.0251L5.45926 18.3792ZM3.43541 18.445L3.78837 18.0909L3.78837 18.0909L3.43541 18.445ZM5.89606 16.1516L5.4257 16.3211L5.4257 16.3211L5.89606 16.1516ZM18.4453 3.48528L18.0924 3.83943C18.4283 4.17422 18.4228 4.75312 18.0264 5.14822L18.3793 5.50237L18.7323 5.85651C19.4589 5.13229 19.5855 3.91567 18.7983 3.13114L18.4453 3.48528ZM13.3349 0.958313V1.45831C14.9796 1.45831 16.6807 2.43249 18.0924 3.83943L18.4453 3.48528L18.7983 3.13114C17.2979 1.63579 15.3569 0.458313 13.3349 0.458313V0.958313ZM13.5497 5.5553L13.5698 6.0549C14.4135 6.02092 15.213 6.13532 15.9756 6.40843L16.1442 5.93771L16.3128 5.46699C15.4206 5.14747 14.4921 5.01694 13.5295 5.05571L13.5497 5.5553ZM3.43541 18.445L3.08245 18.7992C3.86839 19.5825 5.08618 19.457 5.81222 18.7334L5.45926 18.3792L5.1063 18.0251C4.70925 18.4208 4.1255 18.4269 3.78837 18.0909L3.43541 18.445ZM0.958984 13.7916L0.458984 13.7913C0.458234 15.023 0.735608 15.9175 1.22738 16.6997C1.70221 17.4549 2.37261 18.0917 3.08245 18.7992L3.43541 18.445L3.78837 18.0909C3.0422 17.3472 2.47369 16.8032 2.07396 16.1674C1.69117 15.5586 1.45834 14.852 1.45898 13.792L0.958984 13.7916ZM5.50638 13.54L5.00679 13.5198C4.96783 14.4806 5.1052 15.4322 5.4257 16.3211L5.89606 16.1516L6.36643 15.982C6.09231 15.2217 5.97194 14.3997 6.00597 13.5603L5.50638 13.54ZM16.1442 5.93771L15.9756 6.40843C16.9113 6.74353 17.9755 6.61077 18.7323 5.85651L18.3793 5.50237L18.0264 5.14822C17.588 5.58515 16.9486 5.6947 16.3128 5.46699L16.1442 5.93771ZM5.89606 16.1516L5.4257 16.3211C5.65356 16.9531 5.54424 17.5886 5.1063 18.0251L5.45926 18.3792L5.81221 18.7334C6.56948 17.9787 6.70326 16.9162 6.36643 15.982L5.89606 16.1516Z" fill="#105C80"/>
<path d="M5.57407 2.52616L5.8166 2.9634L5.8166 2.9634L5.57407 2.52616ZM10.2533 6.03013L9.80429 6.25001L9.80429 6.25001L10.2533 6.03013ZM9.30242 4.08807L9.75148 3.86819L9.75148 3.86819L9.30242 4.08807ZM9.64789 9.73197L9.2929 9.37986L9.2929 9.37986L9.64789 9.73197ZM7.65926 2.02033L7.50818 2.49695L7.50818 2.49695L7.65926 2.02033ZM2.50048 5.62486L2.06158 5.38535L2.06158 5.38535L2.50048 5.62486ZM8.2435 10.8735L8.40332 11.3472L8.40332 11.3472L8.2435 10.8735ZM7.6696 10.9689L7.66761 10.4689L7.66761 10.4689L7.6696 10.9689ZM1.99875 7.72709L2.47607 7.57823L2.47607 7.57823L1.99875 7.72709ZM10.6624 0.854068L10.5328 0.371173L10.5328 0.371173L10.6624 0.854068ZM13.5487 6.49112L13.938 6.80487L13.938 6.80487L13.5487 6.49112ZM13.4775 0.860579L13.7878 0.468566L13.7878 0.468565L13.4775 0.860579ZM0.84194 10.7548L0.358524 10.6271L0.358524 10.6271L0.84194 10.7548ZM4.12688 14.1681L4.09004 13.6694L4.12688 14.1681ZM6.48147 13.6238L6.81142 13.9994L6.81143 13.9994L6.48147 13.6238ZM0.909434 13.6671L0.531532 13.9945L0.531534 13.9945L0.909434 13.6671ZM10.2533 6.03013L10.7024 5.81025L9.75148 3.86819L9.30242 4.08807L8.85336 4.30795L9.80429 6.25001L10.2533 6.03013ZM5.57407 2.52616L5.8166 2.9634C6.27973 2.70652 6.56134 2.55329 6.81398 2.4781C7.03067 2.41362 7.22649 2.40766 7.50818 2.49695L7.65926 2.02033L7.81035 1.5437C7.34546 1.39634 6.9449 1.3958 6.52875 1.51965C6.14853 1.6328 5.76083 1.85081 5.33155 2.08891L5.57407 2.52616ZM9.30242 4.08807L9.75148 3.86819C9.46011 3.27313 9.21536 2.7694 8.94143 2.39165C8.64919 1.98864 8.30529 1.70059 7.81035 1.5437L7.65926 2.02033L7.50818 2.49695C7.7598 2.57672 7.93861 2.71218 8.13188 2.97869C8.34346 3.27047 8.54701 3.68229 8.85336 4.30795L9.30242 4.08807ZM9.64789 9.73197L9.2929 9.37986C8.95517 9.72035 8.72345 9.95336 8.52637 10.1209C8.33551 10.2832 8.20565 10.3585 8.08369 10.3997L8.2435 10.8735L8.40332 11.3472C8.69036 11.2504 8.93089 11.0895 9.17408 10.8828C9.41104 10.6814 9.67702 10.4126 10.0029 10.0841L9.64789 9.73197ZM8.2435 10.8735L8.08369 10.3997C7.94947 10.445 7.80901 10.4683 7.66761 10.4689L7.6696 10.9689L7.6716 11.4689C7.92044 11.4679 8.16746 11.4268 8.40332 11.3472L8.2435 10.8735ZM2.50048 5.62486L2.06158 5.38535C1.82521 5.81849 1.6095 6.20849 1.49761 6.59062C1.37543 7.00793 1.37588 7.40928 1.52142 7.87596L1.99875 7.72709L2.47607 7.57823C2.38688 7.29223 2.3927 7.09232 2.45732 6.87161C2.53225 6.61572 2.68477 6.33094 2.93938 5.86438L2.50048 5.62486ZM7.65926 2.02033L7.89737 2.45999C8.78183 1.98099 9.8502 1.58988 10.7921 1.33696L10.6624 0.854068L10.5328 0.371173C9.53524 0.639024 8.39024 1.05584 7.42115 1.58066L7.65926 2.02033ZM10.6624 0.854068L10.7921 1.33696C11.5111 1.14391 11.9759 1.02175 12.35 1.00247C12.6805 0.985441 12.9123 1.05083 13.1671 1.25259L13.4775 0.860579L13.7878 0.468565C13.3236 0.10102 12.8465 -0.0244457 12.2986 0.00379652C11.7943 0.0297863 11.2111 0.189027 10.5328 0.371173L10.6624 0.854068ZM1.99875 7.72709L1.55748 7.49197C1.03724 8.46835 0.624039 9.62204 0.358524 10.6271L0.84194 10.7548L1.32536 10.8825C1.57639 9.93228 1.96458 8.85452 2.44002 7.96221L1.99875 7.72709ZM4.12688 14.1681L4.09004 13.6694C3.19921 13.7353 2.59844 13.7777 2.14279 13.7291C1.72102 13.6841 1.48395 13.5667 1.28733 13.3397L0.909434 13.6671L0.531534 13.9945C0.936387 14.4618 1.43605 14.6593 2.03665 14.7234C2.60335 14.7839 3.31057 14.7298 4.16373 14.6667L4.12688 14.1681ZM4.12688 14.1681L4.16373 14.6667C4.94067 14.6093 5.54919 14.5673 6.01761 14.4284L5.8754 13.949L5.7332 13.4697C5.39345 13.5704 4.91624 13.6084 4.09004 13.6694L4.12688 14.1681ZM13.4775 0.860579L13.1671 1.25259C13.3138 1.36874 13.4733 1.63383 13.5895 2.08136C13.7015 2.5124 13.7549 3.04238 13.7497 3.59369C13.7444 4.1435 13.681 4.69521 13.5707 5.16572C13.4573 5.64939 13.3062 5.99515 13.1594 6.17737L13.5487 6.49112L13.938 6.80487C14.2244 6.44942 14.4183 5.93114 14.5443 5.39403C14.6733 4.84377 14.7438 4.21798 14.7496 3.60319C14.7554 2.98989 14.6972 2.36817 14.5574 1.83004C14.422 1.30841 14.1899 0.786872 13.7878 0.468566L13.4775 0.860579ZM13.5487 6.49112L13.1594 6.17737C12.9877 6.39033 12.5827 6.63058 12.044 6.85182C11.5312 7.06242 10.9855 7.22137 10.6283 7.31142L10.7505 7.79626L10.8727 8.28109C11.258 8.18397 11.8527 8.01146 12.4239 7.77684C12.9693 7.55286 13.592 7.23414 13.938 6.80487L13.5487 6.49112ZM6.48147 13.6238L6.81143 13.9994C7.06708 13.7749 7.26967 13.464 7.42825 13.1615C7.59026 12.8525 7.72441 12.5167 7.83054 12.2126C7.93715 11.9071 8.01853 11.6247 8.07325 11.4191C8.10068 11.3159 8.1216 11.2314 8.13579 11.172C8.1429 11.1423 8.14833 11.1188 8.15206 11.1024C8.15393 11.0942 8.15537 11.0878 8.15639 11.0832C8.1569 11.0809 8.1573 11.0791 8.1576 11.0778C8.15775 11.0771 8.15787 11.0766 8.15796 11.0761C8.15801 11.0759 8.15805 11.0757 8.15808 11.0756C8.1581 11.0755 8.15812 11.0754 8.15813 11.0754C8.15815 11.0753 8.15816 11.0752 7.6696 10.9689C7.18105 10.8625 7.18106 10.8625 7.18107 10.8624C7.18107 10.8624 7.18108 10.8623 7.18109 10.8623C7.18109 10.8623 7.18109 10.8623 7.18109 10.8623C7.18108 10.8624 7.18104 10.8625 7.18098 10.8628C7.18085 10.8634 7.18062 10.8645 7.18028 10.866C7.17961 10.869 7.17853 10.8738 7.17704 10.8804C7.17405 10.8935 7.16943 10.9135 7.1632 10.9395C7.15073 10.9917 7.13187 11.0679 7.10686 11.162C7.05669 11.3505 6.9825 11.6077 6.88638 11.8831C6.78978 12.1599 6.67406 12.4464 6.54256 12.6972C6.40763 12.9547 6.27309 13.1413 6.15151 13.2481L6.48147 13.6238ZM4.12688 14.1681L4.16373 14.6667C4.79562 14.62 5.30683 14.581 5.71591 14.4987C6.13992 14.4134 6.49902 14.2738 6.81142 13.9994L6.48147 13.6238L6.15151 13.2481C6.01398 13.3689 5.83822 13.454 5.51865 13.5183C5.18415 13.5856 4.74303 13.6212 4.09004 13.6694L4.12688 14.1681ZM0.84194 10.7548L0.358524 10.6271C0.242902 11.0648 0.0593218 11.648 0.0121089 12.2103C-0.0370626 12.796 0.0510783 13.44 0.531532 13.9945L0.909434 13.6671L1.28734 13.3397C1.04347 13.0582 0.972917 12.719 1.0086 12.294C1.04625 11.8457 1.19108 11.3908 1.32536 10.8825L0.84194 10.7548ZM1.99875 7.72709L1.52142 7.87596C1.67472 8.36751 2.07518 8.82379 2.52603 9.21217C2.99089 9.61262 3.57165 9.99341 4.17706 10.3221C4.78376 10.6514 5.42856 10.9356 6.02801 11.1382C6.61811 11.3377 7.20074 11.4707 7.6716 11.4689L7.6696 10.9689L7.66761 10.4689C7.35902 10.4701 6.8984 10.3769 6.34824 10.1909C5.80743 10.0081 5.21496 9.74763 4.65415 9.4432C4.09204 9.13806 3.57505 8.79596 3.1787 8.45452C2.76834 8.10102 2.54412 7.79643 2.47607 7.57823L1.99875 7.72709ZM9.64789 9.73197L10.0029 10.0841C10.6472 9.43454 11.0956 8.83056 11.2186 8.11198C11.3417 7.39205 11.1203 6.6637 10.7024 5.81025L10.2533 6.03013L9.80429 6.25001C10.1977 7.05342 10.3014 7.54305 10.2329 7.94335C10.1642 8.345 9.90425 8.76351 9.2929 9.37986L9.64789 9.73197ZM2.50048 5.62486L2.93938 5.86438C3.60249 4.64925 4.61244 3.6313 5.8166 2.9634L5.57407 2.52616L5.33155 2.08891C3.96088 2.84918 2.81506 4.00462 2.06158 5.38535L2.50048 5.62486Z" fill="#105C80"/>
</svg>
