<svg width="17" height="17" viewBox="0 0 17 17" fill="none" xmlns="http://www.w3.org/2000/svg">
<path d="M13.1867 14.1667H13.5339C14.3484 14.1667 14.9962 13.7956 15.5779 13.2767C17.0556 11.9585 13.582 10.625 12.3962 10.625M10.9795 3.5904C11.1403 3.55849 11.3074 3.54169 11.4787 3.54169C12.7678 3.54169 13.8128 4.49308 13.8128 5.66669C13.8128 6.84029 12.7678 7.79169 11.4787 7.79169C11.3074 7.79169 11.1403 7.77488 10.9795 7.74298" stroke="#105C80" stroke-linecap="round"/>
<path d="M3.17426 11.4121C2.33916 11.8596 0.149556 12.7735 1.48317 13.9169C2.13463 14.4755 2.86019 14.875 3.77239 14.875H8.97761C9.88981 14.875 10.6154 14.4755 11.2668 13.9169C12.6004 12.7735 10.4108 11.8596 9.57574 11.4121C7.61742 10.3627 5.13258 10.3627 3.17426 11.4121Z" stroke="#105C80"/>
<path d="M9.20833 5.31252C9.20833 6.87733 7.93981 8.14585 6.375 8.14585C4.81019 8.14585 3.54167 6.87733 3.54167 5.31252C3.54167 3.74771 4.81019 2.47919 6.375 2.47919C7.93981 2.47919 9.20833 3.74771 9.20833 5.31252Z" stroke="#105C80"/>
</svg>
