<svg width="41" height="41" viewBox="0 0 41 41" fill="none" xmlns="http://www.w3.org/2000/svg">
<g clip-path="url(#clip0_1_234)">
<path d="M17.5915 4.42041C18.2449 4.5101 18.2449 4.5101 18.9368 4.8176C20.0917 5.29547 20.9082 5.29547 22.0631 4.8176C22.2914 4.71612 22.5197 4.61465 22.7549 4.5101C23.5527 4.40754 23.8722 4.42837 24.5319 4.90648C24.7023 5.07587 24.8728 5.24526 25.0484 5.41979C26.0454 6.39843 26.5707 6.56523 27.9568 6.59854C29.2271 6.69158 29.2271 6.69158 29.9427 7.29041C30.2328 7.8051 30.4879 8.30749 30.7371 8.84072C31.2541 9.92643 32.0788 10.3354 33.1587 10.7754C33.8249 11.0701 33.8249 11.0701 34.2349 11.6851C34.2751 12.1153 34.2989 12.5472 34.3118 12.9792C34.398 14.298 34.677 14.9615 35.5875 15.9276C36.4665 16.8878 36.4665 16.8878 36.6052 17.6429C36.4899 18.2451 36.4899 18.2451 36.1824 18.8217C35.7786 19.6797 35.7457 20.386 35.8749 21.3201C35.9806 21.5653 36.0863 21.8106 36.1952 22.0632C36.5667 22.9354 36.5806 23.2874 36.2849 24.1901C35.888 24.6984 35.4676 25.1611 35.0165 25.6219C34.2389 26.4867 34.3891 27.5695 34.3526 28.6737C34.2116 29.4421 34.0285 29.6651 33.4149 30.1351C32.9152 30.3962 32.9152 30.3962 32.3899 30.622C31.2007 31.193 30.7972 31.8755 30.2246 33.0435C29.9449 33.5907 29.7986 33.8726 29.3149 34.2351C28.7079 34.3184 28.7079 34.3184 28.0081 34.3376C26.5565 34.3776 25.839 34.8149 24.8177 35.811C24.2873 36.2809 24.0625 36.4743 23.3571 36.6182C22.7549 36.4901 22.7549 36.4901 22.0631 36.1826C20.9082 35.7047 20.0917 35.7047 18.9368 36.1826C18.7085 36.2841 18.4802 36.3855 18.2449 36.4901C17.4966 36.5761 17.1458 36.5812 16.52 36.1458C16.3705 35.9972 16.2209 35.8487 16.0668 35.6957C15.0369 34.6875 14.4831 34.409 13.0302 34.3888C11.7692 34.3056 11.7692 34.3056 11.0571 33.7098C10.7651 33.1917 10.504 32.6825 10.2499 32.1467C9.8909 31.3958 9.58965 31.1022 8.81493 30.7501C8.52795 30.6152 8.24185 30.4784 7.95649 30.3401C7.74918 30.245 7.74918 30.245 7.53768 30.1479C7.17493 29.9301 7.17493 29.9301 6.76493 29.3151C6.72464 28.8891 6.70098 28.4615 6.68805 28.0338C6.58327 26.4319 6.16042 25.6585 5.06087 24.4976C4.55373 23.9279 4.50993 23.8486 4.50993 23.037C4.71493 22.3451 4.71493 22.3451 4.93274 21.8582C5.30468 20.8168 5.28744 19.8204 4.81743 18.8217C4.71595 18.6314 4.61448 18.4411 4.50993 18.2451C4.42312 17.4992 4.42004 17.1443 4.85427 16.5202C5.00278 16.3706 5.15129 16.2211 5.3043 16.067C6.52077 14.8243 6.61095 14.0422 6.65442 12.3193C6.78812 11.552 6.97397 11.3346 7.58493 10.8651C8.09846 10.586 8.62151 10.3531 9.15526 10.1156C10.0835 9.58248 10.4205 8.70709 10.8521 7.77008C11.0979 7.32997 11.2746 7.06234 11.6849 6.7651C12.2631 6.70344 12.2631 6.70344 12.9406 6.70104C14.5624 6.61425 15.5555 6.02428 16.6434 4.84322C17.0149 4.5101 17.0149 4.5101 17.5915 4.42041Z" fill="#1B1B1B"/>
<path d="M25.6252 13.94C27.4499 15.4859 28.5109 17.384 28.7803 19.7761C28.8523 22.0986 28.3427 24.0513 26.8248 25.8372C25.0153 27.7574 23.1625 28.549 20.5387 28.7641C17.9368 28.6695 15.9688 27.7508 14.1837 25.8813C12.5091 23.8544 12.1134 21.62 12.3002 19.065C12.7625 16.7344 14.0592 14.8968 15.9902 13.53C18.9333 11.6644 22.8164 11.936 25.6252 13.94Z" fill="#030303"/>
<path d="M17.5915 4.42041C18.2449 4.5101 18.2449 4.5101 18.9368 4.8176C20.0917 5.29547 20.9082 5.29547 22.0631 4.8176C22.2914 4.71612 22.5197 4.61465 22.7549 4.5101C23.5527 4.40754 23.8722 4.42837 24.5319 4.90648C24.7023 5.07587 24.8728 5.24526 25.0484 5.41979C26.0454 6.39843 26.5707 6.56523 27.9568 6.59854C29.2271 6.69158 29.2271 6.69158 29.9427 7.29041C30.2328 7.8051 30.4879 8.30749 30.7371 8.84072C31.2541 9.92643 32.0788 10.3354 33.1587 10.7754C33.8249 11.0701 33.8249 11.0701 34.2349 11.6851C34.2751 12.1153 34.2989 12.5472 34.3118 12.9792C34.398 14.298 34.677 14.9615 35.5875 15.9276C36.4665 16.8878 36.4665 16.8878 36.6052 17.6429C36.4899 18.2451 36.4899 18.2451 36.1824 18.8217C35.7786 19.6797 35.7457 20.386 35.8749 21.3201C35.9806 21.5653 36.0863 21.8106 36.1952 22.0632C36.5667 22.9354 36.5806 23.2874 36.2849 24.1901C35.888 24.6984 35.4676 25.1611 35.0165 25.6219C34.2389 26.4867 34.3891 27.5695 34.3526 28.6737C34.2116 29.4421 34.0285 29.6651 33.4149 30.1351C32.9152 30.3962 32.9152 30.3962 32.3899 30.622C31.2007 31.193 30.7972 31.8755 30.2246 33.0435C29.9449 33.5907 29.7986 33.8726 29.3149 34.2351C28.7079 34.3184 28.7079 34.3184 28.0081 34.3376C26.5565 34.3776 25.839 34.8149 24.8177 35.811C24.2873 36.2809 24.0625 36.4743 23.3571 36.6182C22.7549 36.4901 22.7549 36.4901 22.0631 36.1826C20.9082 35.7047 20.0917 35.7047 18.9368 36.1826C18.7085 36.2841 18.4802 36.3855 18.2449 36.4901C17.4966 36.5761 17.1458 36.5812 16.52 36.1458C16.3705 35.9972 16.2209 35.8487 16.0668 35.6957C15.0369 34.6875 14.4831 34.409 13.0302 34.3888C11.7692 34.3056 11.7692 34.3056 11.0571 33.7098C10.7651 33.1917 10.504 32.6825 10.2499 32.1467C9.8909 31.3958 9.58965 31.1022 8.81493 30.7501C8.52795 30.6152 8.24185 30.4784 7.95649 30.3401C7.74918 30.245 7.74918 30.245 7.53768 30.1479C7.17493 29.9301 7.17493 29.9301 6.76493 29.3151C6.72464 28.8891 6.70098 28.4615 6.68805 28.0338C6.58327 26.4319 6.16042 25.6585 5.06087 24.4976C4.55373 23.9279 4.50993 23.8486 4.50993 23.037C4.71493 22.3451 4.71493 22.3451 4.93274 21.8582C5.30468 20.8168 5.28744 19.8204 4.81743 18.8217C4.71595 18.6314 4.61448 18.4411 4.50993 18.2451C4.42312 17.4992 4.42004 17.1443 4.85427 16.5202C5.00278 16.3706 5.15129 16.2211 5.3043 16.067C6.52077 14.8243 6.61095 14.0422 6.65442 12.3193C6.78812 11.552 6.97397 11.3346 7.58493 10.8651C8.09846 10.586 8.62151 10.3531 9.15526 10.1156C10.0835 9.58248 10.4205 8.70709 10.8521 7.77008C11.0979 7.32997 11.2746 7.06234 11.6849 6.7651C12.2631 6.70344 12.2631 6.70344 12.9406 6.70104C14.5624 6.61425 15.5555 6.02428 16.6434 4.84322C17.0149 4.5101 17.0149 4.5101 17.5915 4.42041ZM9.59649 11.5954C6.99114 15.037 6.04021 18.9265 6.61999 23.1975C7.30787 26.8329 9.6627 30.0251 12.6202 32.1531C13.8881 33.0031 15.1407 33.6016 16.6049 34.0301C16.7593 34.0763 16.9136 34.1226 17.0726 34.1702C20.5286 35.0283 24.2968 34.458 27.4027 32.8041C30.9159 30.6722 33.0821 27.5369 34.259 23.636C35.1042 20.0822 34.3577 16.4499 32.5773 13.3323C30.6058 10.2061 27.7702 7.76303 24.1387 6.8676C18.6681 5.67638 13.305 7.29527 9.59649 11.5954Z" fill="#060606"/>
<path d="M18.2452 18.04C18.6511 18.1753 19.057 18.3106 19.4752 18.45C19.4752 18.7206 19.4752 18.9912 19.4752 19.27C19.3399 19.27 19.2046 19.27 19.0652 19.27C19.1328 20.1495 19.2005 21.0289 19.2702 21.935C19.4055 21.935 19.5408 21.935 19.6802 21.935C20.1982 20.5332 20.3521 19.5163 20.0902 18.04C20.4961 18.1753 20.902 18.3106 21.3202 18.45C21.3202 18.7206 21.3202 18.9912 21.3202 19.27C21.1849 19.27 21.0496 19.27 20.9102 19.27C20.8682 19.4281 20.8261 19.5861 20.7829 19.7489C20.7276 19.9545 20.6724 20.1601 20.6155 20.3719C20.5608 20.5764 20.5061 20.781 20.4497 20.9917C20.2952 21.525 20.2952 21.525 20.0902 21.935C20.6714 21.9616 20.6714 21.9616 21.3202 21.73C21.9507 21.0011 22.3533 20.2121 22.5502 19.27C22.3472 19.2024 22.1443 19.1347 21.9352 19.065C21.9352 18.7268 21.9352 18.3885 21.9352 18.04C22.3411 18.1753 22.747 18.3106 23.1652 18.45C23.0896 19.6085 22.7299 20.4222 22.1722 21.437C21.8783 22.0022 21.8783 22.0022 21.7302 22.96C20.8507 22.96 19.9713 22.96 19.0652 22.96C18.7599 21.8609 18.5857 20.8187 18.5006 19.6808C18.4931 19.2709 18.4931 19.2709 18.2452 19.065C18.2368 18.7235 18.2364 18.3816 18.2452 18.04Z" fill="#BDBDBD"/>
<path d="M28.7001 9.0201C29.8335 9.92834 30.9397 10.8992 31.7751 12.0951C31.7074 12.2304 31.6398 12.3657 31.5701 12.5051C31.4554 12.3637 31.3407 12.2223 31.2226 12.0767C29.0695 9.55321 26.2828 7.74786 22.9601 7.1751C22.1662 7.12583 21.3722 7.12774 20.577 7.12385C20.2603 7.11751 20.2603 7.11751 19.9371 7.11104C17.8756 7.10067 16.1072 7.55447 14.2732 8.48198C13.922 8.65559 13.922 8.65559 13.5637 8.83272C12.8884 9.24126 12.4242 9.67201 11.8901 10.2501C11.5788 10.5709 11.267 10.8912 10.9548 11.211C10.8023 11.3683 10.6498 11.5255 10.4927 11.6875C10.0805 12.0628 9.73468 12.289 9.2251 12.5051C10.3927 9.99825 13.2593 8.13213 15.7851 7.1751C20.0968 5.83211 25.0233 6.30104 28.7001 9.0201Z" fill="#B5B5B5"/>
<path d="M24.3724 18.0359C24.532 18.0499 24.6916 18.0639 24.856 18.0783C25.0135 18.0897 25.171 18.1011 25.3333 18.1128C26.0242 18.2966 26.3682 18.5393 26.8548 19.0649C26.9837 19.7888 26.9837 19.7888 26.9701 20.6024C26.9704 20.8709 26.9706 21.1394 26.9709 21.416C26.8548 22.1399 26.8548 22.1399 26.5113 22.6428C25.9138 23.0404 25.5672 23.045 24.856 23.0111C24.6541 23.0037 24.4522 22.9963 24.2442 22.9887C24.091 22.9792 23.9377 22.9697 23.7798 22.9599C23.8474 22.6216 23.9151 22.2834 23.9848 21.9349C24.1452 21.9249 24.3056 21.9148 24.4709 21.9045C24.6783 21.8891 24.8857 21.8738 25.0995 21.858C25.3064 21.8437 25.5133 21.8295 25.7265 21.8148C25.8959 21.7868 26.0653 21.7588 26.2398 21.7299C26.5732 21.063 26.4683 20.4195 26.4448 19.6799C26.0882 19.3233 25.5851 19.3987 25.0995 19.3596C24.892 19.3424 24.6846 19.3252 24.4709 19.3075C24.2303 19.2889 24.2303 19.2889 23.9848 19.2699C23.9064 18.9304 23.8384 18.5884 23.7798 18.2449C23.9848 18.0399 23.9848 18.0399 24.3724 18.0359Z" fill="#E9E9E9"/>
<path d="M12.3 12.7099C12.6972 12.9533 12.6972 12.9533 12.915 13.3249C12.9964 13.976 13.0173 14.3786 12.6843 14.9521C12.3 15.1699 12.3 15.1699 11.6978 15.1571C10.9822 14.938 10.6868 14.7497 10.25 14.1449C10.1485 13.5506 10.1707 13.2597 10.4678 12.7355C11.1122 12.3613 11.6001 12.5349 12.3 12.7099Z" fill="#DFDFDF"/>
<path d="M29.9302 12.3C30.3145 12.5434 30.3145 12.5434 30.5452 12.915C30.6654 13.5848 30.6075 13.8477 30.2249 14.414C29.5447 14.8849 29.0994 14.8649 28.2902 14.76C27.8462 14.0941 27.7671 13.8926 27.8802 13.12C28.4621 12.2919 28.9394 12.1524 29.9302 12.3Z" fill="#DFDFDF"/>
<path d="M27.4059 10.0577C27.8799 10.2499 27.8799 10.2499 28.2899 10.6599C28.2522 11.3515 28.2076 11.8948 27.8415 12.4921C27.2914 12.8145 26.8639 12.7763 26.2399 12.7099C25.8299 12.2999 25.8299 12.2999 25.7402 11.7233C25.8299 11.0699 25.8299 11.0699 26.2784 10.4677C26.8549 10.0449 26.8549 10.0449 27.4059 10.0577Z" fill="#E6E6E6"/>
<path d="M26.4193 28.4053C27.0599 28.495 27.0599 28.495 27.5596 28.9306C27.8799 29.52 27.8799 29.52 27.8671 30.1734C27.6749 30.75 27.6749 30.75 27.0599 31.16C26.4264 31.1283 26.1301 31.0436 25.6634 30.609C25.3508 30.0003 25.3465 29.5805 25.4199 28.905C25.8299 28.495 25.8299 28.495 26.4193 28.4053Z" fill="#D0D0D0"/>
<path d="M28.8026 26.6629C29.5201 26.8551 29.5201 26.8551 29.9301 27.2138C30.1927 27.8048 30.1372 28.0945 29.9301 28.7001C29.5201 29.1101 29.5201 29.1101 28.9307 29.1869C28.2901 29.1101 28.2901 29.1101 27.8032 28.7641C27.4701 28.2901 27.4701 28.2901 27.3804 27.7647C27.4701 27.2651 27.4701 27.2651 27.6879 26.8807C28.0851 26.6501 28.0851 26.6501 28.8026 26.6629Z" fill="#E8E8E8"/>
<path d="M12.0052 26.1504C12.5049 26.2401 12.5049 26.2401 12.8764 26.4835C13.2125 26.9965 13.2228 27.2775 13.1199 27.8801C12.7868 28.3541 12.7868 28.3541 12.2999 28.7001C11.6593 28.777 11.6593 28.777 11.0699 28.7001C10.6599 28.2901 10.6599 28.2901 10.583 27.7007C10.6599 27.0601 10.6599 27.0601 11.0058 26.5732C11.4799 26.2401 11.4799 26.2401 12.0052 26.1504Z" fill="#EBEBEB"/>
<path d="M31.7749 14.965C31.9414 15.6312 31.9414 15.6312 31.9799 16.4C31.493 16.9584 31.147 17.1731 30.4296 17.3481C29.9299 17.22 29.9299 17.22 29.4558 16.6306C29.1099 15.99 29.1099 15.99 29.1099 15.58C29.3988 15.4361 29.6896 15.2958 29.9811 15.1571C30.1428 15.0787 30.3046 15.0002 30.4712 14.9193C31.0082 14.7424 31.2518 14.7742 31.7749 14.965Z" fill="#E0E0E0"/>
<path d="M14.145 18.04C14.5765 18.0579 15.0079 18.0801 15.4391 18.1041C15.7994 18.1219 15.7994 18.1219 16.167 18.1401C16.8633 18.2537 17.0142 18.3133 17.425 18.86C17.4948 19.3062 17.4948 19.3062 17.4851 19.817C17.4831 20 17.4811 20.183 17.4791 20.3715C17.4739 20.5619 17.4688 20.7523 17.4635 20.9485C17.4593 21.2376 17.4593 21.2376 17.455 21.5326C17.4478 22.0086 17.4377 22.4842 17.425 22.96C17.2897 22.96 17.1544 22.96 17.015 22.96C17.0026 22.7256 16.9902 22.4912 16.9774 22.2497C16.9601 21.9441 16.9427 21.6385 16.9253 21.3329C16.9173 21.1781 16.9092 21.0234 16.9009 20.864C16.9247 20.1066 16.9247 20.1066 16.605 19.475C16.1918 19.427 15.7771 19.3903 15.3622 19.3597C15.1357 19.3425 14.9093 19.3254 14.6759 19.3077C14.5007 19.2953 14.3255 19.2828 14.145 19.27C14.145 18.8641 14.145 18.4582 14.145 18.04Z" fill="#E5E5E5"/>
<path d="M30.0963 24.5488C30.8066 24.6045 31.0561 24.7409 31.5698 25.2151C31.5021 25.6886 31.4345 26.1622 31.3648 26.6501C31.0092 26.7838 31.0092 26.7838 30.5448 26.8551C30.106 26.6509 30.106 26.6509 29.6735 26.3554C29.5287 26.2584 29.3839 26.1614 29.2347 26.0615C29.1258 25.9851 29.017 25.9088 28.9048 25.8301C29.3728 24.6131 29.3728 24.6131 30.0963 24.5488Z" fill="#DDDDDD"/>
<path d="M18.6551 6.76492C18.0596 7.16195 17.7339 7.26637 17.0535 7.41836C15.1143 7.92706 13.2613 8.76578 11.8901 10.2499C11.5788 10.5707 11.267 10.891 10.9548 11.2109C10.8023 11.3681 10.6498 11.5253 10.4927 11.6873C10.0805 12.0627 9.73468 12.2888 9.2251 12.5049C10.4143 9.95185 13.2539 8.20826 15.7851 7.17492C16.7404 6.85021 17.6435 6.71435 18.6551 6.76492Z" fill="#C0C0C0"/>
<path d="M19.8848 30.34C21.146 30.3199 21.146 30.3199 21.5248 30.34C21.7298 30.545 21.7298 30.545 21.7554 31.0447C21.7298 31.57 21.7298 31.57 21.5248 31.98C21.6066 32.4101 21.6066 32.4101 21.7298 32.8C21.1161 32.5954 20.9205 32.4408 20.4998 31.98C20.4998 32.3182 20.4998 32.6565 20.4998 33.005C20.2968 32.9373 20.0939 32.8697 19.8848 32.8C19.8848 31.9882 19.8848 31.1764 19.8848 30.34Z" fill="#E1E1E1"/>
<path d="M20.0898 7.99512C21.3198 7.99512 21.3198 7.99512 21.9348 8.40512C21.9733 8.94324 21.9733 8.94324 21.9348 9.43012C21.7995 9.43012 21.6642 9.43012 21.5248 9.43012C21.6601 9.83602 21.7954 10.2419 21.9348 10.6601C21.7319 10.6601 21.5289 10.6601 21.3198 10.6601C21.2522 10.3219 21.1845 9.98362 21.1148 9.63512C20.9119 9.63512 20.7089 9.63512 20.4998 9.63512C20.4998 9.97337 20.4998 10.3116 20.4998 10.6601C20.3645 10.6601 20.2292 10.6601 20.0898 10.6601C20.0898 9.78067 20.0898 8.90122 20.0898 7.99512Z" fill="#DDDDDD"/>
<path d="M31.3648 19.4751C31.7707 19.678 32.1766 19.881 32.5948 20.0901C32.5948 20.5636 32.5948 21.0372 32.5948 21.5251C32.3242 21.5251 32.0536 21.5251 31.7748 21.5251C31.7748 21.6604 31.7748 21.7957 31.7748 21.9351C31.3013 21.7998 30.8277 21.6645 30.3398 21.5251C30.3398 21.0515 30.3398 20.578 30.3398 20.0901C30.6104 20.0901 30.881 20.0901 31.1598 20.0901C31.2275 19.8871 31.2951 19.6842 31.3648 19.4751Z" fill="#EBEBEB"/>
<path d="M9.42979 19.4751C9.56509 19.5427 9.70039 19.6104 9.83979 19.6801C9.83979 19.8154 9.83979 19.9507 9.83979 20.0901C10.1104 20.0901 10.381 20.0901 10.6598 20.0901C10.6598 20.5636 10.6598 21.0372 10.6598 21.5251C10.5329 21.5505 10.4061 21.5758 10.2754 21.602C9.80059 21.7039 9.80059 21.7039 9.42979 22.1401C9.36214 22.0048 9.29449 21.8695 9.22479 21.7301C8.80974 21.5964 8.80974 21.5964 8.40479 21.5251C8.40479 21.0515 8.40479 20.578 8.40479 20.0901C8.67539 20.0901 8.94599 20.0901 9.22479 20.0901C9.29244 19.8871 9.36009 19.6842 9.42979 19.4751Z" fill="#EDEDED"/>
<path d="M19.885 18.45C20.2182 18.7446 20.2182 18.7446 20.5 19.27C20.4206 20.2324 20.1331 21.0866 19.68 21.935C19.5447 21.935 19.4094 21.935 19.27 21.935C18.999 21.3928 19.0452 20.976 19.0522 20.3718C19.0541 20.1662 19.0559 19.9606 19.0578 19.7488C19.0602 19.5908 19.0626 19.4328 19.065 19.27C19.2003 19.27 19.3356 19.27 19.475 19.27C19.5427 19.067 19.6103 18.8641 19.68 18.655C19.7477 18.5873 19.8153 18.5197 19.885 18.45Z" fill="#090909"/>
<path d="M9.22494 14.76C9.36024 14.76 9.49554 14.76 9.63494 14.76C9.77024 15.0306 9.90554 15.3012 10.0449 15.58C10.6538 15.58 11.2626 15.58 11.8899 15.58C11.8223 15.783 11.7546 15.9859 11.6849 16.195C11.279 16.195 10.8731 16.195 10.4549 16.195C10.4549 16.398 10.4549 16.6009 10.4549 16.81C10.7255 16.8777 10.9961 16.9453 11.2749 17.015C11.2749 17.1503 11.2749 17.2856 11.2749 17.425C10.3392 17.3136 9.64051 17.0571 8.81494 16.605C8.81494 16.4697 8.81494 16.3344 8.81494 16.195C9.32232 16.2965 9.32232 16.2965 9.83994 16.4C9.68773 16.1653 9.68773 16.1653 9.53244 15.9259C9.22494 15.375 9.22494 15.375 9.22494 14.76Z" fill="#CECECE"/>
<path d="M26.4448 21.3201C26.5801 21.3877 26.7154 21.4554 26.8548 21.5251C26.7907 22.0119 26.7907 22.0119 26.6498 22.5501C25.9485 23.0176 25.69 23.005 24.8688 22.9857C24.5632 22.9801 24.5632 22.9801 24.2514 22.9745C24.0958 22.9697 23.9401 22.965 23.7798 22.9601C23.8474 22.6218 23.9151 22.2836 23.9848 21.9351C24.1452 21.925 24.3056 21.915 24.4709 21.9046C24.6783 21.8893 24.8857 21.874 25.0995 21.8582C25.3064 21.8439 25.5133 21.8297 25.7265 21.815C25.9806 21.7729 25.9806 21.7729 26.2398 21.7301C26.3074 21.5948 26.3751 21.4595 26.4448 21.3201Z" fill="#DEDEDE"/>
<path d="M15.7851 8.81494C16.4001 9.01994 16.4001 9.01994 16.6395 9.42914C16.7085 9.5943 16.7775 9.75946 16.8485 9.92963C16.9191 10.0943 16.9896 10.2589 17.0623 10.4285C17.2201 10.8649 17.2201 10.8649 17.2201 11.2749C17.0171 11.2073 16.8142 11.1396 16.6051 11.0699C16.5374 10.9346 16.4698 10.7993 16.4001 10.6599C16.0618 10.6599 15.7236 10.6599 15.3751 10.6599C15.578 10.9644 15.578 10.9644 15.7851 11.2749C15.7851 11.4779 15.7851 11.6808 15.7851 11.8899C15.1701 11.6849 15.1701 11.6849 14.9307 11.2165C14.8617 11.0286 14.7927 10.8407 14.7217 10.6471C14.6511 10.4587 14.5805 10.2703 14.5079 10.0762C14.4558 9.93057 14.4037 9.78496 14.3501 9.63494C14.553 9.63494 14.756 9.63494 14.9651 9.63494C15.0327 9.77024 15.1004 9.90554 15.1701 10.0449C15.5083 10.0449 15.8466 10.0449 16.1951 10.0449C16.0598 9.63904 15.9245 9.23314 15.7851 8.81494Z" fill="#DADADA"/>
<path d="M15.5802 29.1101C15.7155 29.1101 15.8508 29.1101 15.9902 29.1101C15.8549 29.516 15.7196 29.9219 15.5802 30.3401C15.9184 30.4078 16.2567 30.4754 16.6052 30.5451C16.6728 30.2745 16.7405 30.0039 16.8102 29.7251C16.9455 29.7251 17.0808 29.7251 17.2202 29.7251C17.0839 30.6248 16.7717 31.3612 16.4002 32.1851C16.2649 32.1851 16.1296 32.1851 15.9902 32.1851C15.9902 31.7792 15.9902 31.3733 15.9902 30.9551C15.7872 30.8875 15.5843 30.8198 15.3752 30.7501C15.2399 31.0207 15.1046 31.2913 14.9652 31.5701C14.8299 31.5701 14.6946 31.5701 14.5552 31.5701C14.6733 30.5954 15.0781 29.9362 15.5802 29.1101Z" fill="#DEDEDE"/>
<path d="M11.48 24.19C11.4124 24.3253 11.3447 24.4606 11.275 24.6C11.0721 24.6677 10.8691 24.7353 10.66 24.805C11.0659 24.9403 11.4718 25.0756 11.89 25.215C11.89 25.3503 11.89 25.4856 11.89 25.625C11.2812 25.5235 11.2812 25.5235 10.66 25.42C10.5966 25.5807 10.5332 25.7414 10.4678 25.9069C10.25 26.445 10.25 26.445 10.045 26.855C9.90972 26.855 9.77442 26.855 9.63502 26.855C9.76368 26.2546 9.9602 25.756 10.25 25.215C9.84412 25.2827 9.43822 25.3503 9.02002 25.42C9.22502 24.805 9.22502 24.805 9.58217 24.5584C9.72645 24.4876 9.87074 24.4167 10.0194 24.3438C10.1626 24.2708 10.3059 24.1979 10.4534 24.1227C10.865 23.985 10.865 23.985 11.48 24.19Z" fill="#DFDFDF"/>
<path d="M19.0648 8.20004C19.0648 8.33534 19.0648 8.47064 19.0648 8.61004C18.7266 8.61004 18.3883 8.61004 18.0398 8.61004C18.0398 8.81299 18.0398 9.01594 18.0398 9.22504C18.3781 9.22504 18.7163 9.22504 19.0648 9.22504C19.0648 9.36034 19.0648 9.49564 19.0648 9.63504C18.7942 9.63504 18.5236 9.63504 18.2448 9.63504C18.2448 9.90564 18.2448 10.1762 18.2448 10.455C18.6507 10.455 19.0566 10.455 19.4748 10.455C19.4072 10.5903 19.3395 10.7256 19.2698 10.865C18.7963 10.865 18.3227 10.865 17.8348 10.865C17.6995 10.0532 17.5642 9.24144 17.4248 8.40504C17.9801 8.12739 18.4517 8.18671 19.0648 8.20004Z" fill="#D6D6D6"/>
<path d="M17.8348 30.1349C18.4242 30.1093 18.4242 30.1093 19.0648 30.1349C19.2001 30.2702 19.3354 30.4055 19.4748 30.5449C19.0689 30.5449 18.663 30.5449 18.2448 30.5449C18.2448 30.7479 18.2448 30.9508 18.2448 31.1599C18.5154 31.1599 18.786 31.1599 19.0648 31.1599C19.0648 31.2952 19.0648 31.4305 19.0648 31.5699C18.7266 31.5699 18.3883 31.5699 18.0398 31.5699C18.1075 31.7729 18.1751 31.9758 18.2448 32.1849C18.6579 32.3353 18.6579 32.3353 19.0648 32.3899C19.0648 32.5252 19.0648 32.6605 19.0648 32.7999C18.5236 32.7323 17.9824 32.6646 17.4248 32.5949C17.4537 32.2617 17.4838 31.9286 17.5145 31.5956C17.5311 31.4101 17.5478 31.2245 17.5649 31.0334C17.6298 30.5449 17.6298 30.5449 17.8348 30.1349Z" fill="#D0D0D0"/>
<path d="M13.5298 10.4551C13.5298 10.5904 13.5298 10.7257 13.5298 10.8651C13.2592 10.9327 12.9886 11.0004 12.7098 11.0701C12.7098 11.273 12.7098 11.476 12.7098 11.6851C12.8406 11.6679 12.9714 11.6507 13.1062 11.633C13.2756 11.6122 13.445 11.5913 13.6195 11.5698C13.7884 11.5484 13.9572 11.527 14.1312 11.5049C14.271 11.4967 14.4108 11.4885 14.5548 11.4801C14.7598 11.6851 14.7598 11.6851 14.7982 12.1848C14.7598 12.7101 14.7598 12.7101 14.3498 13.1201C13.8117 13.1457 13.8117 13.1457 13.3248 13.1201C13.5298 12.7101 13.5298 12.7101 14.1448 12.5051C14.2125 12.3021 14.2801 12.0992 14.3498 11.8901C13.4365 11.9916 13.4365 11.9916 12.5048 12.0951C12.3639 11.621 12.3639 11.621 12.2998 11.0701C12.693 10.5 12.8214 10.4551 13.5298 10.4551Z" fill="#DDDDDD"/>
<path d="M13.5299 28.0849C14.0168 28.0593 14.0168 28.0593 14.5549 28.0849C14.9649 28.4949 14.9649 28.4949 14.9649 29.1099C14.8296 29.1099 14.6943 29.1099 14.5549 29.1099C14.4872 28.9746 14.4196 28.8393 14.3499 28.6999C14.1469 28.6322 13.944 28.5646 13.7349 28.4949C13.8448 28.6809 13.9547 28.867 14.068 29.0586C14.3499 29.7249 14.3499 29.7249 14.1833 30.2118C14.103 30.3217 14.0227 30.4316 13.9399 30.5449C13.453 30.5705 13.453 30.5705 12.9149 30.5449C12.7796 30.4096 12.6443 30.2743 12.5049 30.1349C12.5049 29.9319 12.5049 29.729 12.5049 29.5199C12.6402 29.5199 12.7755 29.5199 12.9149 29.5199C12.9825 29.6552 13.0502 29.7905 13.1199 29.9299C13.3228 29.9975 13.5258 30.0652 13.7349 30.1349C13.6271 29.9129 13.6271 29.9129 13.5171 29.6865C13.3035 29.0459 13.3472 28.7242 13.5299 28.0849Z" fill="#E2E2E2"/>
<path d="M18.2452 18.04C18.6511 18.1753 19.057 18.3106 19.4752 18.45C19.4752 18.7206 19.4752 18.9912 19.4752 19.27C19.3399 19.27 19.2046 19.27 19.0652 19.27C19.0847 19.4405 19.1043 19.6109 19.1244 19.7865C19.1472 20.0093 19.1699 20.2321 19.1933 20.4616C19.2171 20.6828 19.2409 20.904 19.2654 21.1319C19.2702 21.73 19.2702 21.73 18.8602 22.345C18.833 22.1254 18.8057 21.9058 18.7777 21.6796C18.7412 21.3932 18.7046 21.1068 18.668 20.8204C18.6502 20.6754 18.6323 20.5305 18.6139 20.3811C18.5768 19.662 18.5768 19.662 18.2452 19.065C18.2368 18.7235 18.2364 18.3816 18.2452 18.04Z" fill="#D0D0D0"/>
<path d="M29.5713 12.7612C29.7489 12.8373 29.7489 12.8373 29.93 12.9149C30.071 13.2865 30.071 13.2865 30.135 13.7349C29.9044 14.0937 29.9044 14.0937 29.52 14.3499C28.9691 14.3884 28.9691 14.3884 28.495 14.3499C28.3413 13.9912 28.3413 13.9912 28.29 13.5299C28.905 12.6872 28.905 12.6872 29.5713 12.7612Z" fill="#121212"/>
<path d="M24.3952 8.81494C25.5739 8.99432 25.5739 8.99432 26.0352 9.22494C26.0352 9.36024 26.0352 9.49554 26.0352 9.63494C25.6293 9.63494 25.2234 9.63494 24.8052 9.63494C24.7375 9.77024 24.6699 9.90554 24.6002 10.0449C24.8708 10.1126 25.1414 10.1802 25.4202 10.2499C25.4202 10.3852 25.4202 10.5205 25.4202 10.6599C25.1792 10.6409 25.1792 10.6409 24.9333 10.6215C24.6669 10.6405 24.6669 10.6405 24.3952 10.6599C24.1922 10.9644 24.1922 10.9644 23.9852 11.2749C23.8499 11.2749 23.7146 11.2749 23.5752 11.2749C23.673 10.9417 23.7713 10.6086 23.8699 10.2756C23.9246 10.0901 23.9793 9.90455 24.0356 9.71342C24.1902 9.22494 24.1902 9.22494 24.3952 8.81494Z" fill="#D9D9D9"/>
<path d="M19.0649 21.73C20.2826 21.9329 20.2826 21.9329 21.5249 22.14C21.5249 22.4106 21.5249 22.6812 21.5249 22.96C20.7131 22.96 19.9013 22.96 19.0649 22.96C19.0649 22.5541 19.0649 22.1482 19.0649 21.73Z" fill="#F9F9F9"/>
<path d="M11.0699 12.915C11.5631 12.9808 11.8571 13.0963 12.2615 13.3891C12.5049 13.735 12.5049 13.735 12.4409 14.1835C12.3711 14.3674 12.3711 14.3674 12.2999 14.555C11.7171 14.6023 11.3853 14.6286 10.8905 14.2988C10.6599 13.94 10.6599 13.94 10.7112 13.5044C10.8649 13.12 10.8649 13.12 11.0699 12.915Z" fill="#101010"/>
<path d="M27.1755 10.6472C27.4229 10.6536 27.4229 10.6536 27.6752 10.66C27.8162 11.1341 27.8162 11.1341 27.8802 11.685C27.6496 12.0694 27.6496 12.0694 27.2652 12.3C26.7143 12.236 26.7143 12.236 26.2402 12.095C26.4532 10.6648 26.4532 10.6648 27.1755 10.6472Z" fill="#101010"/>
<path d="M28.0849 27.0601C29.0586 27.2138 29.0586 27.2138 29.5199 27.6751C29.443 28.2132 29.443 28.2132 29.3149 28.7001C28.3411 28.5463 28.3411 28.5463 27.8799 28.0851C27.9568 27.5469 27.9568 27.5469 28.0849 27.0601Z" fill="#121212"/>
<path d="M11.6848 26.6499C12.2229 26.7268 12.2229 26.7268 12.7098 26.8549C12.5561 27.8287 12.5561 27.8287 12.0948 28.2899C11.5567 28.213 11.5567 28.213 11.0698 28.0849C11.2236 27.1112 11.2236 27.1112 11.6848 26.6499Z" fill="#101010"/>
<path d="M26.0352 28.905C27.0346 29.0844 27.0346 29.0844 27.2652 29.315C27.2736 29.7249 27.274 30.1351 27.2652 30.545C26.7784 30.5835 26.7784 30.5835 26.2402 30.545C25.8302 29.93 25.8302 29.93 25.9071 29.3791C25.9494 29.2227 25.9917 29.0662 26.0352 28.905Z" fill="#0D0D0D"/>
<path d="M24.8051 29.725C24.5345 29.7926 24.2639 29.8603 23.9851 29.93C23.9851 30.2006 23.9851 30.4712 23.9851 30.75C24.3234 30.6823 24.6616 30.6147 25.0101 30.545C25.0101 30.6803 25.0101 30.8156 25.0101 30.955C24.8072 31.0565 24.8072 31.0565 24.6001 31.16C24.4657 31.6781 24.4657 31.6781 24.3951 32.185C23.8692 31.922 23.8488 31.7283 23.652 31.1856C23.5986 31.0424 23.5452 30.8992 23.4902 30.7516C23.3701 30.34 23.3701 30.34 23.3701 29.725C24.0125 29.5109 24.188 29.5335 24.8051 29.725Z" fill="#DCDCDC"/>
<path d="M31.5702 15.375C31.5061 15.8619 31.5061 15.8619 31.3652 16.4C30.7502 16.81 30.7502 16.81 30.3017 16.7331C30.1791 16.6908 30.0565 16.6486 29.9302 16.605C29.9302 16.3344 29.9302 16.0638 29.9302 15.785C30.5632 15.4233 30.798 15.375 31.5702 15.375Z" fill="#191919"/>
<path d="M19.8848 30.3401C20.426 30.3401 20.9672 30.3401 21.5248 30.3401C21.3895 30.746 21.2542 31.1519 21.1148 31.5701C20.8442 31.5701 20.5736 31.5701 20.2948 31.5701C20.2271 31.976 20.1595 32.3819 20.0898 32.8001C20.0221 32.8001 19.9545 32.8001 19.8848 32.8001C19.8848 31.9883 19.8848 31.1765 19.8848 30.3401Z" fill="#797979"/>
<path d="M11.0701 10.0449C11.3407 10.1126 11.6113 10.1802 11.8901 10.2499C11.601 10.5501 11.3103 10.8488 11.0188 11.1468C10.8571 11.3133 10.6954 11.4798 10.5288 11.6513C10.0997 12.0449 9.75728 12.2828 9.2251 12.5049C9.52117 11.841 9.89293 11.3529 10.3782 10.8137C10.5077 10.6689 10.6372 10.524 10.7706 10.3748C10.8694 10.266 10.9683 10.1571 11.0701 10.0449Z" fill="#777777"/>
<path d="M29.7249 25.01C30.3338 25.1115 30.3338 25.1115 30.9549 25.215C31.0226 25.5533 31.0902 25.8915 31.1599 26.24C30.957 26.3415 30.957 26.3415 30.7499 26.445C30.2426 26.2166 29.7908 25.9158 29.3149 25.625C29.4502 25.4221 29.5855 25.2191 29.7249 25.01Z" fill="#101010"/>
<path d="M21.9351 18.04C22.341 18.1753 22.7469 18.3106 23.1651 18.45C23.1651 18.7883 23.1651 19.1265 23.1651 19.475C22.5501 19.475 22.5501 19.475 21.9351 19.065C21.8966 18.5269 21.8966 18.5269 21.9351 18.04Z" fill="#E3E3E3"/>
<path d="M20.0898 7.99512C20.2928 7.99512 20.4957 7.99512 20.7048 7.99512C20.6372 8.46867 20.5695 8.94222 20.4998 9.43012C20.7704 9.43012 21.041 9.43012 21.3198 9.43012C21.2522 9.56542 21.1845 9.70072 21.1148 9.84012C20.9119 9.77247 20.7089 9.70482 20.4998 9.63512C20.4998 9.97337 20.4998 10.3116 20.4998 10.6601C20.3645 10.6601 20.2292 10.6601 20.0898 10.6601C20.0898 9.78067 20.0898 8.90122 20.0898 7.99512Z" fill="#F1F1F1"/>
<path d="M8.81494 16.1951C9.10668 16.2521 9.10668 16.2521 9.40432 16.3104C10.0242 16.4589 10.0242 16.4589 10.4549 16.1951C10.4549 16.398 10.4549 16.601 10.4549 16.8101C10.7255 16.8777 10.9961 16.9454 11.2749 17.0151C11.2749 17.1504 11.2749 17.2857 11.2749 17.4251C10.3392 17.3137 9.64051 17.0572 8.81494 16.6051C8.81494 16.4698 8.81494 16.3345 8.81494 16.1951Z" fill="#DDDDDD"/>
<path d="M14.5551 9.42993C14.961 9.76818 15.3669 10.1064 15.7851 10.4549C15.5821 10.5564 15.5821 10.5564 15.3751 10.6599C15.578 10.9644 15.578 10.9644 15.7851 11.2749C15.7851 11.4779 15.7851 11.6808 15.7851 11.8899C15.1701 11.6849 15.1701 11.6849 14.9307 11.2165C14.8617 11.0286 14.7927 10.8407 14.7217 10.6471C14.6511 10.4587 14.5805 10.2703 14.5079 10.0762C14.4558 9.93056 14.4037 9.78495 14.3501 9.63493C14.4177 9.56728 14.4854 9.49963 14.5551 9.42993Z" fill="#E2E2E2"/>
<path d="M31.5702 15.1699C31.7055 15.2376 31.8408 15.3052 31.9802 15.3749C32.0442 15.8362 32.0442 15.8362 31.9802 16.3999C31.4534 16.9568 31.1492 17.2027 30.3786 17.2712C30.2306 17.2543 30.0826 17.2373 29.9302 17.2199C29.9302 17.0846 29.9302 16.9493 29.9302 16.8099C30.279 16.6894 30.279 16.6894 30.6349 16.5665C31.4069 16.2798 31.4069 16.2798 31.5574 15.644C31.5616 15.4875 31.5658 15.3311 31.5702 15.1699Z" fill="#E3E3E3"/>
<path d="M29.9302 24.6001C31.1089 24.7538 31.1089 24.7538 31.5702 25.2151C31.4933 25.9582 31.4933 25.9582 31.3652 26.6501C31.1622 26.7177 30.9593 26.7854 30.7502 26.8551C30.8326 26.5253 30.8326 26.5253 30.9167 26.1888C30.9294 25.9352 30.9421 25.6815 30.9552 25.4201C30.4835 24.9092 30.4835 24.9092 29.9302 24.6001Z" fill="#E8E8E8"/>
<path d="M11.48 24.19C11.4124 24.3253 11.3447 24.4606 11.275 24.6C10.7497 24.7281 10.7497 24.7281 10.25 24.805C10.25 24.9403 10.25 25.0756 10.25 25.215C9.84412 25.2827 9.43822 25.3503 9.02002 25.42C9.22502 24.805 9.22502 24.805 9.58217 24.5584C9.72645 24.4876 9.87074 24.4167 10.0194 24.3438C10.1626 24.2708 10.3059 24.1979 10.4534 24.1227C10.865 23.985 10.865 23.985 11.48 24.19Z" fill="#D7D7D7"/>
<path d="M20.0898 18.04C20.4957 18.1753 20.9016 18.3106 21.3198 18.45C21.3198 18.7206 21.3198 18.9912 21.3198 19.27C20.711 19.1686 20.711 19.1686 20.0898 19.065C20.0898 18.7268 20.0898 18.3885 20.0898 18.04Z" fill="#ECECEC"/>
<path d="M11.2748 12.5049C12.4536 12.8636 12.4536 12.8636 12.9148 13.3249C12.9404 13.863 12.9404 13.863 12.9148 14.3499C12.6073 14.068 12.6073 14.068 12.2998 13.7349C12.2998 13.5996 12.2998 13.4643 12.2998 13.3249C11.8939 13.1896 11.488 13.0543 11.0698 12.9149C11.1375 12.7796 11.2051 12.6443 11.2748 12.5049Z" fill="#E3E3E3"/>
<path d="M26.855 10.0449C27.8287 10.1987 27.8287 10.1987 28.29 10.6599C28.3156 11.198 28.3156 11.198 28.29 11.6849C28.087 11.6849 27.8841 11.6849 27.675 11.6849C27.675 11.4143 27.675 11.1437 27.675 10.8649C27.4044 10.7973 27.1338 10.7296 26.855 10.6599C26.855 10.457 26.855 10.254 26.855 10.0449Z" fill="#D6D6D6"/>
<path d="M25.4199 29.3149C25.5341 29.4756 25.6482 29.6363 25.7659 29.8018C26.2556 30.3578 26.5681 30.537 27.2649 30.7499C27.1973 30.8852 27.1296 31.0205 27.0599 31.1599C26.4322 31.0921 26.1168 31.0368 25.6634 30.5834C25.4199 30.1349 25.4199 30.1349 25.4199 29.3149Z" fill="#E4E4E4"/>
<path d="M17.835 30.1349C18.4243 30.1093 18.4243 30.1093 19.065 30.1349C19.2003 30.2702 19.3356 30.4055 19.475 30.5449C19.0691 30.5449 18.6632 30.5449 18.245 30.5449C18.3126 30.8155 18.3803 31.0861 18.45 31.3649C18.247 31.3649 18.0441 31.3649 17.835 31.3649C17.835 30.959 17.835 30.5531 17.835 30.1349Z" fill="#EAEAEA"/>
<path d="M29.1099 26.855C29.5071 26.9831 29.5071 26.9831 29.9299 27.265C30.0836 27.9056 30.0836 27.9056 30.1349 28.495C29.9319 28.495 29.729 28.495 29.5199 28.495C29.2623 27.8992 29.1099 27.5118 29.1099 26.855Z" fill="#BEBEBE"/>
<path d="M12.5049 14.145C12.6402 14.2803 12.7755 14.4156 12.9149 14.555C12.6715 14.8753 12.6715 14.8753 12.2999 15.17C11.749 15.106 11.749 15.106 11.2749 14.965C11.2749 14.8297 11.2749 14.6944 11.2749 14.555C11.6808 14.4197 12.0867 14.2844 12.5049 14.145Z" fill="#CFCFCF"/>
<path d="M13.5302 28.0849C14.0171 28.0593 14.0171 28.0593 14.5552 28.0849C14.9652 28.4949 14.9652 28.4949 14.9652 29.1099C14.8299 29.1099 14.6946 29.1099 14.5552 29.1099C14.4875 28.9746 14.4199 28.8393 14.3502 28.6999C14.0119 28.6999 13.6737 28.6999 13.3252 28.6999C13.3928 28.4969 13.4605 28.294 13.5302 28.0849Z" fill="#D7D7D7"/>
<path d="M10.8651 26.6499C11.0681 26.7176 11.271 26.7852 11.4801 26.8549C11.4125 27.3285 11.3448 27.802 11.2751 28.2899C11.0722 28.2899 10.8692 28.2899 10.6601 28.2899C10.6345 27.1112 10.6345 27.1112 10.8651 26.6499Z" fill="#D8D8D8"/>
<path d="M17.835 9.63501C18.0379 9.93943 18.0379 9.93943 18.245 10.25C18.8734 10.4004 18.8734 10.4004 19.475 10.455C19.4073 10.5903 19.3397 10.7256 19.27 10.865C18.7964 10.865 18.3229 10.865 17.835 10.865C17.835 10.4591 17.835 10.0532 17.835 9.63501Z" fill="#EDEDED"/>
<path d="M24.395 8.81494C25.5738 8.99432 25.5738 8.99432 26.035 9.22494C26.035 9.36024 26.035 9.49554 26.035 9.63494C25.5615 9.63494 25.0879 9.63494 24.6 9.63494C24.5324 9.36434 24.4647 9.09374 24.395 8.81494Z" fill="#CDCDCD"/>
<path d="M20.5 8.40503C21.0074 8.5065 21.0074 8.5065 21.525 8.61003C21.525 8.81298 21.525 9.01593 21.525 9.22503C21.1867 9.22503 20.8485 9.22503 20.5 9.22503C20.5 8.95443 20.5 8.68383 20.5 8.40503Z" fill="#222222"/>
<path d="M15.9902 30.75C16.2608 30.75 16.5314 30.75 16.8102 30.75C16.6309 31.7238 16.6309 31.7238 16.4002 32.185C16.2649 32.185 16.1296 32.185 15.9902 32.185C15.9902 31.7115 15.9902 31.2379 15.9902 30.75Z" fill="#D5D5D5"/>
<path d="M26.4705 28.4695C26.665 28.4779 26.8595 28.4864 27.0599 28.4951C26.6499 28.9051 26.6499 28.9051 26.0349 29.1101C25.8996 29.3131 25.7643 29.516 25.6249 29.7251C25.4968 29.3407 25.4968 29.3407 25.4199 28.9051C25.8299 28.4951 25.8299 28.4951 26.4705 28.4695Z" fill="#D8D8D8"/>
<path d="M31.7748 14.9651C31.7071 15.1004 31.6395 15.2357 31.5698 15.3751C31.0701 15.5288 31.0701 15.5288 30.5448 15.5801C30.4095 15.4448 30.2742 15.3095 30.1348 15.1701C30.7636 14.7883 31.0772 14.716 31.7748 14.9651Z" fill="#D3D3D3"/>
<path d="M28.085 13.325C28.1358 13.4476 28.1865 13.5702 28.2388 13.6965C28.5286 14.2037 28.8334 14.4389 29.315 14.76C28.8282 14.7984 28.8282 14.7984 28.29 14.76C27.88 14.145 27.88 14.145 27.9569 13.6965C27.9992 13.5739 28.0415 13.4513 28.085 13.325Z" fill="#F0F0F0"/>
</g>
<defs>
<clipPath id="clip0_1_234">
<rect width="41" height="41" fill="white"/>
</clipPath>
</defs>
</svg>
