<svg width="17" height="20" viewBox="0 0 17 20" fill="none" xmlns="http://www.w3.org/2000/svg">
<path d="M0.75 11.8137C1.67996 11.8137 2.97862 11.5377 3.79282 12.1344L5.40839 13.3182C6.00861 13.758 6.65869 13.6132 7.32841 13.508C8.21066 13.3695 9 14.1219 9 15.1015C9 15.3692 7.09996 16.0496 6.8253 16.179C6.28582 16.4331 5.66606 16.3706 5.1777 16.0127L3.35526 14.6773" stroke="#4C4C4C" stroke-width="1.5" stroke-linecap="round" stroke-linejoin="round"/>
<path d="M9 14.5L12.7501 12.7671C13.4224 12.5328 14.1636 12.7158 14.6647 13.2396L15.2796 13.8824C15.4994 14.1121 15.4477 14.4978 15.176 14.6556L7.97601 18.8372C7.54224 19.0891 7.03049 19.1506 6.55336 19.0081L0.75 17.2747" stroke="#4C4C4C" stroke-width="1.5" stroke-linecap="round" stroke-linejoin="round"/>
<path d="M8.08464 9.91667C8.08464 9.91667 10.0096 7.86464 10.0096 5.33333C10.0096 2.80203 8.08464 0.75 8.08464 0.75C8.08464 0.75 6.15964 2.80203 6.15964 5.33333C6.15964 7.86464 8.08464 9.91667 8.08464 9.91667ZM8.08464 9.91667C8.08464 9.91667 10.8961 9.85399 12.668 8.04592C14.4399 6.23784 14.5013 3.36905 14.5013 3.36905C14.5013 3.36905 13.3376 3.39499 12.0358 3.89496M8.08464 9.91667C8.08464 9.91667 5.27322 9.85399 3.5013 8.04592C1.72939 6.23784 1.66797 3.36905 1.66797 3.36905C1.66797 3.36905 2.83163 3.39499 4.1335 3.89496" stroke="#4C4C4C" stroke-width="1.5" stroke-linecap="round" stroke-linejoin="round"/>
</svg>
